<?xml version="1.0" encoding="UTF-8" standalone="no"?>
<!-- Generator: Adobe Illustrator 16.0.4, SVG Export Plug-In . SVG Version: 6.00 Build 0)  -->

<svg
   xmlns:dc="http://purl.org/dc/elements/1.1/"
   xmlns:cc="http://creativecommons.org/ns#"
   xmlns:rdf="http://www.w3.org/1999/02/22-rdf-syntax-ns#"
   xmlns:svg="http://www.w3.org/2000/svg"
   xmlns="http://www.w3.org/2000/svg"
   xmlns:sodipodi="http://sodipodi.sourceforge.net/DTD/sodipodi-0.dtd"
   xmlns:inkscape="http://www.inkscape.org/namespaces/inkscape"
   version="1.1"
   id="レイヤー_1"
   x="0px"
   y="0px"
   width="94"
   height="28"
   viewBox="0 0 94 28"
   enable-background="new 0 0 46 23"
   xml:space="preserve"
   inkscape:version="0.48.5 r10040"
   sodipodi:docname="futuu.svg"><metadata
   id="metadata3190"><rdf:RDF><cc:Work
       rdf:about=""><dc:format>image/svg+xml</dc:format><dc:type
         rdf:resource="http://purl.org/dc/dcmitype/StillImage" /><dc:title /></cc:Work></rdf:RDF></metadata><defs
   id="defs3188" /><sodipodi:namedview
   pagecolor="#ffffff"
   bordercolor="#666666"
   borderopacity="1"
   objecttolerance="10"
   gridtolerance="10"
   guidetolerance="10"
   inkscape:pageopacity="0"
   inkscape:pageshadow="2"
   inkscape:window-width="1366"
   inkscape:window-height="706"
   id="namedview3186"
   showgrid="false"
   inkscape:zoom="10.26087"
   inkscape:cx="48.023909"
   inkscape:cy="17.429707"
   inkscape:window-x="-8"
   inkscape:window-y="-8"
   inkscape:window-maximized="1"
   inkscape:current-layer="flowRoot3836"
   showguides="true"
   inkscape:guide-bbox="true" />


<g
   style="font-size:11px;font-style:normal;font-weight:normal;line-height:125%;letter-spacing:0px;word-spacing:0px;fill:#000000;fill-opacity:1;stroke:none;font-family:Sans"
   id="flowRoot3901"
   transform="translate(0,5)">path
     d=&quot;m 19.546875,5.65625 c 0.104153,-0.1562354 0.234361,-0.2343603 0.390625,-0.234375 0.989568,0.4166809 1.536443,0.7812639 1.640625,1.09375 -0.104182,0.2083467 -0.312515,0.4166798 -0.625,0.625 -0.572931,0.7291789 -1.197931,1.302095 -1.875,1.71875 0.572903,0.2083444 0.833319,0.4948024 0.78125,0.859375 0.781235,-0.052073 1.432276,0.1823019 1.953125,0.703125 0.208317,1.510425 0.312484,3.307298 0.3125,5.390625 l 0,2.1875 c -1.6e-5,0.312502 -0.130224,0.59896 -0.390625,0.859375 -0.260432,0.208334 -0.520849,0.390626 -0.78125,0.546875 0.468734,0.05208 0.937484,0.104167 1.40625,0.15625 0.468733,0.05208 0.989566,0.07813 1.5625,0.07813 0.312482,0 0.59894,0.02604 0.859375,0.07813 0.260397,0.05208 0.468731,0.104167 0.625,0.15625 -2e-5,0.208333 -0.156269,0.338542 -0.46875,0.390625 -0.885435,0.3125 -1.614601,0.572916 -2.1875,0.78125 -0.572933,0.208332 -1.432307,0.33854 -2.578125,0.390625 l -1.09375,-0.07813 C 17.567697,20.890624 16.395823,20.395833 15.5625,19.875 14.729158,19.354167 12.749993,19.093751 9.625,19.09375 9.3645798,19.093751 9.1562467,19.145834 9,19.25 8.7916638,19.458334 8.6093723,19.484376 8.453125,19.328125 8.192706,19.067709 7.9583313,18.781251 7.75,18.46875 7.6979148,18.312502 7.6979148,18.156252 7.75,18 9.4687464,17.218753 10.588537,16.489587 11.109375,15.8125 10.328121,15.187505 9.9374959,14.432297 9.9375,13.546875 L 9.78125,13.15625 C 9.4166631,12.843757 9.0781218,12.583341 8.765625,12.375 l 0.3125,-0.15625 c 0.8333293,-0.624991 1.32812,-0.937491 1.484375,-0.9375 0.468745,9e-6 0.859369,0.260425 1.171875,0.78125 -0.416672,0.625007 -0.651047,1.223965 -0.703125,1.796875 -5e-6,0.416673 0.338536,0.833339 1.015625,1.25 0.781243,0.416671 1.171868,0.729171 1.171875,0.9375 -7e-6,0.156254 -0.07813,0.338545 -0.234375,0.546875 -0.572923,0.41667 -0.963548,0.755211 -1.171875,1.015625 1.302076,0.208336 2.604158,0.468752 3.90625,0.78125 1.406239,0.364585 2.421863,0.625001 3.046875,0.78125 0.572903,0.156251 1.093736,0.234376 1.5625,0.234375 l 0.46875,0 L 19.46875,18 18.765625,17.296875 c 0.05207,0.572919 -0.02605,0.989585 -0.234375,1.25 -0.729179,2e-6 -1.06772,-0.49479 -1.015625,-1.484375 -1.2e-5,-0.36458 -1.2e-5,-0.67708 0,-0.9375 -0.0521,-0.312496 -0.07814,-0.624995 -0.07813,-0.9375 -0.416678,0.156255 -0.755219,0.286463 -1.015625,0.390625 -0.208344,-0.05208 -0.390635,-0.208329 -0.546875,-0.46875 l -0.07813,0.625 c -0.15626,0.72917 -0.234385,1.223961 -0.234375,1.484375 -10e-6,0.208336 -0.07813,0.416669 -0.234375,0.625 -0.05209,0.156252 -0.182301,0.13021 -0.390625,-0.07813 -0.364592,-0.468747 -0.572925,-0.83333 -0.625,-1.09375 0.208325,-0.989579 0.416658,-1.979161 0.625,-2.96875 0.46874,-2.187491 1.145823,-3.541657 2.03125,-4.0625 l 0.703125,-0.3125 C 17.411447,9.2760525 17.177072,9.2239692 16.96875,9.171875 16.708323,9.0677194 16.526031,8.807303 16.421875,8.390625 c -1.1e-5,-0.1562381 0.104156,-0.2604047 0.3125,-0.3125 C 17.098947,8.0260538 17.437488,8.0520954 17.75,8.15625 18.583321,7.6875124 19.104153,7.2187629 19.3125,6.75 18.427071,7.1145963 17.46353,7.3750127 16.421875,7.53125 15.692699,7.2187629 15.041657,6.7239717 14.46875,6.046875 16.760406,5.9427225 18.453112,5.8125143 19.546875,5.65625 z M 10.5625,5.96875 c 0.312495,-0.052069 0.677078,0.1041807 1.09375,0.46875 0.41666,0.3125134 0.624994,0.6510547 0.625,1.015625 -6e-6,0.2083458 -0.260423,0.3645956 -0.78125,0.46875 -0.572922,0.1041788 -0.937505,0.156262 -1.09375,0.15625 C 10.197912,8.078137 10.041663,7.8958455 9.9375,7.53125 9.7291628,7.2708462 9.4166631,6.9323048 9,6.515625 9.20833,6.2552222 9.7291628,6.0729307 10.5625,5.96875 z m 6.640625,3.984375 c -0.572927,0.46876 -0.93751,1.093759 -1.09375,1.875 0.208323,-0.104158 0.416656,-0.28645 0.625,-0.546875 0.312489,-0.208324 0.624989,-0.416657 0.9375,-0.625 0.468738,-0.364574 0.989571,-0.572907 1.5625,-0.625 -0.468763,-0.1562398 -0.859388,-0.2604063 -1.171875,-0.3125 -0.312512,1.04e-5 -0.59897,0.078135 -0.859375,0.234375 z m 3.125,0.625 c -0.625014,0.104176 -1.145847,0.260426 -1.5625,0.46875 -0.0521,0.260425 -0.02605,0.520842 0.07813,0.78125 0.781236,0.156258 1.015611,0.520841 0.703125,1.09375 -0.26043,0.156257 -0.494805,0.416673 -0.703125,0.78125 l 0.546875,0.07813 c 0.416653,-0.05208 0.703111,0.02605 0.859375,0.234375 0.104152,0.364589 -0.156264,0.625005 -0.78125,0.78125 -0.156263,5e-6 -0.390638,0.07813 -0.703125,0.234375 l 0.07813,1.328125 c 0.416653,0.364587 0.755195,0.598961 1.015625,0.703125 l 0.703125,-0.07813 c 0.05207,-0.104163 0.07811,-0.286455 0.07813,-0.546875 -1.5e-5,-0.468746 -0.02606,-0.963537 -0.07813,-1.484375 -0.104181,-1.562493 -0.156265,-2.630201 -0.15625,-3.203125 -1.5e-5,-0.364575 -0.02606,-0.755199 -0.07813,-1.171875 z M 17.75,11.515625 c -0.312512,0.260425 -0.546886,0.4948 -0.703125,0.703125 0.312489,-0.104159 0.546863,-0.156242 0.703125,-0.15625 -1.2e-5,-0.312492 -1.2e-5,-0.494783 0,-0.546875 z M 17.359375,13.15625 C 16.942697,13.05209 16.656239,13.104174 16.5,13.3125 c -1.1e-5,0.156257 -0.07814,0.286465 -0.234375,0.390625 -10e-6,0.20834 -0.05209,0.416673 -0.15625,0.625 0.729156,-0.260411 1.249989,-0.624994 1.5625,-1.09375 l -0.3125,-0.07813 z&quot;
     style=&quot;font-size:20px;font-variant:normal;font-stretch:normal;font-family:HGPGyoshotai;-inkscape-font-specification:HGPGyoshotai;fill:#b3b3b3&quot;
     id=&quot;path3912&quot; /&gt;<flowRoot
   xml:space="preserve"
   id="flowRoot3804"
   style="font-size:11px;font-style:normal;font-weight:normal;line-height:125%;letter-spacing:0px;word-spacing:0px;fill:#000000;fill-opacity:1;stroke:none;font-family:Sans"><flowRegion
     id="flowRegion3806"><rect
       id="rect3808"
       width="84.788132"
       height="25.923727"
       x="0.29237288"
       y="-0.19491427" /></flowRegion><flowPara
     id="flowPara3810"
     style="font-size:28px">譎ｮ騾壹＃縺ｿ</flowPara></flowRoot><g
   transform="translate(1.8516948,-4.2881354)"
   style="line-height:125%;font-family:Sans"
   id="flowRoot3836"><path
     d="m 11.125,2.9375 c 0.499985,1.85e-5 0.906235,0.062518 1.21875,0.1875 0.249984,0.1250182 0.593734,0.4062679 1.03125,0.84375 0.124983,0.1250173 0.09373,0.3437671 -0.09375,0.65625 -0.812516,0.812516 -1.468765,1.4062654 -1.96875,1.78125 0.249985,0.1250149 0.562485,0.2500147 0.9375,0.375 0.249984,0.1250145 0.281234,0.3125143 0.09375,0.5625 C 11.968735,7.5937638 11.468735,7.8125136 10.84375,8 L 10.75,9.3125 c 1.062485,-0.1874877 1.874984,-0.2812376 2.4375,-0.28125 0.749983,1.24e-5 1.374982,0.375012 1.875,1.125 -0.562518,0.500011 -1.062517,0.87501 -1.5,1.125 -0.312517,0.18751 -0.843766,0.28126 -1.59375,0.28125 L 10.9375,11.46875 c 0.06249,0.43751 -1.4e-5,0.812509 -0.1875,1.125 4.874981,0.625008 7.281229,1.343757 7.21875,2.15625 -0.125021,0.250006 -0.375021,0.437506 -0.75,0.5625 l -1.125,-0.09375 C 14.906232,14.843757 13.874983,14.562507 13,14.375 11.937485,14.125007 10.656236,14.000007 9.15625,14 l -2.25,0.1875 C 5.593741,14.312507 4.562492,14.500007 3.8125,14.75 c -0.9375063,0.312506 -1.6875055,0.468756 -2.25,0.46875 -0.62500434,6e-6 -1.06250391,-0.03124 -1.3125,-0.09375 -0.37500328,-0.06249 -0.656253,-0.249993 -0.84375,-0.5625 -0.12500269,-0.124993 0.0937471,-0.187493 0.65625,-0.1875 2.3749942,-0.437493 3.9687426,-0.781242 4.78125,-1.03125 0.5624912,-0.187492 1.0624907,-0.343742 1.5,-0.46875 -0.3125094,-0.374991 -0.3750094,-0.843741 -0.1875,-1.40625 -0.8125087,0.500009 -1.4687581,0.812509 -1.96875,0.9375 -0.3125073,0.06251 -0.6562569,-0.343741 -1.03125,-1.21875 0.2499932,-0.687489 0.6249928,-1.031239 1.125,-1.03125 0.2499921,0.500011 0.5624917,0.687511 0.9375,0.5625 l 1.125,-0.375 C 6.4687401,9.7812616 6.56249,9.1875122 6.625,8.5625 5.4999911,8.437513 4.9062417,8.1250133 4.84375,7.625 4.7187419,7.375014 4.8437417,7.1875142 5.21875,7.0625 5.4062412,7.0625143 5.6874909,7.1250143 6.0625,7.25 7.6874889,7.375014 9.4374872,6.3125151 11.3125,4.0625 l 0,-0.09375 C 10.749986,3.6562677 10.249986,3.437518 9.8125,3.3125 9.4374872,3.3125181 8.0312386,4.2500172 5.59375,6.125 5.2812413,6.3125151 4.9999916,6.2812651 4.75,6.03125 4.4374922,5.7812656 4.2812423,5.406266 4.28125,4.90625 4.2812423,4.2187672 4.6562419,3.6562677 5.40625,3.21875 5.7812408,2.9687684 6.0937405,3.0312684 6.34375,3.40625 6.59374,3.7187677 6.8124898,3.8750175 7,3.875 8.9374877,3.2500182 10.312486,2.9375185 11.125,2.9375 z M 8.21875,8.5625 C 8.1562384,8.9375125 8.0624885,9.3437621 7.9375,9.78125 7.6874889,10.906261 7.593739,11.62501 7.65625,11.9375 c 0.062489,0.125009 0.1562388,0.343759 0.28125,0.65625 L 8.96875,12.5 c -0.3125121,-0.249991 -0.5625118,-0.562491 -0.75,-0.9375 l 0.09375,0 c 0.249988,0.12501 0.4999878,0.21876 0.75,0.28125 0.1249874,-0.43749 0.1874873,-0.87499 0.1875,-1.3125 L 9.25,8.375 C 8.9374877,8.437513 8.593738,8.5000129 8.21875,8.5625 z m 2.625,2.53125 C 11.718735,10.843761 12.187484,10.562511 12.25,10.25 11.937485,9.6875117 11.437485,9.437512 10.75,9.5 z m -0.375,3.84375 c 1.124985,0.500006 1.812484,1.093755 2.0625,1.78125 0.187484,0.500004 0.281234,1.968753 0.28125,4.40625 -1.6e-5,0.625 -0.125016,1.187499 -0.375,1.6875 -0.125016,0.249998 -0.406265,0.531248 -0.84375,0.84375 -0.125015,-0.0625 -0.375015,-0.187502 -0.75,-0.375 C 10.343736,22.968748 9.7187369,22.687499 8.96875,22.4375 8.0312386,22.124999 7.4999891,21.6875 7.375,21.125 7.4374892,20.437501 7.624989,19.718752 7.9375,18.96875 l -0.375,0 c -0.2500107,0.187502 -0.5000105,1.187501 -0.75,3 C 6.62499,22.281249 6.4374902,22.374999 6.25,22.25 5.7499908,21.875 5.4999911,21.40625 5.5,20.84375 c 0.1874909,-1.499998 0.4687406,-2.999996 0.84375,-4.5 0.1249901,-0.312495 0.28124,-0.406245 0.46875,-0.28125 0.06249,0.250005 0.1562396,0.468755 0.28125,0.65625 0.7499887,-0.874994 1.531238,-1.437494 2.34375,-1.6875 0.4374867,-0.249993 0.781236,-0.281243 1.03125,-0.09375 z m -0.5625,0.9375 c -1.0000123,6e-6 -1.7187616,0.750005 -2.15625,2.25 0.5624883,-0.312496 1.1562377,-0.437496 1.78125,-0.375 0.2499868,0.125004 0.4062367,0.250003 0.46875,0.375 -0.5625128,0.937502 -1.1250123,1.875001 -1.6875,2.8125 0.5624877,0.125 0.9999873,0.21875 1.3125,0.28125 l 1.21875,0 0,-3.75 C 10.781236,16.968754 10.687486,16.531255 10.5625,16.15625 10.374986,15.968755 10.156236,15.875006 9.90625,15.875 z"
     style="font-size:24px;font-variant:normal;font-stretch:normal;fill:#b3b3b3;font-family:HGGyoshotai;-inkscape-font-specification:HGGyoshotai"
     id="path3845" /><path
     d="m 37,4.0625 c 0.124983,-0.1874825 0.281233,-0.2812324 0.46875,-0.28125 1.187482,0.5000171 1.843731,0.9375167 1.96875,1.3125 -0.125019,0.2500161 -0.375018,0.5000158 -0.75,0.75 -0.687517,0.8750147 -1.437517,1.562514 -2.25,2.0625 0.687483,0.2500133 0.999983,0.5937629 0.9375,1.03125 0.937482,-0.062487 1.718731,0.2187622 2.34375,0.84375 0.249981,1.81251 0.37498,3.968758 0.375,6.46875 l 0,2.625 c -2e-5,0.375002 -0.156269,0.718752 -0.46875,1.03125 -0.312519,0.250001 -0.625018,0.468751 -0.9375,0.65625 0.562481,0.0625 1.124981,0.125001 1.6875,0.1875 0.56248,0.0625 1.187479,0.09375 1.875,0.09375 0.374978,1e-6 0.718728,0.03125 1.03125,0.09375 0.312477,0.0625 0.562477,0.125 0.75,0.1875 -2.3e-5,0.25 -0.187523,0.40625 -0.5625,0.46875 -1.062522,0.374999 -1.937521,0.687499 -2.625,0.9375 C 40.15623,22.781249 39.124981,22.937498 37.75,23 L 36.4375,22.90625 C 34.624986,22.343749 33.218737,21.75 32.21875,21.125 c -1.000011,-0.624999 -3.375008,-0.937499 -7.125,-0.9375 -0.312504,1e-6 -0.562504,0.0625 -0.75,0.1875 -0.250004,0.250001 -0.468753,0.281251 -0.65625,0.09375 -0.312503,-0.312499 -0.593753,-0.656248 -0.84375,-1.03125 -0.0625,-0.187498 -0.0625,-0.374998 0,-0.5625 2.062496,-0.937497 3.406244,-1.812496 4.03125,-2.625 -0.937505,-0.749994 -1.406255,-1.656243 -1.40625,-2.71875 L 25.28125,13.0625 C 24.843746,12.687509 24.437496,12.375009 24.0625,12.125 l 0.375,-0.1875 c 0.999995,-0.74999 1.593745,-1.124989 1.78125,-1.125 0.562494,1.1e-5 1.031243,0.31251 1.40625,0.9375 -0.500007,0.750009 -0.781256,1.468758 -0.84375,2.15625 -6e-6,0.500007 0.406243,1.000007 1.21875,1.5 0.937492,0.500006 1.406241,0.875005 1.40625,1.125 -9e-6,0.187505 -0.09376,0.406254 -0.28125,0.65625 -0.687508,0.500004 -1.156257,0.906253 -1.40625,1.21875 1.562491,0.250003 3.12499,0.562502 4.6875,0.9375 1.687486,0.437502 2.906235,0.750001 3.65625,0.9375 0.687484,0.187501 1.312483,0.281251 1.875,0.28125 l 0.5625,0 -1.59375,-1.6875 -0.84375,-0.84375 c 0.06248,0.687503 -0.03126,1.187502 -0.28125,1.5 -0.875014,2e-6 -1.281264,-0.593748 -1.21875,-1.78125 -1.4e-5,-0.437496 -1.4e-5,-0.812496 0,-1.125 -0.06251,-0.374995 -0.09376,-0.749994 -0.09375,-1.125 -0.500013,0.187506 -0.906263,0.343756 -1.21875,0.46875 -0.250012,-0.06249 -0.468762,-0.249994 -0.65625,-0.5625 l -0.09375,0.75 c -0.187512,0.875004 -0.281262,1.468754 -0.28125,1.78125 -1.2e-5,0.250003 -0.09376,0.500003 -0.28125,0.75 -0.06251,0.187503 -0.218761,0.156253 -0.46875,-0.09375 -0.43751,-0.562497 -0.68751,-0.999996 -0.75,-1.3125 0.24999,-1.187495 0.499989,-2.374993 0.75,-3.5625 0.562489,-2.62499 1.374988,-4.2499881 2.4375,-4.875 L 34.75,8.46875 C 34.437486,8.406263 34.156236,8.3437631 33.90625,8.28125 33.593737,8.1562633 33.374987,7.8437636 33.25,7.34375 c -1.3e-5,-0.1874857 0.124987,-0.3124856 0.375,-0.375 0.437487,-0.062486 0.843736,-0.031236 1.21875,0.09375 0.999985,-0.5624851 1.624984,-1.1249845 1.875,-1.6875 C 35.656235,5.8125156 34.499986,6.1250153 33.25,6.3125 32.374988,5.9375155 31.593739,5.3437661 30.90625,4.53125 33.656237,4.406267 35.687485,4.2500172 37,4.0625 z m -10.78125,0.375 c 0.374994,-0.062483 0.812494,0.1250168 1.3125,0.5625 0.499993,0.375016 0.749992,0.7812656 0.75,1.21875 -8e-6,0.2500149 -0.312507,0.4375147 -0.9375,0.5625 -0.687506,0.1250145 -1.125006,0.1875144 -1.3125,0.1875 -0.250005,1.44e-5 -0.437505,-0.2187353 -0.5625,-0.65625 -0.250005,-0.3124846 -0.625004,-0.7187342 -1.125,-1.21875 0.249996,-0.3124834 0.874995,-0.5312332 1.875,-0.65625 z m 7.96875,4.78125 c -0.687513,0.5625116 -1.125012,1.312511 -1.3125,2.25 0.249987,-0.12499 0.499987,-0.34374 0.75,-0.65625 0.374987,-0.249989 0.749986,-0.499989 1.125,-0.75 0.562485,-0.4374882 1.187485,-0.687488 1.875,-0.75 -0.562515,-0.1874877 -1.031265,-0.3124876 -1.40625,-0.375 -0.375014,1.25e-5 -0.718764,0.093762 -1.03125,0.28125 z m 3.75,0.75 c -0.750017,0.125011 -1.375016,0.312511 -1.875,0.5625 -0.06251,0.312511 -0.03126,0.62501 0.09375,0.9375 0.937483,0.18751 1.218733,0.625009 0.84375,1.3125 -0.312516,0.187508 -0.593766,0.500008 -0.84375,0.9375 l 0.65625,0.09375 c 0.499983,-0.06249 0.843733,0.03126 1.03125,0.28125 0.124983,0.437507 -0.187517,0.750007 -0.9375,0.9375 -0.187516,6e-6 -0.468766,0.09376 -0.84375,0.28125 l 0.09375,1.59375 c 0.499984,0.437504 0.906234,0.718754 1.21875,0.84375 l 0.84375,-0.09375 c 0.06248,-0.124996 0.09373,-0.343746 0.09375,-0.65625 -1.8e-5,-0.562495 -0.03127,-1.156244 -0.09375,-1.78125 -0.125017,-1.874992 -0.187517,-3.156241 -0.1875,-3.84375 -1.7e-5,-0.43749 -0.03127,-0.906239 -0.09375,-1.40625 z m -3.09375,1.125 C 34.468736,11.40626 34.187486,11.68751 34,11.9375 c 0.374986,-0.12499 0.656236,-0.18749 0.84375,-0.1875 -1.4e-5,-0.37499 -1.4e-5,-0.59374 0,-0.65625 z M 34.375,13.0625 c -0.500013,-0.124992 -0.843763,-0.06249 -1.03125,0.1875 -1.3e-5,0.187508 -0.09376,0.343758 -0.28125,0.46875 -1.2e-5,0.250007 -0.06251,0.500007 -0.1875,0.75 0.874987,-0.312493 1.499986,-0.749992 1.875,-1.3125 L 34.375,13.0625 z"
     style="font-size:24px;font-variant:normal;font-stretch:normal;fill:#b3b3b3;font-family:HGGyoshotai;-inkscape-font-specification:HGGyoshotai"
     id="path3847" /><path
     d="m 53.875,7.0625 c 0.68749,0.4375139 1.406239,0.6562637 2.15625,0.65625 2.562486,0.3750133 3.968735,1.4062623 4.21875,3.09375 -1.6e-5,0.31251 -0.125016,0.50001 -0.375,0.5625 -1.000014,0.12501 -2.250013,0.28126 -3.75,0.46875 -0.312511,0.06251 -0.656261,0.09376 -1.03125,0.09375 1.437488,-0.56249 2.499987,-1.062489 3.1875,-1.5 C 58.531236,10.125011 58.499986,9.9062615 58.1875,9.78125 57.562487,9.7187617 57.093738,9.6875117 56.78125,9.6875 56.531238,9.6250118 56.281238,9.5937618 56.03125,9.59375 55.531239,9.5312619 54.99999,9.3125121 54.4375,8.9375 53.874991,8.375013 53.562491,8.0312634 53.5,7.90625 53.124991,7.406264 52.968742,6.9062645 53.03125,6.40625 53.281241,6.6562647 53.562491,6.8750145 53.875,7.0625 z m -1.78125,8.15625 c -0.125007,0.250006 -0.218757,0.500006 -0.28125,0.75 0.124993,0.437505 0.406242,0.750005 0.84375,0.9375 0.687491,0.187504 1.81249,0.343754 3.375,0.46875 0.749988,4e-6 1.687487,0.0625 2.8125,0.1875 1.312484,0.500003 1.999984,1.000003 2.0625,1.5 -0.125016,0.375002 -0.312516,0.625002 -0.5625,0.75 L 58.9375,19.90625 C 57.374987,19.843752 55.749989,19.625002 54.0625,19.25 53.499991,19.062502 52.937492,18.750003 52.375,18.3125 51.374993,17.562504 50.937494,16.781255 51.0625,15.96875 l 0.46875,-0.75 c 0.187493,-0.124994 0.374993,-0.124994 0.5625,0 z m 10.875,-11.4375 c 0.624981,1.76e-5 1.12498,0.062518 1.5,0.1875 0.37498,0.062517 0.749979,0.3125171 1.125,0.75 0.124979,0.2500164 0.124979,0.5000162 0,0.75 C 65.406229,5.5937658 65.124979,5.6562657 64.75,5.65625 64.37498,5.6562657 63.968731,5.4687659 63.53125,5.09375 63.093731,4.7812666 62.624982,4.406267 62.125,3.96875 62.437482,3.8437676 62.718732,3.7812676 62.96875,3.78125 z m -2.25,1.5 c 0.874983,0.1875159 1.687482,0.5625156 2.4375,1.125 0.06248,0.3750146 0.03123,0.6875143 -0.09375,0.9375 -0.125018,0.2500138 -0.250018,0.3750137 -0.375,0.375 L 61.9375,7.625 C 60.999984,6.8125146 60.343734,6.1250153 59.96875,5.5625 c 0.249984,-0.124984 0.499984,-0.2187339 0.75,-0.28125 z"
     style="font-size:24px;font-variant:normal;font-stretch:normal;fill:#b3b3b3;font-family:HGGyoshotai;-inkscape-font-specification:HGGyoshotai"
     id="path3849" /><path
     d="m 81.71875,5.84375 c 0.499986,1.56e-5 0.999986,0.1562654 1.5,0.46875 0.812485,0.7500143 1.218734,1.3437638 1.21875,1.78125 -1.6e-5,0.5000128 -0.437515,1.4375119 -1.3125,2.8125 -1.125013,1.687509 -2.062512,2.875008 -2.8125,3.5625 0.874987,0.06251 1.781237,0.187507 2.71875,0.375 0.499985,0.125006 1.187484,0.312506 2.0625,0.5625 0.312483,-0.749993 0.343733,-1.187493 0.09375,-1.3125 -0.125016,0.06251 -0.218766,0.156257 -0.28125,0.28125 -0.375016,-0.312493 -0.437516,-0.593742 -0.1875,-0.84375 0.374983,-0.374992 0.968733,-0.281242 1.78125,0.28125 0.499982,0.500007 0.687481,1.156256 0.5625,1.96875 L 88.09375,16.25 c 0.87498,0.375005 1.437479,0.812504 1.6875,1.3125 0.187479,0.375003 0.09373,0.593753 -0.28125,0.65625 -0.56252,-0.124997 -1.562519,-0.437496 -3,-0.9375 -1.000017,1.062503 -2.000016,1.843752 -3,2.34375 -1.000014,0.500001 -2.125013,1.000001 -3.375,1.5 0.499988,-0.374999 1.187487,-0.968749 2.0625,-1.78125 0.874986,-0.812497 1.624985,-1.718746 2.25,-2.71875 -1.000015,-0.374995 -1.781264,-0.593745 -2.34375,-0.65625 -1.062512,-0.187494 -2.031261,-0.281244 -2.90625,-0.28125 l -2.53125,2.4375 c -0.687507,0.562503 -1.250007,0.906252 -1.6875,1.03125 -0.312506,0.187502 -0.625006,0.281252 -0.9375,0.28125 -0.375005,2e-6 -0.750005,-0.562497 -1.125,-1.6875 -0.687504,-0.562496 -1.000003,-1.031245 -0.9375,-1.40625 0.124996,-0.499994 0.499996,-0.874994 1.125,-1.125 0.812495,-0.312493 1.812494,-0.531243 3,-0.65625 0.749992,-0.06249 1.437491,-0.09374 2.0625,-0.09375 0.56249,-0.624992 1.093739,-1.249992 1.59375,-1.875 C 81.749987,10.093761 82.718736,8.3125131 82.65625,7.25 82.656236,6.8750145 82.468736,6.6875147 82.09375,6.6875 81.156237,7.1875142 80.374988,7.5000139 79.75,7.625 78.93749,7.7500137 78.31249,7.5625138 77.875,7.0625 77.437491,6.6250148 77.156241,6.2812651 77.03125,6.03125 c 0.687491,0.2500151 1.31249,0.343765 1.875,0.28125 0.874989,-0.1249848 1.812488,-0.2812346 2.8125,-0.46875 z M 75.15625,15.875 c -0.500006,0.0625 -1.000006,0.156255 -1.5,0.28125 -0.312505,0.125005 -0.500005,0.281255 -0.5625,0.46875 0.187495,0.500004 0.593745,0.875004 1.21875,1.125 0.749994,-0.312496 1.562493,-0.937495 2.4375,-1.875 -0.375008,-0.06249 -0.906257,-0.06249 -1.59375,0 z"
     style="font-size:24px;font-variant:normal;font-stretch:normal;fill:#b3b3b3;font-family:HGGyoshotai;-inkscape-font-specification:HGGyoshotai"
     id="path3851" /></g></g></svg>
