<?xml version="1.0" encoding="UTF-8" standalone="no"?>
<!-- Generator: Adobe Illustrator 16.0.4, SVG Export Plug-In . SVG Version: 6.00 Build 0)  -->

<svg
   xmlns:dc="http://purl.org/dc/elements/1.1/"
   xmlns:cc="http://creativecommons.org/ns#"
   xmlns:rdf="http://www.w3.org/1999/02/22-rdf-syntax-ns#"
   xmlns:svg="http://www.w3.org/2000/svg"
   xmlns="http://www.w3.org/2000/svg"
   xmlns:sodipodi="http://sodipodi.sourceforge.net/DTD/sodipodi-0.dtd"
   xmlns:inkscape="http://www.inkscape.org/namespaces/inkscape"
   version="1.1"
   id="レイヤー_1"
   x="0px"
   y="0px"
   width="61"
   height="23"
   viewBox="0 0 61 23"
   enable-background="new 0 0 46 23"
   xml:space="preserve"
   inkscape:version="0.48.5 r10040"
   sodipodi:docname="futuu.svg"><metadata
   id="metadata3190"><rdf:RDF><cc:Work
       rdf:about=""><dc:format>image/svg+xml</dc:format><dc:type
         rdf:resource="http://purl.org/dc/dcmitype/StillImage" /><dc:title></dc:title></cc:Work></rdf:RDF></metadata><defs
   id="defs3188" /><sodipodi:namedview
   pagecolor="#ffffff"
   bordercolor="#666666"
   borderopacity="1"
   objecttolerance="10"
   gridtolerance="10"
   guidetolerance="10"
   inkscape:pageopacity="0"
   inkscape:pageshadow="2"
   inkscape:window-width="1366"
   inkscape:window-height="706"
   id="namedview3186"
   showgrid="false"
   inkscape:zoom="10.26087"
   inkscape:cx="23"
   inkscape:cy="11.5"
   inkscape:window-x="-8"
   inkscape:window-y="-8"
   inkscape:window-maximized="1"
   inkscape:current-layer="レイヤー_1"
   showguides="true"
   inkscape:guide-bbox="true" />


<path
   style="fill:#f5f5f5;fill-opacity:0.05474453;stroke:#f1f1f1;stroke-width:1px;stroke-linecap:butt;stroke-linejoin:miter;stroke-opacity:1"
   d="M 4.5805083,2.6313568 6.2372879,5.3601702 6.8220336,4.8728821 5.0677964,2.1440687 z"
   id="path3025"
   inkscape:connector-curvature="0" /><path
   style="fill:#f5f5f5;fill-opacity:0.05474453;stroke:#f4f4f4;stroke-width:1px;stroke-linecap:butt;stroke-linejoin:miter;stroke-opacity:1"
   d="M 8.6737284,5.165255 10.525423,1.6567806 10.915254,2.0466111 9.1610166,5.3601702 z"
   id="path4346"
   inkscape:connector-curvature="0" /><path
   style="fill:#f5f5f5;fill-opacity:0.05474453;stroke:#f4f4f4;stroke-opacity:1"
   d="M 2.5338982,6.0423736 13.449152,4.0932211 13.351694,4.7754245 2.5338982,6.9194922 z"
   id="path4348"
   inkscape:connector-curvature="0" /><path
   style="fill:#f5f5f5;fill-opacity:0.05474453;stroke:#f4f4f4;stroke-opacity:1"
   d="M 5.4576269,6.6271193 7.504237,9.4533904 7.9915251,8.8686447 6.0423726,6.2372888 z"
   id="path4350"
   inkscape:connector-curvature="0" /><path
   style="fill:#f5f5f5;fill-opacity:0.05474453;stroke:#f4f4f4;stroke-opacity:1"
   d="m 9.8432199,6.0423736 -0.5847457,3.1186439 0.6822033,0 0.9745765,-3.4110168 z"
   id="path4352"
   inkscape:connector-curvature="0" /><path
   style="fill:#f5f5f5;fill-opacity:0.05474453;stroke:#f4f4f4;stroke-opacity:1"
   d="M 2.0466101,9.1610175 3.1186439,7.6016956 4.8728811,9.9406785 z"
   id="path4354"
   inkscape:connector-curvature="0" /><path
   style="fill:#f5f5f5;fill-opacity:0.05474453;stroke:#f4f4f4;stroke-opacity:1"
   d="m 11.88983,8.0889837 0.974576,-2.0466101 1.364407,0.8771186 z"
   id="path4356"
   inkscape:connector-curvature="0" /><path
   style="fill:#f5f5f5;fill-opacity:0.05474453;stroke:#f4f4f4;stroke-opacity:1"
   d="M 1.559322,11.5 13.838982,8.3813566 14.228813,9.1610175 2.1440677,11.889831 z"
   id="path4358"
   inkscape:connector-curvature="0" /><path
   style="fill:#f5f5f5;fill-opacity:0.05474453;stroke:#f4f4f4;stroke-opacity:1"
   d="M 3.9957625,12.76695 5.944915,19.29661 6.6271184,18.614407 4.7754235,12.377119 z"
   id="path4360"
   inkscape:connector-curvature="0" /><path
   style="fill:#f5f5f5;fill-opacity:0.05474453;stroke:#f4f4f4;stroke-opacity:1"
   d="m 5.2627116,12.572034 8.5762704,-2.338983 0.194916,0.584746 z"
   id="path4362"
   inkscape:connector-curvature="0" /><path
   style="fill:#f5f5f5;fill-opacity:0.05474453;stroke:#f4f4f4;stroke-opacity:1"
   d="m 14.423728,11.11017 0.584746,6.627118 -8.7711861,1.461865 0.9745762,-1.072034 6.6271179,-0.974576 -0.194915,-2.728814 -6.8220334,1.169492 -0.097458,-0.682204 6.9194914,-1.461864 -0.194915,-2.338983 z"
   id="path4364"
   inkscape:connector-curvature="0" /><path
   style="fill:#f5f5f5;fill-opacity:0.05474453;stroke:#f4f4f4;stroke-opacity:1"
   d="m 22.707626,3.4110178 4.677966,-1.1694915 0,0.2923729 z"
   id="path4368"
   inkscape:connector-curvature="0" /><path
   style="fill:#f5f5f5;fill-opacity:0.05474453;stroke:#f4f4f4;stroke-opacity:1"
   d="M 27.87288,2.3389839 26.411016,5.4576279 25.82627,4.9703397 z"
   id="path4370"
   inkscape:connector-curvature="0" /><path
   style="fill:#f5f5f5;fill-opacity:0.05474453;stroke:#f4f4f4;stroke-opacity:1"
   d="m 23.877118,5.0677974 4.48305,0.6822033 -4.09322,0.2923729 z"
   id="path4372"
   inkscape:connector-curvature="0" /><path
   style="fill:#f5f5f5;fill-opacity:0.05474453;stroke:#f4f4f4;stroke-opacity:1"
   d="m 22.707626,7.7966108 2.533898,8.6737282 1.072034,0.487288 -2.826271,-8.8686433 z"
   id="path4374"
   inkscape:connector-curvature="0" /><path
   style="fill:#f5f5f5;fill-opacity:0.05474453;stroke:#f4f4f4;stroke-opacity:1"
   d="m 22.999999,7.6016956 7.894067,-1.9491525 2.923729,10.2330509 -1.072034,-0.292373 -2.43644,-9.1610169 -7.211864,1.7542372 0,-0.097458 z"
   id="path4376"
   inkscape:connector-curvature="0" /><path
   style="fill:#f5f5f5;fill-opacity:0.05474453;stroke:#f4f4f4;stroke-opacity:1"
   d="m 26.703389,7.7966108 2.631356,8.3813552 0.38983,-0.09746 z"
   id="path4378"
   inkscape:connector-curvature="0" /><path
   style="fill:#f5f5f5;fill-opacity:0.05474453;stroke:#f4f4f4;stroke-opacity:1"
   d="m 24.364406,10.233051 5.944915,-1.461864 0.194915,0.5847458 z"
   id="path4380"
   inkscape:connector-curvature="0" /><path
   style="fill:#f5f5f5;fill-opacity:0.05474453;stroke:#f4f4f4;stroke-opacity:1"
   d="M 25.43644,12.572034 31.283897,11.5 l 0.194915,0.974577 z"
   id="path4382"
   inkscape:connector-curvature="0" /><path
   style="fill:#f5f5f5;fill-opacity:0.05474453;stroke:#f4f4f4;stroke-opacity:1"
   d="M 17.737287,4.8728821 17.347457,6.3347465 20.07627,5.2627126 z"
   id="path4384"
   inkscape:connector-curvature="0" /><path
   style="fill:#f5f5f5;fill-opacity:0.05474453;stroke:#f4f4f4;stroke-opacity:1"
   d="m 16.567796,8.2838989 0.38983,1.1694915 4.093221,-1.4618643 -0.09746,-0.5847458 z"
   id="path4388"
   inkscape:connector-curvature="0" /><path
   style="fill:#f5f5f5;fill-opacity:0.05474453;stroke:#f4f4f4;stroke-opacity:1"
   d="m 20.271186,8.9661023 -1.072034,8.7711857 0.682203,-0.09746 0.974576,-8.3813558 z"
   id="path4390"
   inkscape:connector-curvature="0" /><path
   style="fill:#f5f5f5;fill-opacity:0.05474453;stroke:#f4f4f4;stroke-opacity:1"
   d="m 19.296609,16.372882 5.847458,1.266949 10.330508,-1.754237 0,0.877118 -10.622881,1.461864 z"
   id="path4392"
   inkscape:connector-curvature="0" /><path
   style="fill:#f5f5f5;fill-opacity:0.05474453;stroke:#f4f4f4;stroke-opacity:1"
   d="M 34.207626,3.3135602 36.936439,2.1440687 39.860168,1.4618653 42.296608,2.3389839 42.004236,3.3135602 39.470337,2.2415263 35.27966,3.4110178 z"
   id="path4394"
   inkscape:connector-curvature="0" /><path
   style="fill:#f5f5f5;fill-opacity:0.05474453;stroke:#f4f4f4;stroke-opacity:1"
   d="m 35.864405,12.084746 3.313559,1.266949 0.974577,-0.194915 3.605932,-0.194915 0.682203,-0.584746 -0.487288,0.974576 -3.216102,0.682204 -1.949152,0.194915 -1.851695,-0.389831 -1.364407,-0.974576 z"
   id="path4396"
   inkscape:connector-curvature="0" /><path
   style="fill:#f5f5f5;fill-opacity:0.05474453;stroke:#f4f4f4;stroke-opacity:1"
   d="M 42.783896,1.0720348 45.805083,4.2881364 46.292371,3.9957635 43.4661,0.77966196 z"
   id="path4398"
   inkscape:connector-curvature="0" /><path
   style="fill:#f5f5f5;fill-opacity:0.05474453;stroke:#f4f4f4;stroke-opacity:1"
   d="m 46.097456,0.87711958 2.241525,3.31355922 0.09746,-0.8771186 z"
   id="path4400"
   inkscape:connector-curvature="0" /><path
   style="fill:#f5f5f5;fill-opacity:0.05474453;stroke:#f4f4f4;stroke-opacity:1"
   d="M 48.826269,9.3559328 49.703388,10.330509 53.69915,8.4788142 z"
   id="path4402"
   inkscape:connector-curvature="0" /><path
   style="fill:#f5f5f5;fill-opacity:0.05474453;stroke:#f4f4f4;stroke-opacity:1"
   d="m 53.601693,8.0889837 0.292373,4.4830503 0,4.775424 -1.851695,2.631356 0.974576,-0.389831 L 54.966099,17.25 54.673726,12.377119 z"
   id="path4404"
   inkscape:connector-curvature="0" /><path
   style="fill:#f5f5f5;fill-opacity:0.05474453;stroke:#f4f4f4;stroke-opacity:1"
   d="m 51.847455,19.588983 -3.216101,-2.631356 -0.682203,0.389831 3.605932,3.216101 z"
   id="path4406"
   inkscape:connector-curvature="0" /><path
   style="fill:#f5f5f5;fill-opacity:0.05474453;stroke:#f4f4f4;stroke-opacity:1"
   d="m 48.046608,16.177966 3.118644,-2.728813 3.508474,-0.682203 2.923729,1.072033 2.144068,1.65678 0.779661,1.266949 -0.09746,2.923729 -2.04661,2.04661 -0.09746,-0.194915 0.877118,-1.461865 0.09746,-1.364406 -0.292373,-2.533899 -2.826271,-1.851694 -1.851695,-0.877119 -2.338983,0.779661 -2.436441,1.364407 -1.169491,1.559322 z"
   id="path4408"
   inkscape:connector-curvature="0" /><path
   style="fill:#f5f5f5;fill-opacity:0.05474453;stroke:#f4f4f4;stroke-opacity:1"
   d="m 58.182201,11.402543 0,1.949152 -0.682203,4.580509 c 0,0 -0.779661,1.169491 -0.974577,1.461864 -0.194915,0.292373 -0.779661,1.266949 -0.779661,1.266949 l 1.266949,-0.682203 2.046611,-1.949153 0.584745,-3.508474 0,-1.364407 -0.877118,-1.364407 z"
   id="path4410"
   inkscape:connector-curvature="0" /></svg>
