<?xml version="1.0" encoding="UTF-8" standalone="no"?>
<!-- Generator: Adobe Illustrator 16.0.4, SVG Export Plug-In . SVG Version: 6.00 Build 0)  -->

<svg
   xmlns:dc="http://purl.org/dc/elements/1.1/"
   xmlns:cc="http://creativecommons.org/ns#"
   xmlns:rdf="http://www.w3.org/1999/02/22-rdf-syntax-ns#"
   xmlns:svg="http://www.w3.org/2000/svg"
   xmlns="http://www.w3.org/2000/svg"
   xmlns:sodipodi="http://sodipodi.sourceforge.net/DTD/sodipodi-0.dtd"
   xmlns:inkscape="http://www.inkscape.org/namespaces/inkscape"
   version="1.1"
   id="レイヤー_1"
   x="0px"
   y="0px"
   width="61"
   height="23"
   viewBox="0 0 61 23"
   enable-background="new 0 0 46 23"
   xml:space="preserve"
   inkscape:version="0.48.5 r10040"
   sodipodi:docname="futuu.svg"><metadata
   id="metadata3190"><rdf:RDF><cc:Work
       rdf:about=""><dc:format>image/svg+xml</dc:format><dc:type
         rdf:resource="http://purl.org/dc/dcmitype/StillImage" /><dc:title /></cc:Work></rdf:RDF></metadata><defs
   id="defs3188" /><sodipodi:namedview
   pagecolor="#ffffff"
   bordercolor="#666666"
   borderopacity="1"
   objecttolerance="10"
   gridtolerance="10"
   guidetolerance="10"
   inkscape:pageopacity="0"
   inkscape:pageshadow="2"
   inkscape:window-width="1366"
   inkscape:window-height="706"
   id="namedview3186"
   showgrid="false"
   inkscape:zoom="10.26087"
   inkscape:cx="23"
   inkscape:cy="11.5"
   inkscape:window-x="-8"
   inkscape:window-y="-8"
   inkscape:window-maximized="1"
   inkscape:current-layer="flowRoot3901"
   showguides="true"
   inkscape:guide-bbox="true" />


<g
   style="font-size:11px;font-style:normal;font-weight:normal;line-height:125%;letter-spacing:0px;word-spacing:0px;fill:#000000;fill-opacity:1;stroke:none;font-family:Sans"
   id="flowRoot3901"><path
     d="M -2.015625,4.71875 C -1.5989709,4.7187654 -1.2604295,4.7708487 -1,4.875 c 0.20832,0.1041818 0.49477805,0.3385566 0.859375,0.703125 0.10415258,0.1041811 0.07811094,0.2864726 -0.078125,0.546875 -0.67709656,0.6770966 -1.223971,1.1718878 -1.640625,1.484375 0.2083209,0.1041791 0.4687373,0.2083456 0.78125,0.3125 C -0.86980492,8.0260538 -0.84376328,8.1823036 -1,8.390625 -1.3125128,8.5989698 -1.7291791,8.7812613 -2.25,8.9375 l -0.078125,1.09375 c 0.885404,-0.1562398 1.56248664,-0.2343647 2.03125,-0.234375 0.62498555,1.03e-5 1.14581836,0.31251 1.5625,0.9375 -0.46876492,0.416676 -0.88543117,0.729175 -1.25,0.9375 -0.26043055,0.156258 -0.70313844,0.234383 -1.328125,0.234375 l -0.859375,-0.07813 c 0.052071,0.364591 -1.2e-5,0.677091 -0.15625,0.9375 4.0624841,0.52084 6.0676905,1.119798 6.015625,1.796875 -0.1041844,0.208339 -0.3125175,0.364589 -0.625,0.46875 L 2.125,14.953125 C 1.1354014,14.64063 0.27602727,14.406256 -0.453125,14.25 -1.3385545,14.041673 -2.4062617,13.937506 -3.65625,13.9375 l -1.875,0.15625 c -1.0937575,0.104173 -1.9531316,0.260422 -2.578125,0.46875 -0.7812552,0.260422 -1.4062546,0.39063 -1.875,0.390625 -0.520837,5e-6 -0.88542,-0.02604 -1.09375,-0.07813 -0.312503,-0.05208 -0.546878,-0.208328 -0.703125,-0.46875 -0.104169,-0.104161 0.07812,-0.156244 0.546875,-0.15625 C -9.2552132,13.885423 -7.9270895,13.598965 -7.25,13.390625 -6.7812573,13.234382 -6.3645911,13.104174 -6,13 c -0.2604245,-0.312493 -0.3125078,-0.703117 -0.15625,-1.171875 -0.6770906,0.416675 -1.2239651,0.677091 -1.640625,0.78125 -0.2604227,0.05209 -0.5468808,-0.286451 -0.859375,-1.015625 0.2083277,-0.572908 0.5208273,-0.859366 0.9375,-0.859375 0.2083267,0.416676 0.4687431,0.572925 0.78125,0.46875 L -6,10.890625 C -5.8958416,10.421885 -5.8177166,9.9270935 -5.765625,9.40625 -6.7031324,9.3020941 -7.1979236,9.0416777 -7.25,8.625 c -0.1041734,-0.2083216 -6.9e-6,-0.3645715 0.3125,-0.46875 0.1562427,1.2e-5 0.3906174,0.052095 0.703125,0.15625 1.3541574,0.1041784 2.8124893,-0.7812374 4.375,-2.65625 l 0,-0.078125 C -2.3281368,5.3177231 -2.744803,5.1354316 -3.109375,5.03125 -3.4218857,5.0312651 -4.5937595,5.8125143 -6.625,7.375 -6.8854239,7.5312626 -7.1197987,7.5052209 -7.328125,7.296875 -7.5885482,7.0885547 -7.7187564,6.776055 -7.71875,6.359375 -7.7187564,5.7864727 -7.4062567,5.3177231 -6.78125,4.953125 -6.4687577,4.744807 -6.2083412,4.7968903 -6,5.109375 -5.791675,5.3698064 -5.6093835,5.5000146 -5.453125,5.5 -3.838552,4.9791818 -2.6927198,4.7187654 -2.015625,4.71875 z M -4.4375,9.40625 c -0.052093,0.3125104 -0.1302179,0.651052 -0.234375,1.015625 -0.2083426,0.937509 -0.2864675,1.536466 -0.234375,1.796875 0.052074,0.104174 0.130199,0.286466 0.234375,0.546875 L -3.8125,12.6875 c -0.2604267,-0.208326 -0.4687598,-0.468742 -0.625,-0.78125 l 0.078125,0 c 0.2083234,0.104175 0.4166565,0.1823 0.625,0.234375 0.1041562,-0.364575 0.1562395,-0.729158 0.15625,-1.09375 l 0,-1.796875 C -3.838552,9.3020941 -4.12501,9.3541774 -4.4375,9.40625 z m 2.1875,2.109375 c 0.7291541,-0.208325 1.1197787,-0.442699 1.171875,-0.703125 -0.2604295,-0.46874 -0.6770957,-0.677073 -1.25,-0.625 z m -0.3125,3.203125 c 0.9374875,0.416672 1.5104036,0.911463 1.71875,1.484375 0.15623656,0.41667 0.23436148,1.640627 0.234375,3.671875 -1.352e-5,0.520833 -0.10418008,0.989583 -0.3125,1.40625 -0.1041798,0.208332 -0.3385545,0.442707 -0.703125,0.703125 -0.1041791,-0.05209 -0.3125122,-0.156252 -0.625,-0.3125 -0.4166781,-0.260418 -0.9375109,-0.494793 -1.5625,-0.703125 -0.7812595,-0.260417 -1.2239674,-0.625 -1.328125,-1.09375 0.052074,-0.572916 0.2083241,-1.171874 0.46875,-1.796875 l -0.3125,0 c -0.2083423,0.156252 -0.4166754,0.989584 -0.625,2.5 -0.1562584,0.260416 -0.3125082,0.338541 -0.46875,0.234375 -0.4166743,-0.3125 -0.6250074,-0.703125 -0.625,-1.171875 0.1562424,-1.249998 0.3906172,-2.499997 0.703125,-3.75 0.1041584,-0.260412 0.2343666,-0.338537 0.390625,-0.234375 0.052075,0.208338 0.1301997,0.390629 0.234375,0.546875 0.6249906,-0.729162 1.2760316,-1.197912 1.953125,-1.40625 0.3645723,-0.208328 0.6510303,-0.234369 0.859375,-0.07813 z M -3.03125,15.5 c -0.8333436,5e-6 -1.4323013,0.625004 -1.796875,1.875 0.4687402,-0.260414 0.9635314,-0.36458 1.484375,-0.3125 0.2083223,0.10417 0.3385305,0.208336 0.390625,0.3125 -0.4687607,0.781252 -0.9375102,1.562501 -1.40625,2.34375 0.4687398,0.104167 0.8333227,0.182292 1.09375,0.234375 l 1.015625,0 0,-3.125 C -2.3020952,16.411462 -2.3802201,16.046879 -2.484375,15.734375 -2.6406365,15.57813 -2.822928,15.500005 -3.03125,15.5 z"
     style="font-size:20px;font-variant:normal;font-stretch:normal;font-family:HGPGyoshotai;-inkscape-font-specification:HGPGyoshotai;fill:#b3b3b3"
     id="path3910" /><path
     d="m 19.546875,5.65625 c 0.104153,-0.1562354 0.234361,-0.2343603 0.390625,-0.234375 0.989568,0.4166809 1.536443,0.7812639 1.640625,1.09375 -0.104182,0.2083467 -0.312515,0.4166798 -0.625,0.625 -0.572931,0.7291789 -1.197931,1.302095 -1.875,1.71875 0.572903,0.2083444 0.833319,0.4948024 0.78125,0.859375 0.781235,-0.052073 1.432276,0.1823019 1.953125,0.703125 0.208317,1.510425 0.312484,3.307298 0.3125,5.390625 l 0,2.1875 c -1.6e-5,0.312502 -0.130224,0.59896 -0.390625,0.859375 -0.260432,0.208334 -0.520849,0.390626 -0.78125,0.546875 0.468734,0.05208 0.937484,0.104167 1.40625,0.15625 0.468733,0.05208 0.989566,0.07813 1.5625,0.07813 0.312482,0 0.59894,0.02604 0.859375,0.07813 0.260397,0.05208 0.468731,0.104167 0.625,0.15625 -2e-5,0.208333 -0.156269,0.338542 -0.46875,0.390625 -0.885435,0.3125 -1.614601,0.572916 -2.1875,0.78125 -0.572933,0.208332 -1.432307,0.33854 -2.578125,0.390625 l -1.09375,-0.07813 C 17.567697,20.890624 16.395823,20.395833 15.5625,19.875 14.729158,19.354167 12.749993,19.093751 9.625,19.09375 9.3645798,19.093751 9.1562467,19.145834 9,19.25 8.7916638,19.458334 8.6093723,19.484376 8.453125,19.328125 8.192706,19.067709 7.9583313,18.781251 7.75,18.46875 7.6979148,18.312502 7.6979148,18.156252 7.75,18 9.4687464,17.218753 10.588537,16.489587 11.109375,15.8125 10.328121,15.187505 9.9374959,14.432297 9.9375,13.546875 L 9.78125,13.15625 C 9.4166631,12.843757 9.0781218,12.583341 8.765625,12.375 l 0.3125,-0.15625 c 0.8333293,-0.624991 1.32812,-0.937491 1.484375,-0.9375 0.468745,9e-6 0.859369,0.260425 1.171875,0.78125 -0.416672,0.625007 -0.651047,1.223965 -0.703125,1.796875 -5e-6,0.416673 0.338536,0.833339 1.015625,1.25 0.781243,0.416671 1.171868,0.729171 1.171875,0.9375 -7e-6,0.156254 -0.07813,0.338545 -0.234375,0.546875 -0.572923,0.41667 -0.963548,0.755211 -1.171875,1.015625 1.302076,0.208336 2.604158,0.468752 3.90625,0.78125 1.406239,0.364585 2.421863,0.625001 3.046875,0.78125 0.572903,0.156251 1.093736,0.234376 1.5625,0.234375 l 0.46875,0 L 19.46875,18 18.765625,17.296875 c 0.05207,0.572919 -0.02605,0.989585 -0.234375,1.25 -0.729179,2e-6 -1.06772,-0.49479 -1.015625,-1.484375 -1.2e-5,-0.36458 -1.2e-5,-0.67708 0,-0.9375 -0.0521,-0.312496 -0.07814,-0.624995 -0.07813,-0.9375 -0.416678,0.156255 -0.755219,0.286463 -1.015625,0.390625 -0.208344,-0.05208 -0.390635,-0.208329 -0.546875,-0.46875 l -0.07813,0.625 c -0.15626,0.72917 -0.234385,1.223961 -0.234375,1.484375 -10e-6,0.208336 -0.07813,0.416669 -0.234375,0.625 -0.05209,0.156252 -0.182301,0.13021 -0.390625,-0.07813 -0.364592,-0.468747 -0.572925,-0.83333 -0.625,-1.09375 0.208325,-0.989579 0.416658,-1.979161 0.625,-2.96875 0.46874,-2.187491 1.145823,-3.541657 2.03125,-4.0625 l 0.703125,-0.3125 C 17.411447,9.2760525 17.177072,9.2239692 16.96875,9.171875 16.708323,9.0677194 16.526031,8.807303 16.421875,8.390625 c -1.1e-5,-0.1562381 0.104156,-0.2604047 0.3125,-0.3125 C 17.098947,8.0260538 17.437488,8.0520954 17.75,8.15625 18.583321,7.6875124 19.104153,7.2187629 19.3125,6.75 18.427071,7.1145963 17.46353,7.3750127 16.421875,7.53125 15.692699,7.2187629 15.041657,6.7239717 14.46875,6.046875 16.760406,5.9427225 18.453112,5.8125143 19.546875,5.65625 z M 10.5625,5.96875 c 0.312495,-0.052069 0.677078,0.1041807 1.09375,0.46875 0.41666,0.3125134 0.624994,0.6510547 0.625,1.015625 -6e-6,0.2083458 -0.260423,0.3645956 -0.78125,0.46875 -0.572922,0.1041788 -0.937505,0.156262 -1.09375,0.15625 C 10.197912,8.078137 10.041663,7.8958455 9.9375,7.53125 9.7291628,7.2708462 9.4166631,6.9323048 9,6.515625 9.20833,6.2552222 9.7291628,6.0729307 10.5625,5.96875 z m 6.640625,3.984375 c -0.572927,0.46876 -0.93751,1.093759 -1.09375,1.875 0.208323,-0.104158 0.416656,-0.28645 0.625,-0.546875 0.312489,-0.208324 0.624989,-0.416657 0.9375,-0.625 0.468738,-0.364574 0.989571,-0.572907 1.5625,-0.625 -0.468763,-0.1562398 -0.859388,-0.2604063 -1.171875,-0.3125 -0.312512,1.04e-5 -0.59897,0.078135 -0.859375,0.234375 z m 3.125,0.625 c -0.625014,0.104176 -1.145847,0.260426 -1.5625,0.46875 -0.0521,0.260425 -0.02605,0.520842 0.07813,0.78125 0.781236,0.156258 1.015611,0.520841 0.703125,1.09375 -0.26043,0.156257 -0.494805,0.416673 -0.703125,0.78125 l 0.546875,0.07813 c 0.416653,-0.05208 0.703111,0.02605 0.859375,0.234375 0.104152,0.364589 -0.156264,0.625005 -0.78125,0.78125 -0.156263,5e-6 -0.390638,0.07813 -0.703125,0.234375 l 0.07813,1.328125 c 0.416653,0.364587 0.755195,0.598961 1.015625,0.703125 l 0.703125,-0.07813 c 0.05207,-0.104163 0.07811,-0.286455 0.07813,-0.546875 -1.5e-5,-0.468746 -0.02606,-0.963537 -0.07813,-1.484375 -0.104181,-1.562493 -0.156265,-2.630201 -0.15625,-3.203125 -1.5e-5,-0.364575 -0.02606,-0.755199 -0.07813,-1.171875 z M 17.75,11.515625 c -0.312512,0.260425 -0.546886,0.4948 -0.703125,0.703125 0.312489,-0.104159 0.546863,-0.156242 0.703125,-0.15625 -1.2e-5,-0.312492 -1.2e-5,-0.494783 0,-0.546875 z M 17.359375,13.15625 C 16.942697,13.05209 16.656239,13.104174 16.5,13.3125 c -1.1e-5,0.156257 -0.07814,0.286465 -0.234375,0.390625 -10e-6,0.20834 -0.05209,0.416673 -0.15625,0.625 0.729156,-0.260411 1.249989,-0.624994 1.5625,-1.09375 l -0.3125,-0.07813 z"
     style="font-size:20px;font-variant:normal;font-stretch:normal;font-family:HGPGyoshotai;-inkscape-font-specification:HGPGyoshotai;fill:#b3b3b3"
     id="path3912" /><path
     d="m 30.25,8.15625 c 0.572912,0.3645949 1.171869,0.5468864 1.796875,0.546875 2.135408,0.3125111 3.307282,1.1718852 3.515625,2.578125 -1e-5,0.260425 -0.104176,0.416675 -0.3125,0.46875 -0.833342,0.104175 -1.875008,0.234383 -3.125,0.390625 -0.260423,0.05209 -0.546881,0.07813 -0.859375,0.07813 1.19791,-0.468742 2.083326,-0.885408 2.65625,-1.25 0.208325,-0.260407 0.182283,-0.442699 -0.07813,-0.546875 -0.520841,-0.05207 -0.911465,-0.07812 -1.171875,-0.07813 -0.20834,-0.05207 -0.416673,-0.07812 -0.625,-0.07813 C 31.630203,10.213552 31.187495,10.03126 30.71875,9.71875 30.249996,9.2500109 29.989579,8.9635528 29.9375,8.859375 29.624996,8.44272 29.494788,8.0260538 29.546875,7.609375 29.755204,7.8177206 29.989579,8.0000121 30.25,8.15625 z m -1.484375,6.796875 c -0.104169,0.208338 -0.182294,0.416671 -0.234375,0.625 0.104164,0.364587 0.338539,0.625004 0.703125,0.78125 0.572913,0.156254 1.510412,0.286462 2.8125,0.390625 0.624993,3e-6 1.406242,0.05209 2.34375,0.15625 1.09374,0.416669 1.666656,0.833336 1.71875,1.25 -0.104177,0.312502 -0.260427,0.520835 -0.46875,0.625 l -1.171875,0.07813 C 33.166659,18.807293 31.812494,18.625001 30.40625,18.3125 29.937496,18.156252 29.468746,17.895836 29,17.53125 28.166664,16.906253 27.802081,16.255212 27.90625,15.578125 l 0.390625,-0.625 c 0.156247,-0.104161 0.312497,-0.104161 0.46875,0 z m 9.0625,-9.53125 c 0.520821,1.47e-5 0.937487,0.052098 1.25,0.15625 0.312486,0.052098 0.624986,0.2604309 0.9375,0.625 0.104152,0.208347 0.104152,0.4166802 0,0.625 C 39.859361,6.9323048 39.624986,6.9843881 39.3125,6.984375 38.999987,6.9843881 38.661446,6.8281383 38.296875,6.515625 37.93228,6.2552222 37.541655,5.9427225 37.125,5.578125 37.385405,5.473973 37.61978,5.4218897 37.828125,5.421875 z m -1.875,1.25 c 0.729156,0.1562633 1.406239,0.468763 2.03125,0.9375 0.05207,0.3125122 0.02603,0.5729286 -0.07813,0.78125 -0.104179,0.2083448 -0.208345,0.3125114 -0.3125,0.3125 L 36.96875,8.625 C 36.18749,7.9479288 35.640615,7.3750127 35.328125,6.90625 c 0.208324,-0.1041534 0.416657,-0.1822783 0.625,-0.234375 z"
     style="font-size:20px;font-variant:normal;font-stretch:normal;font-family:HGPGyoshotai;-inkscape-font-specification:HGPGyoshotai;fill:#b3b3b3"
     id="path3914" /><path
     d="m 50.015625,7.140625 c 0.416656,1.3e-5 0.833323,0.1302212 1.25,0.390625 0.677072,0.625012 1.015613,1.1198031 1.015625,1.484375 -1.2e-5,0.4166773 -0.364595,1.197927 -1.09375,2.34375 -0.93751,1.406257 -1.718759,2.39584 -2.34375,2.96875 0.729157,0.05209 1.484365,0.156256 2.265625,0.3125 0.416655,0.104172 0.989571,0.260422 1.71875,0.46875 0.260404,-0.624994 0.286445,-0.989577 0.07813,-1.09375 -0.104179,0.05209 -0.182304,0.130214 -0.234375,0.234375 -0.312512,-0.260411 -0.364595,-0.494785 -0.15625,-0.703125 0.312487,-0.312493 0.807279,-0.234368 1.484375,0.234375 0.416652,0.416673 0.572902,0.963547 0.46875,1.640625 l 0.859375,0.390625 c 0.729151,0.312504 1.1979,0.677087 1.40625,1.09375 0.156233,0.312503 0.07811,0.494794 -0.234375,0.546875 -0.468766,-0.104164 -1.302098,-0.36458 -2.5,-0.78125 -0.833346,0.885419 -1.666679,1.53646 -2.5,1.953125 -0.833344,0.416668 -1.770843,0.833334 -2.8125,1.25 0.416658,-0.312499 0.989574,-0.807291 1.71875,-1.484375 0.729156,-0.677081 1.354155,-1.432289 1.875,-2.265625 C 51.447905,15.812504 50.796864,15.630213 50.328125,15.578125 49.442699,15.42188 48.635408,15.343755 47.90625,15.34375 L 45.796875,17.375 c -0.572922,0.468752 -1.041671,0.75521 -1.40625,0.859375 -0.260421,0.156252 -0.520837,0.234377 -0.78125,0.234375 -0.312503,2e-6 -0.625003,-0.468748 -0.9375,-1.40625 -0.572919,-0.468746 -0.833335,-0.859371 -0.78125,-1.171875 0.104165,-0.416662 0.416665,-0.729162 0.9375,-0.9375 0.67708,-0.260411 1.510413,-0.442703 2.5,-0.546875 0.624994,-0.05208 1.19791,-0.07812 1.71875,-0.07813 0.468743,-0.520827 0.911451,-1.04166 1.328125,-1.5625 C 50.041657,10.682301 50.848948,9.1979276 50.796875,8.3125 50.796864,8.0000121 50.640615,7.8437623 50.328125,7.84375 49.546866,8.2604285 48.895825,8.5208449 48.375,8.625 47.697909,8.729178 47.177076,8.5729282 46.8125,8.15625 46.44791,7.791679 46.213536,7.5052209 46.109375,7.296875 c 0.57291,0.2083459 1.093743,0.2864709 1.5625,0.234375 0.729159,-0.104154 1.510408,-0.2343622 2.34375,-0.390625 z M 44.546875,15.5 c -0.416671,0.05209 -0.833337,0.130213 -1.25,0.234375 -0.260419,0.104171 -0.416669,0.234379 -0.46875,0.390625 0.156247,0.41667 0.494789,0.72917 1.015625,0.9375 0.624996,-0.260413 1.302078,-0.781246 2.03125,-1.5625 -0.312505,-0.05208 -0.755213,-0.05208 -1.328125,0 z"
     style="font-size:20px;font-variant:normal;font-stretch:normal;font-family:HGPGyoshotai;-inkscape-font-specification:HGPGyoshotai;fill:#b3b3b3"
     id="path3916" /></g></svg>
