<?xml version="1.0" encoding="UTF-8" standalone="no"?>
<!-- Generator: Adobe Illustrator 16.0.4, SVG Export Plug-In . SVG Version: 6.00 Build 0)  -->

<svg
   xmlns:dc="http://purl.org/dc/elements/1.1/"
   xmlns:cc="http://creativecommons.org/ns#"
   xmlns:rdf="http://www.w3.org/1999/02/22-rdf-syntax-ns#"
   xmlns:svg="http://www.w3.org/2000/svg"
   xmlns="http://www.w3.org/2000/svg"
   xmlns:sodipodi="http://sodipodi.sourceforge.net/DTD/sodipodi-0.dtd"
   xmlns:inkscape="http://www.inkscape.org/namespaces/inkscape"
   version="1.1"
   id="レイヤー_1"
   x="0px"
   y="0px"
   width="137"
   height="32"
   viewBox="0 0 137 32"
   enable-background="new 0 0 120 23"
   xml:space="preserve"
   inkscape:version="0.48.5 r10040"
   sodipodi:docname="kosi02.svg"><metadata
   id="metadata4427"><rdf:RDF><cc:Work
       rdf:about=""><dc:format>image/svg+xml</dc:format><dc:type
         rdf:resource="http://purl.org/dc/dcmitype/StillImage" /><dc:title /></cc:Work></rdf:RDF></metadata><defs
   id="defs4425" /><sodipodi:namedview
   pagecolor="#ffffff"
   bordercolor="#666666"
   borderopacity="1"
   objecttolerance="10"
   gridtolerance="10"
   guidetolerance="10"
   inkscape:pageopacity="0"
   inkscape:pageshadow="2"
   inkscape:window-width="1366"
   inkscape:window-height="706"
   id="namedview4423"
   showgrid="false"
   inkscape:zoom="5.075"
   inkscape:cx="72.563547"
   inkscape:cy="16.507389"
   inkscape:window-x="-8"
   inkscape:window-y="-8"
   inkscape:window-maximized="1"
   inkscape:current-layer="flowRoot4092" />





<text
   xml:space="preserve"
   style="font-size:13.42425632px;font-style:normal;font-weight:normal;line-height:125%;letter-spacing:0px;word-spacing:0px;fill:#f6f6f6;fill-opacity:1;stroke:none;font-family:Sans"
   x="6.7928081"
   y="19.20586"
   id="text4429"
   sodipodi:linespacing="125%"
   transform="scale(0.7536626,1.3268537)"><tspan
     sodipodi:role="line"
     x="6.7928081"
     y="19.20586"
     id="tspan4433"
     style="font-size:13px" /></text>





<flowRoot
   xml:space="preserve"
   id="flowRoot4945"
   style="font-size:11px;font-style:normal;font-weight:normal;line-height:125%;letter-spacing:0px;word-spacing:0px;fill:#000000;fill-opacity:1;stroke:none;font-family:Sans"
   transform="translate(0,9)"><flowRegion
     id="flowRegion4947"><rect
       id="rect4949"
       width="392.31528"
       height="103.64532"
       x="32.118225"
       y="-121.23645" /></flowRegion><flowPara
     id="flowPara4951" /></flowRoot><g
   transform="translate(38.226602,5.4532018)"
   style="font-size:20px;font-style:normal;font-variant:normal;font-weight:normal;font-stretch:normal;line-height:125%;letter-spacing:0px;word-spacing:0px;fill:#000000;fill-opacity:1;stroke:none;font-family:'蟇悟｣ｫ繝昴ャ繝暦ｼｰ';-inkscape-font-specification:'蟇悟｣ｫ繝昴ャ繝暦ｼｰ'"
   id="flowRoot3123"><g
     transform="translate(-38.226602,3.5467982)"
     style="font-size:11px;line-height:125%;fill:#000000;font-family:Sans"
     id="flowRoot3028">path
       d=m 41.0625,-2.765625 c 0.281239,2.5e-5 0.749988,0.0469 1.40625,0.140625 0.562487,0.093775 0.984362,0.4218995 1.265625,0.984375 0.09374,0.3750235 0.09374,0.75002316 0,1.125 -1.125013,1.40627138 -3.046886,3.2812695 -5.765625,5.625 C 38.999991,4.9218923 39.84374,4.7812675 40.5,4.6875 c 0.749989,-0.093732 1.265613,0.1406424 1.546875,0.703125 l 0.140625,0.84375 c -0.656261,1.1250149 -1.406261,2.1562639 -2.25,3.09375 0.843739,-0.2812368 1.593739,-0.4218616 2.25,-0.421875 l 0.84375,0.28125 c 0.281237,0.3750127 0.374987,0.7031374 0.28125,0.984375 -0.562513,1.031261 -1.359387,1.828135 -2.390625,2.390625 -1.03126,0.562509 -2.718758,1.406258 -5.0625,2.53125 -0.187506,7e-6 -0.281255,-0.04687 -0.28125,-0.140625 1.312493,-0.749992 2.765617,-2.015616 4.359375,-3.796875 -1.781258,0.468761 -2.859382,0.65626 -3.234375,0.5625 l -0.84375,-0.5625 c -0.375005,-0.281239 -0.562505,-0.656238 -0.5625,-1.125 -5e-6,-0.4687373 0.374994,-0.9374868 1.125,-1.40625 0.937493,-0.5624858 1.640617,-1.1249852 2.109375,-1.6875 l -0.5625,0 C 37.593742,6.7500155 36.890618,6.9375153 35.859375,7.5 35.01562,7.8750144 34.499996,7.9687643 34.3125,7.78125 33.843746,7.4062649 33.421872,6.8437654 33.046875,6.09375 l 0.28125,-0.703125 c 2.531244,-2.4374807 4.640617,-4.45310367 6.328125,-6.046875 -0.375009,-0.4687266 -0.609384,-0.7968513 -0.703125,-0.984375 0.374991,-0.7499753 1.078115,-1.124975 2.109375,-1.125 z m 12.09375,0.421875 c 0.562476,2.46e-5 1.078101,0.1406495 1.546875,0.421875 0.468725,0.2812739 0.749975,0.5625236 0.84375,0.84375 0.187474,0.28127306 0.234349,0.70314764 0.140625,1.265625 -0.375025,0.2812718 -0.843775,0.56252152 -1.40625,0.84375 -0.656274,0.281271 -1.171898,0.5156457 -1.546875,0.703125 0.187477,0.09377 0.374977,0.515645 0.5625,1.265625 -2.3e-5,0.093769 0.09373,0.3281439 0.28125,0.703125 l 0.5625,1.6875 C 54.421851,5.296892 54.749975,5.1562671 55.125,4.96875 55.968724,4.6875176 56.765598,4.5937677 57.515625,4.6875 58.359347,4.8750174 58.687471,5.2031421 58.5,5.671875 58.124972,6.4218908 57.234348,7.0312652 55.828125,7.5 l -0.5625,0.28125 c 1.124974,2.531262 2.296848,4.734385 3.515625,6.609375 1.31247,2.062506 2.484344,3.515629 3.515625,4.359375 0.187468,0.187503 0.374967,0.04688 0.5625,-0.421875 l 0.421875,-2.25 c -0.187533,-1.124993 -0.375033,-2.156242 -0.5625,-3.09375 0.656217,0.656259 1.218716,1.640633 1.6875,2.953125 0.374965,1.031255 0.562465,2.156254 0.5625,3.375 -0.09378,0.375003 -0.187535,0.796877 -0.28125,1.265625 -0.09378,0.562501 -0.328159,1.21875 -0.703125,1.96875 -0.281284,0.1875 -0.562533,0.281249 -0.84375,0.28125 C 62.671842,22.828124 61.874968,22.3125 60.75,21.28125 59.531221,20.250002 57.515598,17.48438 54.703125,12.984375 52.640602,14.578133 49.96873,16.218756 46.6875,17.90625 L 44.578125,18.1875 C 43.453112,17.437505 42.937487,16.781255 43.03125,16.21875 L 43.3125,15.375 c 0.656236,-1.312492 1.124986,-2.71874 1.40625,-4.21875 C 44.906235,9.9375123 44.999985,8.9062634 45,8.0625 44.999985,7.218765 44.906235,6.5625157 44.71875,6.09375 44.531236,5.5312667 44.249986,5.1093922 43.875,4.828125 43.499987,4.5468927 43.359362,4.312518 43.453125,4.125 c 0.09374,0.093768 0.468736,0.140643 1.125,0.140625 C 45.984359,4.8281424 47.062483,5.9062664 47.8125,7.5 48.281232,7.4062649 48.703106,7.312515 49.078125,7.21875 49.828105,7.0312652 50.718729,6.7500155 51.75,6.375 51.093729,4.9687673 50.624979,3.7500185 50.34375,2.71875 L 49.078125,3 46.6875,3.140625 l -0.28125,-0.28125 1.125,-0.84375 c 1.593731,-1.03122872 2.81248,-1.92185283 3.65625,-2.671875 -0.375021,-0.7499763 -0.609395,-1.1718509 -0.703125,-1.265625 0.562479,2.42e-5 1.453103,-0.1406007 2.671875,-0.421875 z m -1.828125,11.25 c 0.468728,1.34e-5 0.937478,0.1406382 1.40625,0.421875 -0.09377,-0.1874869 -0.187522,-0.4218616 -0.28125,-0.703125 -0.281272,1.36e-5 -0.656272,0.093763 -1.125,0.28125 z M 50.0625,9.328125 c -0.656269,-0.093737 -1.359394,1.29e-5 -2.109375,0.28125 L 46.6875,14.25 46.546875,14.8125 c 3.09373,-1.124991 5.343728,-2.203115 6.75,-3.234375 0.374976,-0.656239 0.187477,-1.124988 -0.5625,-1.40625 C 51.796853,9.6093877 50.906229,9.3281379 50.0625,9.328125 z m -7.875,4.78125 c 0.562487,-0.374991 1.171862,-0.843741 1.828125,-1.40625 -0.375014,1.218758 -0.750013,2.062507 -1.125,2.53125 C 38.109367,19.171878 35.01562,21.093751 33.609375,21 32.671872,20.531252 31.968748,19.875002 31.5,19.03125 c -0.375001,-0.562496 -0.375001,-1.031246 0,-1.40625 0.468748,-0.656245 1.218747,-0.468745 2.25,0.5625 2.718744,-1.031245 4.968741,-2.062494 6.75,-3.09375 0.656239,-0.374992 1.218738,-0.703117 1.6875,-0.984375 z
       style=font-size:36px;font-variant:normal;font-stretch:normal;font-family:HGGyoshotai;-inkscape-font-specification:HGGyoshotai;fill:#b3b3b3
       id=path3811
       inkscape:connector-curvature=0 /path
       d=m 154.125,-6.421875 c 1.12498,0.093779 2.24998,0.1875285 3.375,0.28125 0.93748,0.2812781 1.59373,0.8437776 1.96875,1.6875 0.28123,0.750026 -0.2344,2.3437744 -1.54688,4.78125 2.34373,2.194e-5 5.29685,0.0937718 8.85938,0.28125 0.37497,2.166e-5 0.79685,0.0468966 1.26562,0.140625 0.74997,2.152e-5 1.54685,0.3750211 2.39063,1.125 1.03122,1.2187692 0.84372,1.9218935 -0.5625,2.109375 -0.84378,0.093768 -1.96878,-0.093732 -3.375,-0.5625 -0.65628,-0.2812309 -1.40628,-0.5156056 -2.25,-0.703125 -0.84378,-0.1874803 -1.82815,-0.2812302 -2.95313,-0.28125 l -2.25,0 c -1.03126,0.09377 -1.82814,0.2343946 -2.39062,0.421875 -1.21877,1.5937678 -2.53127,3.3281411 -3.9375,5.203125 0.65623,0.5625136 1.03123,1.5468877 1.125,2.953125 1.21873,-1.0312377 2.43748,-1.8749869 3.65625,-2.53125 l 0,-3.09375 -0.84375,-0.984375 0,-0.28125 0.98437,-0.28125 c 0.74998,-0.093732 1.45311,0.2343932 2.10938,0.984375 0.28123,0.2812672 0.42185,1.1250163 0.42187,2.53125 1.78123,-0.3749847 2.99998,-0.2343599 3.65625,0.421875 1.31248,0.5625139 1.87498,1.6406378 1.6875,3.234375 -0.28127,2.343759 -0.7969,4.359382 -1.54687,6.046875 -0.75003,1.125004 -1.5469,1.640629 -2.39063,1.546875 -0.75002,-0.187496 -1.31252,-0.562496 -1.6875,-1.125 l 0,2.25 c -2e-5,1.312501 -0.0469,2.25 -0.14062,2.8125 -2e-5,0.281249 -0.0938,0.843749 -0.28125,1.6875 -0.28127,0.749997 -0.56252,1.124997 -0.84375,1.125 -1.12502,0.187497 -1.68752,-0.656252 -1.6875,-2.53125 0.18748,-2.437498 0.28123,-5.10937 0.28125,-8.015625 l -1.26563,-1.546875 c -0.18751,-0.281241 -0.32814,-0.468741 -0.42187,-0.5625 -2e-5,-0.09374 0.0937,-0.18749 0.28125,-0.28125 0.28123,0.468759 0.74998,0.843759 1.40625,1.125 l 0.14062,-3.515625 c -1.03126,0.750011 -1.78126,1.453136 -2.25,2.109375 -0.37501,0.46876 -0.70314,1.312509 -0.98437,2.53125 -0.28127,0.937507 -0.46877,1.640631 -0.5625,2.109375 -2e-5,0.187505 -0.0938,0.281255 -0.28125,0.28125 -0.37501,5e-6 -0.79689,-0.23437 -1.26563,-0.703125 -0.46876,-0.468744 -0.70313,-1.078118 -0.70312,-1.828125 l 0,-0.421875 c 1.12499,-3.281239 1.45311,-5.1562367 0.98437,-5.625 -1.40626,1.1250127 -2.71876,1.828137 -3.9375,2.109375 -1.3125,0.281261 -2.01563,0.421886 -2.10937,0.421875 -0.84376,1.1e-5 -1.78126,-0.562488 -2.8125,-1.6875 -0.0938,-0.2812368 -1e-5,-0.4218616 0.28125,-0.421875 0.28124,0.093763 0.79687,0.2343881 1.54687,0.421875 1.03125,1.29e-5 2.01562,-0.3749867 2.95313,-1.125 1.68749,-1.6874843 3.09374,-3.1874828 4.21875,-4.5 -0.84376,0.2812683 -1.96876,0.515643 -3.375,0.703125 -0.56251,1.79e-5 -1.21876,-0.046857 -1.96875,-0.140625 -0.75001,-0.093732 -1.40626,-0.2343568 -1.96875,-0.421875 -0.84376,-0.2812313 -1.26563,-0.5156061 -1.26563,-0.703125 3.5625,-1.2187297 7.03124,-2.0624788 10.40625,-2.53125 1.12499,-1.7812266 1.68749,-3.0468503 1.6875,-3.796875 -1e-5,-0.093724 -0.60939,-1.1249734 -1.82812,-3.09375 l 0,-0.140625 z M 159.89062,14.25 c 0.37498,0.09376 0.70311,0.04688 0.98438,-0.140625 0.46873,-0.468741 0.79685,-1.218741 0.98437,-2.25 C 161.9531,11.296886 161.99998,10.593762 162,9.75 c -2e-5,-0.6562368 -0.18752,-1.0312365 -0.5625,-1.125 -0.37502,-0.1874862 -0.84377,-0.093736 -1.40625,0.28125 z
       style=font-size:36px;font-variant:normal;font-stretch:normal;font-family:HGGyoshotai;-inkscape-font-specification:HGGyoshotai;fill:#b3b3b3
       id=path3817
       inkscape:connector-curvature=0 /<g
   transform="translate(-1.182266,-12.152709)"
   style="font-style:normal;font-weight:normal;line-height:125%;letter-spacing:0px;word-spacing:0px;fill-opacity:1;stroke:none;font-family:Sans"
   id="flowRoot4092"><path
     d="m 14.296875,8.796875 c 1.895818,1.0937697 2.880192,2.005227 2.953125,2.734375 0.0729,1.2396 -0.03647,2.625015 -0.328125,4.15625 1.385399,-0.145819 2.770814,-0.255194 4.15625,-0.328125 l 1.53125,0.21875 c 0.874977,0.145847 1.494768,0.29168 1.859375,0.4375 0.729142,0.218763 1.348933,0.656263 1.859375,1.3125 0.145807,0.291679 0.03643,0.510428 -0.328125,0.65625 -0.583358,0.291678 -1.348983,0.401053 -2.296875,0.328125 C 22.24477,18.020845 20.604146,17.838553 18.78125,17.765625 L 16.375,17.875 c -0.656265,2.041676 -1.494806,3.46355 -2.515625,4.265625 -0.947929,0.729173 -1.677095,1.093756 -2.1875,1.09375 -0.583344,-0.07291 -0.947927,-0.182285 -1.09375,-0.328125 1.458322,-0.729159 2.442696,-2.296866 2.953125,-4.703125 -1.604178,0.364594 -3.463551,0.656261 -5.578125,0.875 C 7.5156179,19.078135 7.0052017,18.968761 6.421875,18.75 5.8385362,18.531261 4.8541622,17.875012 3.46875,16.78125 l 0,-0.21875 c 0.1458301,-0.0729 0.4010382,-0.03645 0.765625,0.109375 l 2.1875,0.109375 c 2.9895743,-0.218737 5.395822,-0.473945 7.21875,-0.765625 0.14582,-0.729152 0.14582,-2.005193 0,-3.828125 C 13.203112,11.093768 12.874988,10.437519 12.65625,10.21875 12.364571,9.927103 12.18228,9.6718949 12.109375,9.453125 12.40103,9.1614787 12.765613,8.9791873 13.203125,8.90625 13.713528,8.7604375 14.078111,8.7239792 14.296875,8.796875 z m 5.03125,13.125 c 0.437481,0.218757 0.947897,0.473966 1.53125,0.765625 1.093728,0.510423 1.604145,0.984381 1.53125,1.421875 -0.656271,1.093754 -1.348979,2.04167 -2.078125,2.84375 -0.656269,0.656252 -1.130227,1.13021 -1.421875,1.421875 0.729147,0.510417 1.203105,0.911459 1.421875,1.203125 0.21873,0.364583 0.291646,0.656249 0.21875,0.875 -0.07294,0.218749 -0.328145,0.328124 -0.765625,0.328125 -3.281266,-0.364584 -5.213556,-1.057292 -5.796875,-2.078125 -0.145847,-0.656248 -0.145847,-1.05729 0,-1.203125 l 0.546875,-0.4375 c 0.729152,-0.58333 1.312485,-0.947913 1.75,-1.09375 0.437484,-0.291663 0.911442,-0.765621 1.421875,-1.421875 0.0729,-0.145828 0.145816,-0.32812 0.21875,-0.546875 -1.093766,0.07292 -2.041682,0.145839 -2.84375,0.21875 -1.16668,0.07292 -2.078138,0.510422 -2.734375,1.3125 -0.145845,0.29167 -0.182303,0.619795 -0.109375,0.984375 0.364571,0.583336 0.729154,1.458335 1.09375,2.625 -0.437512,0.583333 -0.802095,0.875 -1.09375,0.875 C 10.979156,29.505208 10.177074,28.848959 9.8125,28.046875 9.5208242,27.390627 8.9010332,26.296878 7.953125,24.765625 7.5885345,24.10938 7.3697847,23.635423 7.296875,23.34375 7.5156179,23.125006 7.9166592,23.015632 8.5,23.015625 c 0.4374915,7e-6 0.7656161,0.03646 0.984375,0.109375 0.1458241,0.07292 0.2187407,0.14584 0.21875,0.21875 C 9.3385327,23.562506 9.2291578,23.781256 9.375,24 c 0.65624,0.364589 1.385406,0.947921 2.1875,1.75 0.218739,-0.291663 0.437488,-0.619787 0.65625,-0.984375 0.947904,-1.093744 2.114569,-1.82291 3.5,-2.1875 1.312483,-0.437493 2.515607,-0.656242 3.609375,-0.65625 z"
     style="font-size:28px;font-variant:normal;font-stretch:normal;fill:#f2f2f2;font-family:HGPGyoshotai;-inkscape-font-specification:HGPGyoshotai"
     id="path4429" /><path
     d="m 36.9375,10.109375 c 0.218741,1.9e-5 0.583324,0.03648 1.09375,0.109375 0.43749,0.07294 0.765615,0.328144 0.984375,0.765625 0.07291,0.291685 0.07291,0.583351 0,0.875 -0.87501,1.093767 -2.3698,2.552099 -4.484375,4.375 0.802076,-0.14582 1.458326,-0.255195 1.96875,-0.328125 0.583325,-0.0729 0.984366,0.109389 1.203125,0.546875 l 0.109375,0.65625 c -0.510426,0.875012 -1.093758,1.677094 -1.75,2.40625 0.656242,-0.21874 1.239574,-0.328115 1.75,-0.328125 l 0.65625,0.21875 c 0.21874,0.291677 0.291656,0.546885 0.21875,0.765625 -0.43751,0.802092 -1.057301,1.421883 -1.859375,1.859375 -0.802091,0.437507 -2.11459,1.093756 -3.9375,1.96875 -0.145838,6e-6 -0.218754,-0.03645 -0.21875,-0.109375 1.020828,-0.583327 2.151035,-1.567701 3.390625,-2.953125 -1.385423,0.364592 -2.223964,0.510425 -2.515625,0.4375 l -0.65625,-0.4375 c -0.291671,-0.218741 -0.437504,-0.510408 -0.4375,-0.875 -4e-6,-0.364573 0.291662,-0.729156 0.875,-1.09375 0.729161,-0.437489 1.276035,-0.874989 1.640625,-1.3125 l -0.4375,0 c -0.291672,-0.145821 -0.838547,1.2e-5 -1.640625,0.4375 C 32.234371,18.385428 31.83333,18.458344 31.6875,18.3125 31.322914,18.020845 30.994789,17.583345 30.703125,17 l 0.21875,-0.546875 C 32.890621,14.557307 34.531244,12.9896 35.84375,11.75 c -0.291674,-0.364565 -0.473965,-0.619773 -0.546875,-0.765625 0.291659,-0.583314 0.838534,-0.874981 1.640625,-0.875 z m 9.40625,0.328125 c 0.437482,1.9e-5 0.838523,0.109394 1.203125,0.328125 0.364564,0.218769 0.583314,0.437518 0.65625,0.65625 0.145813,0.218768 0.182272,0.546893 0.109375,0.984375 -0.291686,0.218767 -0.656269,0.437517 -1.09375,0.65625 -0.510435,0.218766 -0.911476,0.401058 -1.203125,0.546875 0.145816,0.07293 0.291649,0.401057 0.4375,0.984375 -1.8e-5,0.07293 0.0729,0.255223 0.21875,0.546875 l 0.4375,1.3125 c 0.218731,-0.0729 0.473939,-0.182278 0.765625,-0.328125 0.65623,-0.218736 1.276021,-0.291653 1.859375,-0.21875 0.656228,0.145847 0.911436,0.401055 0.765625,0.765625 -0.291688,0.583346 -0.984396,1.057304 -2.078125,1.421875 l -0.4375,0.21875 c 0.87498,1.968759 1.786437,3.682299 2.734375,5.140625 1.02081,1.604171 1.932267,2.734378 2.734375,3.390625 0.145808,0.145836 0.291641,0.03646 0.4375,-0.328125 l 0.328125,-1.75 c -0.145859,-0.874994 -0.291692,-1.677077 -0.4375,-2.40625 0.510391,0.510423 0.94789,1.276048 1.3125,2.296875 0.29164,0.802087 0.437473,1.677087 0.4375,2.625 -0.07294,0.291669 -0.14586,0.619793 -0.21875,0.984375 -0.07294,0.437501 -0.255235,0.947917 -0.546875,1.53125 -0.218776,0.145833 -0.437526,0.21875 -0.65625,0.21875 -0.364609,0 -0.9844,-0.401042 -1.859375,-1.203125 -0.94794,-0.802082 -2.515646,-2.953121 -4.703125,-6.453125 -1.604184,1.239589 -3.682307,2.51563 -6.234375,3.828125 l -1.640625,0.21875 C 38.796865,25.82292 38.395823,25.312504 38.46875,24.875 L 38.6875,24.21875 C 39.197906,23.197923 39.562489,22.104174 39.78125,20.9375 39.927072,19.989593 39.999988,19.18751 40,18.53125 39.999988,17.875012 39.927072,17.364596 39.78125,17 39.635405,16.562513 39.416656,16.234388 39.125,16.015625 38.833323,15.796889 38.723948,15.614597 38.796875,15.46875 c 0.07291,0.07293 0.364573,0.109389 0.875,0.109375 1.093738,0.437514 1.932278,1.276054 2.515625,2.515625 0.364569,-0.0729 0.692694,-0.145822 0.984375,-0.21875 C 43.755193,17.729179 44.447901,17.510429 45.25,17.21875 44.739567,16.125013 44.374984,15.177098 44.15625,14.375 l -0.984375,0.21875 -1.859375,0.109375 -0.21875,-0.21875 0.875,-0.65625 c 1.239569,-0.802067 2.187484,-1.494774 2.84375,-2.078125 -0.291683,-0.583315 -0.473974,-0.91144 -0.546875,-0.984375 0.437484,1.9e-5 1.130191,-0.109356 2.078125,-0.328125 z m -1.421875,8.75 c 0.364566,10e-6 0.729149,0.109385 1.09375,0.328125 -0.07293,-0.145823 -0.145851,-0.328115 -0.21875,-0.546875 -0.218767,1.1e-5 -0.510434,0.07293 -0.875,0.21875 z M 43.9375,19.515625 c -0.510432,-0.07291 -1.057306,10e-6 -1.640625,0.21875 l -0.984375,3.609375 -0.109375,0.4375 c 2.406235,-0.874993 4.156233,-1.713534 5.25,-2.515625 0.291648,-0.510408 0.145815,-0.874991 -0.4375,-1.09375 -0.729184,-0.43749 -1.421891,-0.65624 -2.078125,-0.65625 z m -6.125,3.71875 c 0.43749,-0.29166 0.911448,-0.656243 1.421875,-1.09375 -0.291677,0.947923 -0.583344,1.604172 -0.875,1.96875 -3.718756,3.062502 -6.125004,4.557293 -7.21875,4.484375 C 30.411456,28.229168 29.864582,27.718752 29.5,27.0625 c -0.291667,-0.437497 -0.291667,-0.80208 0,-1.09375 0.364582,-0.510413 0.947915,-0.364579 1.75,0.4375 2.114578,-0.802079 3.864577,-1.604162 5.25,-2.40625 0.510408,-0.291661 0.947908,-0.546869 1.3125,-0.765625 z"
     style="font-size:28px;font-variant:normal;font-stretch:normal;fill:#f2f2f2;font-family:HGPGyoshotai;-inkscape-font-specification:HGPGyoshotai"
     id="path4431" /><path
     d="m 62.859375,17.875 c 0.802076,1.2e-5 1.604159,0.437511 2.40625,1.3125 -0.07292,0.291677 -0.109384,0.619801 -0.109375,0.984375 -9e-6,0.437509 -0.218759,0.984383 -0.65625,1.640625 -0.145841,0.07292 -0.401049,0.109383 -0.765625,0.109375 -1.166673,8e-6 -2.114589,-0.984366 -2.84375,-2.953125 -0.145838,-0.656239 0.510412,-1.020822 1.96875,-1.09375 z"
     style="font-size:28px;font-variant:normal;font-stretch:normal;fill:#f2f2f2;font-family:HGPGyoshotai;-inkscape-font-specification:HGPGyoshotai"
     id="path4433" /><path
     d="m 84.296875,8.796875 c 1.895818,1.0937697 2.880192,2.005227 2.953125,2.734375 0.0729,1.2396 -0.03647,2.625015 -0.328125,4.15625 1.385399,-0.145819 2.770814,-0.255194 4.15625,-0.328125 l 1.53125,0.21875 c 0.874977,0.145847 1.494768,0.29168 1.859375,0.4375 0.729142,0.218763 1.348933,0.656263 1.859375,1.3125 0.145807,0.291679 0.03643,0.510428 -0.328125,0.65625 -0.583358,0.291678 -1.348983,0.401053 -2.296875,0.328125 C 92.24477,18.020845 90.604146,17.838553 88.78125,17.765625 L 86.375,17.875 c -0.656265,2.041676 -1.494806,3.46355 -2.515625,4.265625 -0.947929,0.729173 -1.677095,1.093756 -2.1875,1.09375 -0.583344,-0.07291 -0.947927,-0.182285 -1.09375,-0.328125 1.458322,-0.729159 2.442696,-2.296866 2.953125,-4.703125 -1.604178,0.364594 -3.463551,0.656261 -5.578125,0.875 -0.437507,10e-6 -0.947923,-0.109364 -1.53125,-0.328125 -0.583339,-0.218739 -1.567713,-0.874988 -2.953125,-1.96875 l 0,-0.21875 c 0.14583,-0.0729 0.401038,-0.03645 0.765625,0.109375 l 2.1875,0.109375 c 2.989574,-0.218737 5.395822,-0.473945 7.21875,-0.765625 0.14582,-0.729152 0.14582,-2.005193 0,-3.828125 C 83.203112,11.093768 82.874988,10.437519 82.65625,10.21875 82.364571,9.927103 82.18228,9.6718949 82.109375,9.453125 82.40103,9.1614787 82.765613,8.9791873 83.203125,8.90625 83.713528,8.7604375 84.078111,8.7239792 84.296875,8.796875 z m 5.03125,13.125 c 0.437481,0.218757 0.947897,0.473966 1.53125,0.765625 1.093728,0.510423 1.604145,0.984381 1.53125,1.421875 -0.656271,1.093754 -1.348979,2.04167 -2.078125,2.84375 -0.656269,0.656252 -1.130227,1.13021 -1.421875,1.421875 0.729147,0.510417 1.203105,0.911459 1.421875,1.203125 0.21873,0.364583 0.291646,0.656249 0.21875,0.875 -0.07294,0.218749 -0.328145,0.328124 -0.765625,0.328125 -3.281266,-0.364584 -5.213556,-1.057292 -5.796875,-2.078125 -0.145847,-0.656248 -0.145847,-1.05729 0,-1.203125 l 0.546875,-0.4375 c 0.729152,-0.58333 1.312485,-0.947913 1.75,-1.09375 0.437484,-0.291663 0.911442,-0.765621 1.421875,-1.421875 0.0729,-0.145828 0.145816,-0.32812 0.21875,-0.546875 -1.093766,0.07292 -2.041682,0.145839 -2.84375,0.21875 -1.16668,0.07292 -2.078138,0.510422 -2.734375,1.3125 -0.145845,0.29167 -0.182303,0.619795 -0.109375,0.984375 0.364571,0.583336 0.729154,1.458335 1.09375,2.625 -0.437512,0.583333 -0.802095,0.875 -1.09375,0.875 -1.239594,-0.510417 -2.041676,-1.166666 -2.40625,-1.96875 -0.291676,-0.656248 -0.911467,-1.749997 -1.859375,-3.28125 -0.364591,-0.656245 -0.58334,-1.130202 -0.65625,-1.421875 0.218743,-0.218744 0.619784,-0.328118 1.203125,-0.328125 0.437491,7e-6 0.765616,0.03646 0.984375,0.109375 0.145824,0.07292 0.218741,0.14584 0.21875,0.21875 C 79.338533,23.562506 79.229158,23.781256 79.375,24 c 0.65624,0.364589 1.385406,0.947921 2.1875,1.75 0.218739,-0.291663 0.437488,-0.619787 0.65625,-0.984375 0.947904,-1.093744 2.114569,-1.82291 3.5,-2.1875 1.312483,-0.437493 2.515607,-0.656242 3.609375,-0.65625 z"
     style="font-size:28px;font-variant:normal;font-stretch:normal;fill:#f2f2f2;font-family:HGPGyoshotai;-inkscape-font-specification:HGPGyoshotai"
     id="path4435" /><path
     d="m 110.875,7.265625 c 0.87499,0.072939 1.74999,0.1458555 2.625,0.21875 0.72915,0.2187719 1.23957,0.6562714 1.53125,1.3125 0.21873,0.5833535 -0.18231,1.822936 -1.20312,3.71875 1.82289,1.7e-5 4.11977,0.07293 6.89062,0.21875 0.29164,1.7e-5 0.61977,0.03647 0.98438,0.109375 0.5833,1.7e-5 1.2031,0.291683 1.85937,0.875 0.80206,0.947932 0.65622,1.494806 -0.4375,1.640625 -0.65627,0.07293 -1.53127,-0.0729 -2.625,-0.4375 -0.51044,-0.218735 -1.09377,-0.401027 -1.75,-0.546875 -0.65627,-0.145818 -1.42189,-0.218735 -2.29687,-0.21875 l -1.75,0 c -0.8021,0.07293 -1.42189,0.182307 -1.85938,0.328125 -0.94793,1.239597 -1.96876,2.588554 -3.0625,4.046875 0.5104,0.437511 0.80207,1.203135 0.875,2.296875 0.9479,-0.802074 1.89582,-1.458323 2.84375,-1.96875 l 0,-2.40625 -0.65625,-0.765625 0,-0.21875 0.76563,-0.21875 c 0.58331,-0.0729 1.13019,0.182306 1.64062,0.765625 0.21873,0.218763 0.32811,0.875013 0.32813,1.96875 1.38539,-0.291655 2.33331,-0.18228 2.84375,0.328125 1.02081,0.437511 1.45831,1.276052 1.3125,2.515625 -0.21878,1.822924 -0.61982,3.39063 -1.20313,4.703125 -0.58335,0.875003 -1.20314,1.276044 -1.85937,1.203125 -0.58336,-0.14583 -1.02086,-0.437497 -1.3125,-0.875 l 0,1.75 c -2e-5,1.020834 -0.0365,1.75 -0.10938,2.1875 -2e-5,0.21875 -0.0729,0.656249 -0.21875,1.3125 -0.21877,0.583331 -0.43752,0.874998 -0.65625,0.875 -0.87502,0.145831 -1.31251,-0.510419 -1.3125,-1.96875 0.14582,-1.895832 0.21874,-3.973955 0.21875,-6.234375 l -0.98437,-1.203125 c -0.14585,-0.218743 -0.25523,-0.364576 -0.32813,-0.4375 -1e-5,-0.07291 0.0729,-0.145826 0.21875,-0.21875 0.21874,0.364591 0.58332,0.656257 1.09375,0.875 l 0.10938,-2.734375 c -0.8021,0.583342 -1.38544,1.130217 -1.75,1.640625 -0.29168,0.364591 -0.54689,1.02084 -0.76563,1.96875 -0.21876,0.729172 -0.3646,1.276046 -0.4375,1.640625 -1e-5,0.145837 -0.0729,0.218754 -0.21875,0.21875 -0.29168,4e-6 -0.6198,-0.182287 -0.98437,-0.546875 -0.3646,-0.364578 -0.54689,-0.838536 -0.54688,-1.421875 l 0,-0.328125 c 0.87499,-2.552074 1.1302,-4.010406 0.76563,-4.375 -1.09376,0.87501 -2.1146,1.421884 -3.0625,1.640625 -1.02085,0.218759 -1.56772,0.328134 -1.64063,0.328125 -0.65626,9e-6 -1.38542,-0.437491 -2.1875,-1.3125 -0.0729,-0.21874 0,-0.328115 0.21875,-0.328125 0.21875,0.07293 0.61979,0.182302 1.20313,0.328125 0.80207,10e-6 1.5677,-0.291656 2.29687,-0.875 1.31249,-1.312488 2.40624,-2.479153 3.28125,-3.5 -0.65626,0.218764 -1.53126,0.401056 -2.625,0.546875 -0.43751,1.4e-5 -0.94792,-0.03644 -1.53125,-0.109375 -0.58334,-0.0729 -1.09376,-0.182277 -1.53125,-0.328125 -0.65625,-0.218735 -0.98438,-0.401027 -0.98437,-0.546875 2.77082,-0.947901 5.46874,-1.60415 8.09375,-1.96875 0.87498,-1.385398 1.31248,-2.369772 1.3125,-2.953125 -2e-5,-0.072897 -0.47398,-0.8749793 -1.42188,-2.40625 l 0,-0.109375 z m 4.48438,16.078125 c 0.29164,0.07292 0.54685,0.03646 0.76562,-0.109375 0.36457,-0.364577 0.61977,-0.947909 0.76563,-1.75 0.0729,-0.437491 0.10935,-0.984366 0.10937,-1.640625 -2e-5,-0.510406 -0.14585,-0.802073 -0.4375,-0.875 -0.29168,-0.145823 -0.65627,-0.07291 -1.09375,0.21875 z"
     style="font-size:28px;font-variant:normal;font-stretch:normal;fill:#f2f2f2;font-family:HGPGyoshotai;-inkscape-font-specification:HGPGyoshotai"
     id="path4437" /></g></g></g></svg>
