<?xml version="1.0" encoding="UTF-8" standalone="no"?>
<!-- Generator: Adobe Illustrator 16.0.4, SVG Export Plug-In . SVG Version: 6.00 Build 0)  -->

<svg
   xmlns:dc="http://purl.org/dc/elements/1.1/"
   xmlns:cc="http://creativecommons.org/ns#"
   xmlns:rdf="http://www.w3.org/1999/02/22-rdf-syntax-ns#"
   xmlns:svg="http://www.w3.org/2000/svg"
   xmlns="http://www.w3.org/2000/svg"
   xmlns:sodipodi="http://sodipodi.sourceforge.net/DTD/sodipodi-0.dtd"
   xmlns:inkscape="http://www.inkscape.org/namespaces/inkscape"
   version="1.1"
   id="レイヤー_1"
   x="0px"
   y="0px"
   width="172"
   height="23"
   viewBox="0 0 172 23"
   enable-background="new 0 0 120 23"
   xml:space="preserve"
   inkscape:version="0.48.5 r10040"
   sodipodi:docname="kosi02.svg"><metadata
   id="metadata4427"><rdf:RDF><cc:Work
       rdf:about=""><dc:format>image/svg+xml</dc:format><dc:type
         rdf:resource="http://purl.org/dc/dcmitype/StillImage" /><dc:title /></cc:Work></rdf:RDF></metadata><defs
   id="defs4425" /><sodipodi:namedview
   pagecolor="#ffffff"
   bordercolor="#666666"
   borderopacity="1"
   objecttolerance="10"
   gridtolerance="10"
   guidetolerance="10"
   inkscape:pageopacity="0"
   inkscape:pageshadow="2"
   inkscape:window-width="1366"
   inkscape:window-height="706"
   id="namedview4423"
   showgrid="false"
   inkscape:zoom="5.075"
   inkscape:cx="72.563547"
   inkscape:cy="16.507389"
   inkscape:window-x="-8"
   inkscape:window-y="-8"
   inkscape:window-maximized="1"
   inkscape:current-layer="flowRoot3028" />





<text
   xml:space="preserve"
   style="font-size:13.42425632px;font-style:normal;font-weight:normal;line-height:125%;letter-spacing:0px;word-spacing:0px;fill:#f6f6f6;fill-opacity:1;stroke:none;font-family:Sans"
   x="6.7928081"
   y="12.422898"
   id="text4429"
   sodipodi:linespacing="125%"
   transform="scale(0.7536626,1.3268537)"><tspan
     sodipodi:role="line"
     x="6.7928081"
     y="12.422898"
     id="tspan4433"
     style="font-size:13px" /></text>



<flowRoot
   xml:space="preserve"
   id="flowRoot4945"
   style="font-size:11px;font-style:normal;font-weight:normal;line-height:125%;letter-spacing:0px;word-spacing:0px;fill:#000000;fill-opacity:1;stroke:none;font-family:Sans"><flowRegion
     id="flowRegion4947"><rect
       id="rect4949"
       width="392.31528"
       height="103.64532"
       x="32.118225"
       y="-121.23645" /></flowRegion><flowPara
     id="flowPara4951" /></flowRoot><g
   transform="translate(38.226602,-3.5467982)"
   style="font-size:20px;font-style:normal;font-variant:normal;font-weight:normal;font-stretch:normal;line-height:125%;letter-spacing:0px;word-spacing:0px;fill:#000000;fill-opacity:1;stroke:none;font-family:'蟇悟｣ｫ繝昴ャ繝暦ｼｰ';-inkscape-font-specification:'蟇悟｣ｫ繝昴ャ繝暦ｼｰ'"
   id="flowRoot3123"><g
     transform="translate(-38.226602,3.5467982)"
     style="font-size:11px;line-height:125%;fill:#000000;font-family:Sans"
     id="flowRoot3028"><path
       d="m 11.953125,-4.453125 c 2.43748,1.4062753 3.703103,2.5781491 3.796875,3.515625 0.09373,1.59377161 -0.0469,3.3750198 -0.421875,5.34375 1.781227,-0.187482 3.562475,-0.3281068 5.34375,-0.421875 l 1.96875,0.28125 c 1.12497,0.1875178 1.921845,0.3750176 2.390625,0.5625 0.937468,0.2812672 1.734342,0.8437666 2.390625,1.6875 C 27.609341,6.8906404 27.468717,7.1718901 27,7.359375 26.249968,7.7343895 25.265594,7.8750144 24.046875,7.78125 22.171847,7.4062649 20.062474,7.1718901 17.71875,7.078125 L 14.625,7.21875 c -0.84377,2.6250124 -1.921894,4.453136 -3.234375,5.484375 -1.218766,0.937509 -2.1562651,1.406258 -2.8125,1.40625 C 7.8281113,14.015633 7.3593617,13.875008 7.171875,13.6875 9.04686,12.75001 10.312484,10.734387 10.96875,7.640625 8.9062352,8.1093892 6.5156126,8.4843888 3.796875,8.765625 3.2343659,8.7656385 2.5781165,8.6250136 1.828125,8.34375 1.078118,8.0625142 -0.18750572,7.218765 -1.96875,5.8125 l 0,-0.28125 c 0.1874959,-0.093733 0.5156205,-0.046858 0.984375,0.140625 l 2.8125,0.140625 c 3.8437384,-0.2812333 6.9374853,-0.6093579 9.28125,-0.984375 0.187483,-0.9374816 0.187483,-2.578105 0,-4.921875 C 10.546859,-1.4999762 10.124984,-2.3437254 9.84375,-2.625 9.4687346,-2.9999747 9.2343599,-3.3280994 9.140625,-3.609375 c 0.3749846,-0.3749738 0.8437341,-0.6093485 1.40625,-0.703125 0.656233,-0.1874732 1.124982,-0.2343482 1.40625,-0.140625 z m 6.46875,16.875 c 0.562475,0.28126 1.218724,0.609384 1.96875,0.984375 1.406222,0.656258 2.062472,1.265633 1.96875,1.828125 -0.843777,1.406256 -1.734402,2.625004 -2.671875,3.65625 -0.843775,0.843753 -1.453149,1.453127 -1.828125,1.828125 0.937475,0.656251 1.54685,1.171875 1.828125,1.546875 0.281224,0.46875 0.374974,0.843749 0.28125,1.125 -0.09378,0.281249 -0.4219,0.421873 -0.984375,0.421875 -4.218771,-0.468751 -6.703143,-1.359375 -7.453125,-2.671875 -0.187517,-0.843748 -0.187517,-1.359373 0,-1.546875 l 0.703125,-0.5625 c 0.937481,-0.749996 1.68748,-1.218746 2.25,-1.40625 0.562479,-0.374995 1.171853,-0.984369 1.828125,-1.828125 0.09373,-0.187493 0.187478,-0.421868 0.28125,-0.703125 -1.406271,0.09376 -2.62502,0.187507 -3.65625,0.28125 -1.500017,0.09376 -2.671891,0.656256 -3.515625,1.6875 -0.1875151,0.375005 -0.2343901,0.796879 -0.140625,1.265625 0.4687343,0.750003 0.937484,1.875002 1.40625,3.375 -0.562516,0.75 -1.0312656,1.124999 -1.40625,1.125 C 7.6874864,22.171875 6.6562374,21.328126 6.1875,20.296875 5.8124883,19.453128 5.0156141,18.046879 3.796875,16.078125 3.3281158,15.234382 3.046866,14.625008 2.953125,14.25 3.2343659,13.968758 3.7499903,13.828133 4.5,13.828125 c 0.562489,8e-6 0.9843636,0.04688 1.265625,0.140625 0.1874881,0.09376 0.281238,0.187508 0.28125,0.28125 -0.4687615,0.281258 -0.6093863,0.562507 -0.421875,0.84375 0.8437376,0.468757 1.7812367,1.218756 2.8125,2.25 0.2812354,-0.374995 0.5624851,-0.796869 0.84375,-1.265625 1.218734,-1.406242 2.718732,-2.343741 4.5,-2.8125 1.687479,-0.56249 3.234352,-0.84374 4.640625,-0.84375 z"
       style="font-size:36px;font-variant:normal;font-stretch:normal;font-family:HGGyoshotai;-inkscape-font-specification:HGGyoshotai"
       id="path3809"
       inkscape:connector-curvature="0" /><path
       d="m 41.0625,-2.765625 c 0.281239,2.5e-5 0.749988,0.0469 1.40625,0.140625 0.562487,0.093775 0.984362,0.4218995 1.265625,0.984375 0.09374,0.3750235 0.09374,0.75002316 0,1.125 -1.125013,1.40627138 -3.046886,3.2812695 -5.765625,5.625 C 38.999991,4.9218923 39.84374,4.7812675 40.5,4.6875 c 0.749989,-0.093732 1.265613,0.1406424 1.546875,0.703125 l 0.140625,0.84375 c -0.656261,1.1250149 -1.406261,2.1562639 -2.25,3.09375 0.843739,-0.2812368 1.593739,-0.4218616 2.25,-0.421875 l 0.84375,0.28125 c 0.281237,0.3750127 0.374987,0.7031374 0.28125,0.984375 -0.562513,1.031261 -1.359387,1.828135 -2.390625,2.390625 -1.03126,0.562509 -2.718758,1.406258 -5.0625,2.53125 -0.187506,7e-6 -0.281255,-0.04687 -0.28125,-0.140625 1.312493,-0.749992 2.765617,-2.015616 4.359375,-3.796875 -1.781258,0.468761 -2.859382,0.65626 -3.234375,0.5625 l -0.84375,-0.5625 c -0.375005,-0.281239 -0.562505,-0.656238 -0.5625,-1.125 -5e-6,-0.4687373 0.374994,-0.9374868 1.125,-1.40625 0.937493,-0.5624858 1.640617,-1.1249852 2.109375,-1.6875 l -0.5625,0 C 37.593742,6.7500155 36.890618,6.9375153 35.859375,7.5 35.01562,7.8750144 34.499996,7.9687643 34.3125,7.78125 33.843746,7.4062649 33.421872,6.8437654 33.046875,6.09375 l 0.28125,-0.703125 c 2.531244,-2.4374807 4.640617,-4.45310367 6.328125,-6.046875 -0.375009,-0.4687266 -0.609384,-0.7968513 -0.703125,-0.984375 0.374991,-0.7499753 1.078115,-1.124975 2.109375,-1.125 z m 12.09375,0.421875 c 0.562476,2.46e-5 1.078101,0.1406495 1.546875,0.421875 0.468725,0.2812739 0.749975,0.5625236 0.84375,0.84375 0.187474,0.28127306 0.234349,0.70314764 0.140625,1.265625 -0.375025,0.2812718 -0.843775,0.56252152 -1.40625,0.84375 -0.656274,0.281271 -1.171898,0.5156457 -1.546875,0.703125 0.187477,0.09377 0.374977,0.515645 0.5625,1.265625 -2.3e-5,0.093769 0.09373,0.3281439 0.28125,0.703125 l 0.5625,1.6875 C 54.421851,5.296892 54.749975,5.1562671 55.125,4.96875 55.968724,4.6875176 56.765598,4.5937677 57.515625,4.6875 58.359347,4.8750174 58.687471,5.2031421 58.5,5.671875 58.124972,6.4218908 57.234348,7.0312652 55.828125,7.5 l -0.5625,0.28125 c 1.124974,2.531262 2.296848,4.734385 3.515625,6.609375 1.31247,2.062506 2.484344,3.515629 3.515625,4.359375 0.187468,0.187503 0.374967,0.04688 0.5625,-0.421875 l 0.421875,-2.25 c -0.187533,-1.124993 -0.375033,-2.156242 -0.5625,-3.09375 0.656217,0.656259 1.218716,1.640633 1.6875,2.953125 0.374965,1.031255 0.562465,2.156254 0.5625,3.375 -0.09378,0.375003 -0.187535,0.796877 -0.28125,1.265625 -0.09378,0.562501 -0.328159,1.21875 -0.703125,1.96875 -0.281284,0.1875 -0.562533,0.281249 -0.84375,0.28125 C 62.671842,22.828124 61.874968,22.3125 60.75,21.28125 59.531221,20.250002 57.515598,17.48438 54.703125,12.984375 52.640602,14.578133 49.96873,16.218756 46.6875,17.90625 L 44.578125,18.1875 C 43.453112,17.437505 42.937487,16.781255 43.03125,16.21875 L 43.3125,15.375 c 0.656236,-1.312492 1.124986,-2.71874 1.40625,-4.21875 C 44.906235,9.9375123 44.999985,8.9062634 45,8.0625 44.999985,7.218765 44.906235,6.5625157 44.71875,6.09375 44.531236,5.5312667 44.249986,5.1093922 43.875,4.828125 43.499987,4.5468927 43.359362,4.312518 43.453125,4.125 c 0.09374,0.093768 0.468736,0.140643 1.125,0.140625 C 45.984359,4.8281424 47.062483,5.9062664 47.8125,7.5 48.281232,7.4062649 48.703106,7.312515 49.078125,7.21875 49.828105,7.0312652 50.718729,6.7500155 51.75,6.375 51.093729,4.9687673 50.624979,3.7500185 50.34375,2.71875 L 49.078125,3 46.6875,3.140625 l -0.28125,-0.28125 1.125,-0.84375 c 1.593731,-1.03122872 2.81248,-1.92185283 3.65625,-2.671875 -0.375021,-0.7499763 -0.609395,-1.1718509 -0.703125,-1.265625 0.562479,2.42e-5 1.453103,-0.1406007 2.671875,-0.421875 z m -1.828125,11.25 c 0.468728,1.34e-5 0.937478,0.1406382 1.40625,0.421875 -0.09377,-0.1874869 -0.187522,-0.4218616 -0.28125,-0.703125 -0.281272,1.36e-5 -0.656272,0.093763 -1.125,0.28125 z M 50.0625,9.328125 c -0.656269,-0.093737 -1.359394,1.29e-5 -2.109375,0.28125 L 46.6875,14.25 46.546875,14.8125 c 3.09373,-1.124991 5.343728,-2.203115 6.75,-3.234375 0.374976,-0.656239 0.187477,-1.124988 -0.5625,-1.40625 C 51.796853,9.6093877 50.906229,9.3281379 50.0625,9.328125 z m -7.875,4.78125 c 0.562487,-0.374991 1.171862,-0.843741 1.828125,-1.40625 -0.375014,1.218758 -0.750013,2.062507 -1.125,2.53125 C 38.109367,19.171878 35.01562,21.093751 33.609375,21 32.671872,20.531252 31.968748,19.875002 31.5,19.03125 c -0.375001,-0.562496 -0.375001,-1.031246 0,-1.40625 0.468748,-0.656245 1.218747,-0.468745 2.25,0.5625 2.718744,-1.031245 4.968741,-2.062494 6.75,-3.09375 0.656239,-0.374992 1.218738,-0.703117 1.6875,-0.984375 z"
       style="font-size:36px;font-variant:normal;font-stretch:normal;font-family:HGGyoshotai;-inkscape-font-specification:HGGyoshotai"
       id="path3811"
       inkscape:connector-curvature="0" /><path
       d="m 83.390625,7.21875 c 1.031232,1.5e-5 2.062481,0.5625145 3.09375,1.6875 -0.09377,0.375013 -0.140645,0.7968876 -0.140625,1.265625 -2e-5,0.562512 -0.28127,1.265636 -0.84375,2.109375 -0.187519,0.09376 -0.515644,0.140635 -0.984375,0.140625 -1.500017,10e-6 -2.718766,-1.265614 -3.65625,-3.796875 -0.187515,-0.8437355 0.656235,-1.312485 2.53125,-1.40625 z"
       style="font-size:36px;font-variant:normal;font-stretch:normal;font-family:HGGyoshotai;-inkscape-font-specification:HGGyoshotai"
       id="path3813"
       inkscape:connector-curvature="0" /><path
       d="m 119.95313,-4.453125 c 2.43747,1.4062753 3.7031,2.5781491 3.79687,3.515625 0.0937,1.59377161 -0.0469,3.3750198 -0.42187,5.34375 1.78122,-0.187482 3.56247,-0.3281068 5.34374,-0.421875 l 1.96875,0.28125 c 1.12498,0.1875178 1.92185,0.3750176 2.39063,0.5625 0.93747,0.2812672 1.73434,0.8437666 2.39062,1.6875 0.18747,0.3750154 0.0468,0.6562651 -0.42187,0.84375 -0.75003,0.3750145 -1.73441,0.5156394 -2.95313,0.421875 -1.87502,-0.3749851 -3.9844,-0.6093599 -6.32812,-0.703125 L 122.625,7.21875 c -0.84377,2.6250124 -1.92189,4.453136 -3.23437,5.484375 -1.21877,0.937509 -2.15627,1.406258 -2.8125,1.40625 -0.75002,-0.09374 -1.21877,-0.234367 -1.40625,-0.421875 1.87498,-0.93749 3.1406,-2.953113 3.79687,-6.046875 -2.06251,0.4687642 -4.45314,0.8437638 -7.17187,1.125 -0.56251,1.35e-5 -1.21876,-0.1406114 -1.96875,-0.421875 -0.75001,-0.2812358 -2.01564,-1.124985 -3.79688,-2.53125 l 0,-0.28125 c 0.1875,-0.093733 0.51562,-0.046858 0.98438,0.140625 l 2.8125,0.140625 c 3.84373,-0.2812333 6.93748,-0.6093579 9.28125,-0.984375 0.18748,-0.9374816 0.18748,-2.578105 0,-4.921875 -0.56252,-1.4062262 -0.9844,-2.2499754 -1.26563,-2.53125 -0.37502,-0.3749747 -0.60939,-0.7030994 -0.70312,-0.984375 0.37498,-0.3749738 0.84373,-0.6093485 1.40625,-0.703125 0.65623,-0.1874732 1.12498,-0.2343482 1.40625,-0.140625 z m 6.46875,16.875 c 0.56247,0.28126 1.21872,0.609384 1.96874,0.984375 1.40623,0.656258 2.06248,1.265633 1.96875,1.828125 -0.84377,1.406256 -1.7344,2.625004 -2.67187,3.65625 -0.84377,0.843753 -1.45315,1.453127 -1.82812,1.828125 0.93747,0.656251 1.54684,1.171875 1.82812,1.546875 0.28122,0.46875 0.37497,0.843749 0.28125,1.125 -0.0938,0.281249 -0.4219,0.421873 -0.98437,0.421875 -4.21878,-0.468751 -6.70315,-1.359375 -7.45313,-2.671875 -0.18752,-0.843748 -0.18752,-1.359373 0,-1.546875 l 0.70313,-0.5625 c 0.93748,-0.749996 1.68748,-1.218746 2.25,-1.40625 0.56247,-0.374995 1.17185,-0.984369 1.82812,-1.828125 0.0937,-0.187493 0.18748,-0.421868 0.28125,-0.703125 -1.40627,0.09376 -2.62502,0.187507 -3.65625,0.28125 -1.50002,0.09376 -2.67189,0.656256 -3.51562,1.6875 -0.18752,0.375005 -0.2344,0.796879 -0.14063,1.265625 0.46873,0.750003 0.93748,1.875002 1.40625,3.375 -0.56252,0.75 -1.03127,1.124999 -1.40625,1.125 -1.59376,-0.65625 -2.62501,-1.499999 -3.09375,-2.53125 -0.37501,-0.843747 -1.17189,-2.249996 -2.39062,-4.21875 -0.46876,-0.843743 -0.75001,-1.453117 -0.84375,-1.828125 0.28124,-0.281242 0.79686,-0.421867 1.54687,-0.421875 0.56249,8e-6 0.98436,0.04688 1.26563,0.140625 0.18748,0.09376 0.28123,0.187508 0.28125,0.28125 -0.46877,0.281258 -0.60939,0.562507 -0.42188,0.84375 0.84374,0.468757 1.78124,1.218756 2.8125,2.25 0.28124,-0.374995 0.56249,-0.796869 0.84375,-1.265625 1.21873,-1.406242 2.71873,-2.343741 4.5,-2.8125 1.68748,-0.56249 3.23435,-0.84374 4.64063,-0.84375 z"
       style="font-size:36px;font-variant:normal;font-stretch:normal;font-family:HGGyoshotai;-inkscape-font-specification:HGGyoshotai"
       id="path3815"
       inkscape:connector-curvature="0" /><path
       d="m 154.125,-6.421875 c 1.12498,0.093779 2.24998,0.1875285 3.375,0.28125 0.93748,0.2812781 1.59373,0.8437776 1.96875,1.6875 0.28123,0.750026 -0.2344,2.3437744 -1.54688,4.78125 2.34373,2.194e-5 5.29685,0.0937718 8.85938,0.28125 0.37497,2.166e-5 0.79685,0.0468966 1.26562,0.140625 0.74997,2.152e-5 1.54685,0.3750211 2.39063,1.125 1.03122,1.2187692 0.84372,1.9218935 -0.5625,2.109375 -0.84378,0.093768 -1.96878,-0.093732 -3.375,-0.5625 -0.65628,-0.2812309 -1.40628,-0.5156056 -2.25,-0.703125 -0.84378,-0.1874803 -1.82815,-0.2812302 -2.95313,-0.28125 l -2.25,0 c -1.03126,0.09377 -1.82814,0.2343946 -2.39062,0.421875 -1.21877,1.5937678 -2.53127,3.3281411 -3.9375,5.203125 0.65623,0.5625136 1.03123,1.5468877 1.125,2.953125 1.21873,-1.0312377 2.43748,-1.8749869 3.65625,-2.53125 l 0,-3.09375 -0.84375,-0.984375 0,-0.28125 0.98437,-0.28125 c 0.74998,-0.093732 1.45311,0.2343932 2.10938,0.984375 0.28123,0.2812672 0.42185,1.1250163 0.42187,2.53125 1.78123,-0.3749847 2.99998,-0.2343599 3.65625,0.421875 1.31248,0.5625139 1.87498,1.6406378 1.6875,3.234375 -0.28127,2.343759 -0.7969,4.359382 -1.54687,6.046875 -0.75003,1.125004 -1.5469,1.640629 -2.39063,1.546875 -0.75002,-0.187496 -1.31252,-0.562496 -1.6875,-1.125 l 0,2.25 c -2e-5,1.312501 -0.0469,2.25 -0.14062,2.8125 -2e-5,0.281249 -0.0938,0.843749 -0.28125,1.6875 -0.28127,0.749997 -0.56252,1.124997 -0.84375,1.125 -1.12502,0.187497 -1.68752,-0.656252 -1.6875,-2.53125 0.18748,-2.437498 0.28123,-5.10937 0.28125,-8.015625 l -1.26563,-1.546875 c -0.18751,-0.281241 -0.32814,-0.468741 -0.42187,-0.5625 -2e-5,-0.09374 0.0937,-0.18749 0.28125,-0.28125 0.28123,0.468759 0.74998,0.843759 1.40625,1.125 l 0.14062,-3.515625 c -1.03126,0.750011 -1.78126,1.453136 -2.25,2.109375 -0.37501,0.46876 -0.70314,1.312509 -0.98437,2.53125 -0.28127,0.937507 -0.46877,1.640631 -0.5625,2.109375 -2e-5,0.187505 -0.0938,0.281255 -0.28125,0.28125 -0.37501,5e-6 -0.79689,-0.23437 -1.26563,-0.703125 -0.46876,-0.468744 -0.70313,-1.078118 -0.70312,-1.828125 l 0,-0.421875 c 1.12499,-3.281239 1.45311,-5.1562367 0.98437,-5.625 -1.40626,1.1250127 -2.71876,1.828137 -3.9375,2.109375 -1.3125,0.281261 -2.01563,0.421886 -2.10937,0.421875 -0.84376,1.1e-5 -1.78126,-0.562488 -2.8125,-1.6875 -0.0938,-0.2812368 -1e-5,-0.4218616 0.28125,-0.421875 0.28124,0.093763 0.79687,0.2343881 1.54687,0.421875 1.03125,1.29e-5 2.01562,-0.3749867 2.95313,-1.125 1.68749,-1.6874843 3.09374,-3.1874828 4.21875,-4.5 -0.84376,0.2812683 -1.96876,0.515643 -3.375,0.703125 -0.56251,1.79e-5 -1.21876,-0.046857 -1.96875,-0.140625 -0.75001,-0.093732 -1.40626,-0.2343568 -1.96875,-0.421875 -0.84376,-0.2812313 -1.26563,-0.5156061 -1.26563,-0.703125 3.5625,-1.2187297 7.03124,-2.0624788 10.40625,-2.53125 1.12499,-1.7812266 1.68749,-3.0468503 1.6875,-3.796875 -1e-5,-0.093724 -0.60939,-1.1249734 -1.82812,-3.09375 l 0,-0.140625 z M 159.89062,14.25 c 0.37498,0.09376 0.70311,0.04688 0.98438,-0.140625 0.46873,-0.468741 0.79685,-1.218741 0.98437,-2.25 C 161.9531,11.296886 161.99998,10.593762 162,9.75 c -2e-5,-0.6562368 -0.18752,-1.0312365 -0.5625,-1.125 -0.37502,-0.1874862 -0.84377,-0.093736 -1.40625,0.28125 z"
       style="font-size:36px;font-variant:normal;font-stretch:normal;font-family:HGGyoshotai;-inkscape-font-specification:HGGyoshotai"
       id="path3817"
       inkscape:connector-curvature="0" /></g></g></svg>
