<?xml version="1.0" encoding="UTF-8" standalone="no"?>
<!-- Generator: Adobe Illustrator 16.0.4, SVG Export Plug-In . SVG Version: 6.00 Build 0)  -->

<svg
   xmlns:dc="http://purl.org/dc/elements/1.1/"
   xmlns:cc="http://creativecommons.org/ns#"
   xmlns:rdf="http://www.w3.org/1999/02/22-rdf-syntax-ns#"
   xmlns:svg="http://www.w3.org/2000/svg"
   xmlns="http://www.w3.org/2000/svg"
   xmlns:sodipodi="http://sodipodi.sourceforge.net/DTD/sodipodi-0.dtd"
   xmlns:inkscape="http://www.inkscape.org/namespaces/inkscape"
   version="1.1"
   id="レイヤー_1"
   x="0px"
   y="0px"
   width="172"
   height="23"
   viewBox="0 0 172 23"
   enable-background="new 0 0 120 23"
   xml:space="preserve"
   inkscape:version="0.48.5 r10040"
   sodipodi:docname="kosi02.svg"><metadata
   id="metadata4427"><rdf:RDF><cc:Work
       rdf:about=""><dc:format>image/svg+xml</dc:format><dc:type
         rdf:resource="http://purl.org/dc/dcmitype/StillImage" /><dc:title /></cc:Work></rdf:RDF></metadata><defs
   id="defs4425" /><sodipodi:namedview
   pagecolor="#ffffff"
   bordercolor="#666666"
   borderopacity="1"
   objecttolerance="10"
   gridtolerance="10"
   guidetolerance="10"
   inkscape:pageopacity="0"
   inkscape:pageshadow="2"
   inkscape:window-width="1366"
   inkscape:window-height="706"
   id="namedview4423"
   showgrid="false"
   inkscape:zoom="5.075"
   inkscape:cx="72.563547"
   inkscape:cy="16.507389"
   inkscape:window-x="-8"
   inkscape:window-y="-8"
   inkscape:window-maximized="1"
   inkscape:current-layer="flowRoot3123" />





<text
   xml:space="preserve"
   style="font-size:13.42425632px;font-style:normal;font-weight:normal;line-height:125%;letter-spacing:0px;word-spacing:0px;fill:#f6f6f6;fill-opacity:1;stroke:none;font-family:Sans"
   x="6.7928081"
   y="12.422898"
   id="text4429"
   sodipodi:linespacing="125%"
   transform="scale(0.7536626,1.3268537)"><tspan
     sodipodi:role="line"
     x="6.7928081"
     y="12.422898"
     id="tspan4433"
     style="font-size:13px" /></text>



<flowRoot
   xml:space="preserve"
   id="flowRoot4945"
   style="font-size:11px;font-style:normal;font-weight:normal;line-height:125%;letter-spacing:0px;word-spacing:0px;fill:#000000;fill-opacity:1;stroke:none;font-family:Sans"><flowRegion
     id="flowRegion4947"><rect
       id="rect4949"
       width="392.31528"
       height="103.64532"
       x="32.118225"
       y="-121.23645" /></flowRegion><flowPara
     id="flowPara4951" /></flowRoot><g
   transform="translate(38.226602,-3.5467982)"
   style="font-size:20px;font-style:normal;font-variant:normal;font-weight:normal;font-stretch:normal;line-height:125%;letter-spacing:0px;word-spacing:0px;fill:#000000;fill-opacity:1;stroke:none;font-family:'蟇悟｣ｫ繝昴ャ繝暦ｼｰ';-inkscape-font-specification:'蟇悟｣ｫ繝昴ャ繝暦ｼｰ'"
   id="flowRoot3123"><path
     style="font-size:medium;font-style:normal;font-variant:normal;font-weight:normal;font-stretch:normal;text-indent:0;text-align:start;text-decoration:none;line-height:125%;letter-spacing:0;word-spacing:0;text-transform:none;direction:ltr;block-progression:tb;writing-mode:lr-tb;text-anchor:start;baseline-shift:baseline;color:#000000;fill:#c8c8c8;fill-opacity:1;fill-rule:nonzero;stroke:none;stroke-width:1;marker:none;visibility:visible;display:inline;overflow:visible;enable-background:accumulate;font-family:'蟇悟｣ｫ繝昴ャ繝暦ｼｰ';-inkscape-font-specification:'蟇悟｣ｫ繝昴ャ繝暦ｼｰ'"
     d="M 10.59375,4.625 C 9.9847867,4.6250195 9.4414985,4.7502987 9.125,5.1875 8.8597356,5.5539419 8.7424643,6.0306473 8.6875,6.625 c -0.0011,0.011847 0.00105,0.019301 0,0.03125 -0.050004,0.3914361 -0.08526,0.7884895 -0.09375,1.1875 -0.00564,0.2647341 0.00186,0.6442754 0,1 -0.4947639,0.012264 -1.000507,0.018966 -1.375,0.03125 -0.5138131,0.016879 -1.0104636,0.060385 -1.5,0.09375 C 5.0505363,8.9854782 4.4921649,8.9832298 4.03125,9 c -0.4599711,0.016761 -0.8899056,0.075145 -1.3125,0.125 -0.00997,0.00118 -0.021297,-0.0012 -0.03125,0 -0.4834132,0.041107 -0.9310119,0.156858 -1.25,0.4375 -0.3550173,0.3123922 -0.46875095,0.799034 -0.46875,1.3125 -9.4e-7,0.510276 0.1248147,0.97375 0.4375,1.3125 0.3267696,0.354047 0.8134668,0.468762 1.34375,0.46875 0.3905596,10e-6 0.7737224,-0.01422 1.15625,-0.03125 0.3782558,-0.01682 0.8530401,-0.02904 1.4375,-0.0625 0.5475675,-0.03319 1.1088951,-0.06904 1.65625,-0.09375 0.4091778,-0.01846 0.9856926,-0.03924 1.5625,-0.0625 l 0,1.15625 c -5.1e-6,0.281393 0.024576,0.559168 0.03125,0.84375 L 7.3125,14.5 C 7.1680666,14.343463 7.0766647,14.132195 6.875,14.0625 6.5871907,13.963059 6.2625776,13.906259 5.90625,13.90625 c -0.448497,9e-6 -0.8495058,0.09514 -1.1875,0.3125 -0.3465487,0.222874 -0.5469157,0.610612 -0.65625,1.03125 -0.00317,0.0091 0.00312,0.02215 0,0.03125 -0.00226,0.0092 0.00216,0.02205 0,0.03125 -0.00136,0.0058 -0.02993,-0.0058 -0.03125,0 -0.121194,0.36414 -0.2156974,0.759092 -0.25,1.1875 -0.034683,0.43307 -0.031254,0.909978 -0.03125,1.4375 l 0,1.3125 c -3.7e-6,1.491937 0.1386195,2.573551 0.625,3.28125 0.536904,0.781231 1.6141643,0.999999 3.09375,1 0.8991116,-1e-6 2.1029533,-0.04129 3.625,-0.125 1.403266,-0.07718 2.236524,-0.136515 2.71875,-0.15625 0.125684,0.25061 0.183241,0.541338 0.4375,0.65625 0.353978,0.159996 0.771727,0.218748 1.25,0.21875 0.395497,-2e-6 0.765619,-0.08025 1.0625,-0.3125 0.287476,-0.224935 0.486373,-0.561281 0.625,-0.9375 l 0,-0.03125 c 0.0916,-0.329359 0.182737,-0.671707 0.21875,-1.03125 0.03573,-0.357078 0.03123,-0.786356 0.03125,-1.28125 -1.7e-5,-0.383288 -1.7e-5,-0.675047 0,-0.875 -1.7e-5,-0.199948 -1.7e-5,-0.491707 0,-0.875 -1.7e-5,-1.702486 -0.127949,-2.833956 -0.625,-3.5625 -0.275799,-0.4042 -0.729646,-0.632094 -1.28125,-0.78125 -0.551604,-0.149156 -1.211796,-0.218746 -2.03125,-0.21875 -0.255467,0 -0.50249,-0.0085 -0.75,0 -0.117785,0.0041 -0.314389,-0.006 -0.46875,0 -2e-6,-0.334012 -7e-6,-0.701292 0,-0.90625 -7e-6,-0.212014 -2e-6,-0.594459 0,-0.9375 l 0.875,0 0.03125,0 c 0.596654,-0.01614 1.486547,-0.01005 2.65625,0.03125 1.177783,0.04161 2.016457,0.06251 2.5625,0.0625 0.493317,1.2e-5 0.95588,-0.12603 1.28125,-0.4375 0.330926,-0.316814 0.468727,-0.784507 0.46875,-1.28125 -2.1e-5,-0.582581 -0.03344,-1.0153903 -0.375,-1.375 -0.322299,-0.3391957 -0.76282,-0.4454182 -1.3125,-0.5 -0.529649,-0.051322 -1.063556,-0.053933 -1.59375,-0.0625 -0.520764,-0.0084 -1.169107,-0.031237 -1.9375,-0.03125 -0.699879,1.3e-5 -1.220736,1.3e-5 -1.5625,0 -0.22321,8.5e-6 -0.631193,2.6e-6 -1,0 C 12.39604,8.3679152 12.420376,7.9440322 12.4375,7.625 12.462946,7.1505523 12.468739,6.6766797 12.46875,6.25 12.468737,5.7135636 12.32153,5.2195857 11.90625,4.9375 11.549317,4.6951211 11.102459,4.6250193 10.59375,4.625 z m 0,1 c 0.391335,1.49e-5 0.640197,0.050437 0.75,0.125 0.05141,0.034924 0.124991,0.1364042 0.125,0.5 -1.1e-5,0.4066847 -0.0067,0.8539539 -0.03125,1.3125 -0.02509,0.4673994 -0.06037,1.0201837 -0.09375,1.6875 l -0.03125,0.53125 0.53125,0 c 0.68318,1.3e-5 1.189421,1.3e-5 1.53125,0 0.341802,1.3e-5 0.862611,1.3e-5 1.5625,0 0.764779,1.3e-5 1.424704,0.022982 1.9375,0.03125 0.503302,0.00813 0.996899,0.01375 1.5,0.0625 0.450446,0.044728 0.661535,0.193062 0.65625,0.1875 -0.02463,-0.02593 0.124983,0.20402 0.125,0.6875 -1.5e-5,0.336613 -0.08682,0.496034 -0.15625,0.5625 -0.07506,0.07185 -0.253771,0.156258 -0.59375,0.15625 -0.520073,10e-6 -1.358805,-0.02107 -2.53125,-0.0625 -1.180585,-0.04168 -2.08252,-0.04846 -2.71875,-0.03125 l -1.375,0 -0.5,0 0,0.5 c -1.1e-5,0.633152 -1.1e-5,1.112379 0,1.4375 -1.1e-5,0.32514 -1.1e-5,0.787683 0,1.4375 l 0,0.53125 L 11.8125,15.25 c 0.399249,-0.01665 0.729002,-0.02297 0.96875,-0.03125 0.235862,-0.0081 0.474517,0 0.71875,0 0.764191,3e-6 1.361887,0.04285 1.78125,0.15625 0.419363,0.113397 0.636257,0.285352 0.71875,0.40625 0.219469,0.321682 0.437483,1.369164 0.4375,3 -1.7e-5,0.383315 -1.7e-5,0.67497 0,0.875 -1.7e-5,0.200035 -1.7e-5,0.49169 0,0.875 -1.7e-5,0.471906 -2.84e-4,0.878076 -0.03125,1.1875 -0.02965,0.295969 -0.08524,0.550541 -0.15625,0.8125 -0.0026,0.0097 0.0027,0.02157 0,0.03125 -0.092,0.236698 -0.221012,0.397165 -0.3125,0.46875 -0.08645,0.06763 -0.199889,0.09375 -0.4375,0.09375 -0.388455,-2e-6 -0.680992,-0.05143 -0.84375,-0.125 -0.09487,-0.04288 -0.103003,-0.0476 -0.125,-0.28125 L 14.46875,22.25 14,22.25 c -0.460101,0.01705 -1.451157,0.07278 -2.96875,0.15625 -1.5114171,0.08312 -2.6948628,0.124999 -3.5625,0.125 -1.3540841,-1e-6 -2.0536774,-0.308087 -2.25,-0.59375 C 4.9718871,21.578307 4.7499965,20.657643 4.75,19.25 l 0,-1.3125 c -3.5e-6,-0.505996 -8.067e-4,-0.974726 0.03125,-1.375 0.030504,-0.380964 0.118559,-0.714092 0.21875,-1 l 0,-0.03125 c 0.064324,-0.282721 0.1499489,-0.404405 0.25,-0.46875 0.1283052,-0.08251 0.3381356,-0.156243 0.65625,-0.15625 0.277613,7e-6 0.5106979,0.04346 0.65625,0.09375 0.080277,0.02774 0.1131122,0.0588 0.1875,0.21875 L 6.90625,15.53125 7.25,15.5 9.125,15.375 9.625,15.34375 9.59375,14.875 C 9.5772827,14.431034 9.5624921,13.997899 9.5625,13.5625 l 0,-1.6875 0,-0.5 -0.5,0 c -0.8506509,0.03341 -1.5735757,0.06887 -2.125,0.09375 -0.5525103,0.02495 -1.1035675,0.06025 -1.65625,0.09375 -0.5817267,0.0333 -1.0658446,0.04598 -1.4375,0.0625 -0.3673968,0.01635 -0.7177132,0.03126 -1.09375,0.03125 -0.3697854,8e-6 -0.5517886,-0.07693 -0.625,-0.15625 -0.0873,-0.09458 -0.1562507,-0.268554 -0.15625,-0.625 -7e-7,-0.35321 0.094599,-0.508251 0.15625,-0.5625 0.090553,-0.07967 0.2866545,-0.190282 0.65625,-0.21875 l 0.03125,0 C 3.2141597,10.045516 3.6169794,10.016235 4.0625,10 4.5179185,9.9834298 5.0843831,9.9854132 5.75,9.96875 l 0.03125,0 C 6.2584992,9.9362225 6.7473621,9.8915122 7.25,9.875 7.7558039,9.8584089 8.3616644,9.8604195 9.09375,9.84375 l 0.5,-0.03125 0,-0.46875 c -8.5e-6,-0.5978452 -0.00823,-1.1137886 0,-1.5 C 9.6017037,7.4699426 9.6398125,7.1151683 9.6875,6.75 l 0,-0.03125 C 9.7335979,6.1966064 9.8580993,5.8596858 9.9375,5.75 9.9709183,5.7038369 10.135799,5.6250147 10.59375,5.625 z m 2.625,11 c -0.891261,5e-6 -1.817771,0.02048 -2.75,0.0625 -0.9260195,0.04175 -2.0707128,0.120751 -3.4375,0.1875 l -0.46875,0 0,0.5 c -5.8e-6,0.227597 0.00172,0.576468 -0.03125,1.0625 -0.033759,0.497452 -0.062506,0.884144 -0.0625,1.15625 -7.5e-6,0.409437 0.036815,0.775579 0.34375,1.0625 0.3112864,0.291026 0.659663,0.312502 1.09375,0.3125 1.2378177,2e-6 2.346581,-0.02887 3.3125,-0.0625 0.970184,-0.03377 1.929768,-0.08609 2.875,-0.1875 l 0.4375,-0.0625 0,-0.4375 c -1.3e-5,-0.227101 0.02297,-0.574367 0.03125,-1.03125 0.0083,-0.459868 -10e-6,-0.823359 0,-1.0625 -1.5e-5,-0.430352 -0.01,-0.779239 -0.25,-1.09375 -0.265923,-0.348344 -0.67629,-0.406244 -1.09375,-0.40625 z m 0,1 c 0.282384,4e-6 0.330675,0.09599 0.28125,0.03125 -0.02357,-0.03089 0.06249,0.132508 0.0625,0.46875 -10e-6,0.227168 0.0083,0.574375 0,1.03125 -0.0047,0.257162 -0.02917,0.406207 -0.03125,0.59375 -0.77095,0.07319 -1.55483,0.128791 -2.34375,0.15625 -0.951011,0.03311 -2.0524507,0.0625 -3.28125,0.0625 -0.3325284,2e-6 -0.4677126,-0.119962 -0.40625,-0.0625 0.057085,0.05336 -0.031255,-0.02206 -0.03125,-0.3125 -5.5e-6,-0.227564 0.029515,-0.607716 0.0625,-1.09375 0.020633,-0.30414 0.023066,-0.469954 0.03125,-0.6875 1.1274609,-0.05465 2.1707171,-0.08902 2.96875,-0.125 0.917927,-0.04138 1.811973,-0.06249 2.6875,-0.0625 z"
     id="path3008"
     inkscape:connector-curvature="0" /><path
     style="font-size:medium;font-style:normal;font-variant:normal;font-weight:normal;font-stretch:normal;text-indent:0;text-align:start;text-decoration:none;line-height:125%;letter-spacing:0;word-spacing:0;text-transform:none;direction:ltr;block-progression:tb;writing-mode:lr-tb;text-anchor:start;baseline-shift:baseline;color:#000000;fill:#c8c8c8;fill-opacity:1;fill-rule:nonzero;stroke:none;stroke-width:1;marker:none;visibility:visible;display:inline;overflow:visible;enable-background:accumulate;font-family:'蟇悟｣ｫ繝昴ャ繝暦ｼｰ';-inkscape-font-specification:'蟇悟｣ｫ繝昴ャ繝暦ｼｰ'"
     d="m 25.28125,4.75 c -0.251671,2.35e-5 -0.499995,0.033037 -0.71875,0.15625 -0.204852,0.1154277 -0.371395,0.302252 -0.5,0.5 C 24.050328,5.4249654 24.011542,5.418312 24,5.4375 l 0.03125,0.03125 C 23.626821,6.0021633 23.185412,6.8478882 22.625,8.125 c -0.575718,1.3120098 -0.906253,2.174626 -0.90625,2.84375 -3e-6,0.533374 0.273324,1.045919 0.75,1.25 0.290085,0.124217 0.656311,0.162266 1.03125,0.1875 l -0.125,0.25 c -0.385901,0.05164 -0.754574,0.09674 -1.125,0.1875 -0.298639,0.07319 -0.589702,0.226646 -0.78125,0.46875 -0.191548,0.242104 -0.281251,0.536947 -0.28125,0.84375 -2e-6,0.430461 0.0732,0.820649 0.21875,1.15625 0.170619,0.393432 0.601059,0.586998 1.03125,0.625 -0.22704,0.09011 -0.498231,0.101083 -0.625,0.3125 -0.17783,0.296579 -0.241541,0.679143 -0.28125,1.09375 -0.0021,0.0223 0.0019,0.03982 0,0.0625 -0.03576,0.214834 -0.10712,0.627349 -0.21875,1.3125 -0.119254,0.731936 -0.187501,1.317871 -0.1875,1.78125 -1e-6,0.426254 0.156255,0.8776 0.5,1.125 0.311053,0.223876 0.716441,0.312501 1.125,0.3125 0.435034,1e-6 0.868251,-0.184534 1.125,-0.53125 0.0047,0.232118 0.01109,0.458147 0.03125,0.6875 0,0.01132 -9.4e-5,0.01999 0,0.03125 0.004,0.483516 0.09163,0.909542 0.34375,1.25 0.285241,0.385204 0.774574,0.531249 1.28125,0.53125 0.517915,-1e-6 0.970119,-0.105006 1.3125,-0.40625 0.360668,-0.317358 0.468742,-0.785316 0.46875,-1.3125 -10e-6,-0.464747 3.08e-4,-1.182174 -0.03125,-2.09375 0.108014,0.222261 0.250196,0.437673 0.4375,0.59375 0.21531,0.179436 0.501835,0.261763 0.78125,0.28125 -0.250671,0.280405 -0.500008,0.608444 -0.5,1 -10e-6,0.441521 0.122711,0.867917 0.375,1.21875 0.275954,0.383772 0.741613,0.593749 1.21875,0.59375 0.485345,-2e-6 1.036912,-0.206809 1.96875,-0.5625 0.919023,-0.350808 1.60278,-0.609417 2.09375,-0.8125 0.375618,-0.150252 0.695109,-0.351377 0.9375,-0.59375 0.155815,-0.155828 0.153384,-0.384088 0.21875,-0.59375 0.150384,0.393466 0.270315,0.855211 0.46875,1.1875 0.410763,0.6879 1.018701,1.124999 1.71875,1.125 0.494164,-2e-6 0.940311,-0.242923 1.5,-0.625 0.545226,-0.372227 0.954427,-0.696226 1.25,-1.03125 l 0,-0.03125 0.03125,-0.03125 c 0.130758,-0.18637 0.22361,-0.374382 0.3125,-0.5625 0.10661,-0.225718 0.187474,-0.467535 0.1875,-0.71875 -2.6e-5,-0.43063 -0.172011,-0.851019 -0.4375,-1.21875 -0.280777,-0.388832 -0.720845,-0.656245 -1.1875,-0.65625 -0.319586,5e-6 -0.60414,0.125048 -0.875,0.3125 -0.01822,0.01261 -0.04417,0.01853 -0.0625,0.03125 -0.101283,-0.508154 -0.198347,-1.023108 -0.28125,-1.53125 -0.09459,-0.57961 -0.179547,-1.139371 -0.25,-1.71875 l 0.4375,0 c 0.268244,0 0.532804,-0.02121 0.78125,-0.09375 0.287938,-0.08406 0.556722,-0.270798 0.75,-0.5 0.22817,-0.270628 0.312477,-0.607013 0.3125,-0.96875 -2e-5,-0.595916 -0.08038,-1.111579 -0.4375,-1.46875 -0.352257,-0.352212 -0.856254,-0.43749 -1.4375,-0.4375 l -0.75,0.03125 c -0.0191,-0.188328 -0.05353,-0.374265 -0.0625,-0.5625 -0.01616,-0.338162 -1.6e-5,-0.769848 0,-1.28125 l 0,-0.03125 c -0.01842,-0.5148306 -0.08251,-0.9117515 -0.34375,-1.25 -0.02117,-0.027408 -0.07085,-0.00679 -0.09375,-0.03125 0.325357,-0.056458 0.898324,-0.1559508 1.09375,-0.1875 l 0.03125,0 c 0.444321,-0.1111824 0.805635,-0.2599532 1.09375,-0.5 C 38.907344,8.1814372 39.031228,7.7202613 39.03125,7.25 39.031228,6.763232 38.917225,6.319528 38.625,5.96875 38.324324,5.6079337 37.855264,5.4062714 37.375,5.40625 c -0.05,1.63e-5 -0.07773,1.57e-5 -0.09375,0 -0.01605,1.57e-5 -0.07504,1.63e-5 -0.125,0 l -0.03125,0 c -0.547753,0.051445 -1.116104,0.1475996 -1.6875,0.25 -0.559435,0.1002838 -1.24542,0.2251951 -2.0625,0.375 -0.207452,0.03466 -0.607593,0.101851 -1.25,0.21875 -0.641717,0.1168001 -1.164838,0.2192258 -1.5625,0.34375 -0.0076,0.00238 -0.02374,-0.00238 -0.03125,0 l 0,0.03125 c -0.373373,0.1176353 -0.729999,0.30017 -0.96875,0.5625 -0.176605,0.1940595 -0.196158,0.4588689 -0.25,0.71875 -0.05112,-0.3758711 -0.181585,-0.752451 -0.46875,-1 -0.32347,-0.2787868 -0.730018,-0.4374794 -1.15625,-0.4375 -0.27707,1.95e-5 -0.54752,0.075568 -0.78125,0.21875 0.05387,-0.1721616 0.124997,-0.3592575 0.125,-0.53125 C 27.03124,5.7175877 26.747201,5.299282 26.375,5.0625 26.034371,4.845853 25.6674,4.7500233 25.28125,4.75 z m 0,1 c 0.180246,1.09e-5 0.352989,0.022997 0.5625,0.15625 0.177919,0.113186 0.187498,0.1548409 0.1875,0.25 0,0.015637 -0.046,0.2244168 -0.15625,0.5 -0.110252,0.2755832 -0.294913,0.6496261 -0.53125,1.09375 -0.48224,0.906235 -0.845719,1.6010004 -1.125,2.09375 l -0.4375,0.75 0.875,0 0.65625,0 0.3125,0 0.15625,-0.28125 C 26.044436,9.7704783 26.282774,9.284338 26.5,8.90625 26.717236,8.5281543 26.947663,8.1796841 27.1875,7.84375 l 0,-0.03125 0.03125,0 c 0.09073,-0.1685019 0.175345,-0.2531206 0.21875,-0.28125 0.04383,-0.028401 0.103606,-0.06249 0.25,-0.0625 0.20689,10e-6 0.371306,0.04965 0.53125,0.1875 0.141721,0.1221695 0.187495,0.2245866 0.1875,0.4375 -4e-6,0.070412 -0.03516,0.119142 -0.0625,0.1875 -0.03574,0.089346 -0.07946,0.2499773 -0.15625,0.40625 l -0.03125,0 c -0.516375,0.8493752 -0.932218,1.559649 -1.28125,2.125 -0.357376,0.578867 -0.678549,1.169596 -0.96875,1.75 L 25.5,13.34375 26.375,13.28125 27.0625,13.21875 27.59375,13.1875 27.5,12.65625 c -0.0162,-0.112976 -0.02382,-0.1831 -0.03125,-0.25 -0.007,-0.06329 -4e-6,-0.134376 0,-0.15625 -3e-6,-0.155669 0.01152,-0.136846 0.09375,-0.1875 0.133846,-0.08244 0.264071,-0.124992 0.46875,-0.125 0.144117,6e-6 0.162661,-2.1e-4 0.1875,0.03125 0.06746,0.08546 0.132971,0.251003 0.1875,0.46875 l 0,0.03125 c 0.148424,0.47919 0.285581,0.885897 0.375,1.21875 0.08066,0.300296 0.124992,0.600014 0.125,0.90625 -6e-6,0.233248 -0.06064,0.314529 -0.15625,0.40625 -0.09988,0.09582 -0.231464,0.156255 -0.46875,0.15625 -0.133578,4e-6 -0.158175,-0.02298 -0.21875,-0.09375 -0.09145,-0.106822 -0.151926,-0.228641 -0.1875,-0.40625 L 27.8125,14.25 l -0.40625,0 c -0.116518,10e-6 -0.246016,0.01338 -0.40625,0.03125 -0.08204,0.0091 -0.154558,0.01957 -0.21875,0.03125 -0.06419,0.01168 -0.129116,0.0021 -0.25,0.0625 l -0.25,0.15625 0,0.28125 c -0.01671,0.66735 -0.05413,1.250339 -0.0625,1.71875 -0.0084,0.469633 -10e-6,0.936519 0,1.40625 -6e-6,0.478644 0.02903,1.172222 0.0625,2.125 0.03326,0.947042 0.03124,1.670187 0.03125,2.125 -6e-6,0.372882 -0.06901,0.513238 -0.125,0.5625 -0.0743,0.06537 -0.274111,0.156249 -0.65625,0.15625 -0.326666,-1e-6 -0.451997,-0.06017 -0.5,-0.125 -0.07527,-0.101649 -0.125003,-0.318238 -0.125,-0.6875 l 0,-0.03125 0,-0.03125 c -0.03163,-0.347544 -0.07043,-0.705979 -0.0625,-1.0625 0.0084,-0.380314 0.03125,-0.822317 0.03125,-1.375 -3e-6,-0.595152 0.01455,-1.414123 0.03125,-2.4375 0.01665,-1.023017 0.01606,-1.679399 0.03125,-1.9375 l 0.03125,-0.65625 -0.625,0.125 c -0.416662,0.08342 -0.770777,0.16037 -1.0625,0.21875 C 23.018242,14.958896 22.76126,15 22.53125,15 c -0.230843,5e-6 -0.188423,-0.02382 -0.21875,-0.09375 -0.07133,-0.164465 -0.125002,-0.413843 -0.125,-0.75 -1e-6,-0.143221 0.0332,-0.18172 0.0625,-0.21875 0.0293,-0.03703 0.0757,-0.08994 0.21875,-0.125 0.419457,-0.10278 0.867143,-0.170983 1.3125,-0.21875 l 0.25,-0.03125 0.125,-0.25 0.59375,-1.125 0.40625,-0.71875 -0.84375,0 -0.21875,0 -0.25,0 c -0.458446,9e-6 -0.803288,-0.07202 -1,-0.15625 -0.106824,-0.04574 -0.125001,-0.04377 -0.125,-0.34375 -1e-6,-0.264284 0.254588,-1.1660698 0.8125,-2.4375 0.560182,-1.2765878 1.024549,-2.1296728 1.3125,-2.5 L 24.84375,6 24.875,5.96875 c 0.06669,-0.1108821 0.113962,-0.1636719 0.15625,-0.1875 0.04776,-0.026899 0.134637,-0.031239 0.25,-0.03125 z m 11.875,0.65625 c 0.02505,8.2e-6 0.04574,0 0.0625,0 0.01676,0 0.05383,8.5e-6 0.0625,0 0.01732,1.69e-5 0.04361,1.63e-5 0.09375,0 0.252938,1.12e-5 0.352724,0.048267 0.46875,0.1875 0.124407,0.1493347 0.187486,0.3430814 0.1875,0.65625 -1.4e-5,0.2963695 -0.03865,0.3915894 -0.09375,0.4375 C 37.829689,7.7773238 37.584025,7.9123638 37.25,8 c -0.01268,0.00333 -0.01825,-0.00325 -0.03125,0 -0.528435,0.085593 -1.442866,0.2524331 -2.8125,0.5 -1.345889,0.243296 -2.373752,0.4444737 -3.125,0.59375 -0.02177,0.00433 -0.07247,-0.00425 -0.09375,0 -0.06602,0.00543 -0.115406,0.018147 -0.1875,0.03125 -0.07613,0.013851 -0.131504,-1.6e-6 -0.125,0 -0.267859,8.8e-6 -0.360839,-0.043569 -0.46875,-0.1875 -0.134026,-0.1787293 -0.218757,-0.3805399 -0.21875,-0.65625 -7e-6,-0.2497877 0.05967,-0.3657114 0.125,-0.4375 0.08576,-0.094229 0.256496,-0.1987133 0.53125,-0.28125 0.332408,-0.105504 0.808082,-0.2291883 1.4375,-0.34375 C 32.922185,7.102119 33.37035,7.0321034 33.5625,7 34.378694,6.8503575 35.067463,6.7249436 35.625,6.625 36.149519,6.5310005 36.656837,6.4548699 37.15625,6.40625 z m -7.875,2.1875 c 0.0499,0.3336868 0.112529,0.6708299 0.3125,0.9375 0.08667,0.1156036 0.259129,0.1042403 0.375,0.1875 -0.358939,0.283793 -0.524496,0.701837 -0.5625,1.21875 -8.09e-4,0.01101 7.38e-4,0.02018 0,0.03125 -0.04423,0.362712 -0.08844,0.739818 -0.09375,1.125 C 29.234396,11.82574 29.160034,11.577737 29,11.375 c -0.225421,-0.285504 -0.613207,-0.437484 -0.96875,-0.4375 -0.0239,10e-7 -0.03871,0.03046 -0.0625,0.03125 0.312109,-0.507466 0.638596,-1.0527281 1.0625,-1.75 l 0,-0.03125 c 0.103865,-0.2073118 0.191341,-0.3846203 0.25,-0.53125 0.0077,-0.019256 -0.0069,-0.042958 0,-0.0625 z m 4.28125,1.0625 c -0.09165,0.2173793 -0.281258,0.37587 -0.28125,0.625 -1e-5,0.397826 -0.0034,0.78985 0.03125,1.1875 0.02216,0.254632 0.05753,0.607059 0.09375,0.9375 -0.109024,0.0059 -0.18528,-0.0091 -0.3125,0 -0.0888,0.0064 -0.111278,0.02543 -0.1875,0.03125 0.002,-0.130191 -0.0035,-0.210237 0,-0.375 0.0083,-0.401674 -1.2e-5,-0.699494 0,-0.90625 -1.3e-5,-0.517265 -0.04211,-0.92936 -0.28125,-1.28125 -0.01389,-0.020434 -0.04748,-0.012163 -0.0625,-0.03125 0.306416,-0.058212 0.630853,-0.1193332 1,-0.1875 z m 1.59375,0.0625 c 0.362839,1.09e-5 0.477981,0.074448 0.46875,0.0625 0.02193,0.028395 0.141273,0.268924 0.15625,0.6875 -1.6e-5,0.522148 -0.01728,0.950814 0,1.3125 0.01743,0.365789 0.07272,0.728385 0.125,1.09375 l 0.0625,0.4375 0.4375,0 1.1875,-0.03125 c 0.452248,8e-6 0.670989,0.108496 0.71875,0.15625 0.04283,0.04283 0.156234,0.27904 0.15625,0.75 -1.3e-5,0.204685 -0.05503,0.297824 -0.09375,0.34375 -0.07369,0.08738 -0.13799,0.123548 -0.25,0.15625 -0.151574,0.04426 -0.318246,0.0625 -0.5,0.0625 l -0.75,0 -0.21875,0 -0.5625,0 0.0625,0.5625 c 0.08437,0.775517 0.18594,1.536986 0.3125,2.3125 0.126515,0.775454 0.269238,1.568757 0.4375,2.34375 l 0.15625,0.75 0.625,-0.4375 c 0.231681,-0.165496 0.441791,-0.3516 0.65625,-0.5 0.162454,-0.112428 0.26584,-0.124999 0.3125,-0.125 0.133081,1e-6 0.222391,0.03866 0.375,0.25 0.167818,0.232446 0.249988,0.422489 0.25,0.625 -1.2e-5,0.114999 -0.0194,0.221246 -0.0625,0.3125 -0.0554,0.117246 -0.128795,0.243051 -0.21875,0.375 -0.0089,0.01307 -0.02199,0.01805 -0.03125,0.03125 -0.207265,0.228466 -0.542438,0.510037 -1.03125,0.84375 -0.490557,0.334883 -0.86529,0.4375 -0.9375,0.4375 -0.300145,-1e-6 -0.569241,-0.1442 -0.875,-0.65625 -0.325994,-0.545892 -0.590512,-1.220503 -0.78125,-2.03125 -0.195837,-0.832297 -0.339697,-1.646253 -0.4375,-2.46875 -0.100186,-0.842303 -0.183085,-1.527473 -0.25,-2.0625 l -0.0625,-0.46875 -0.4375,0.03125 -1.8125,0.09375 L 31.875,15 l 0,0.46875 c -1.2e-5,0.287421 -0.0022,0.889993 0.03125,1.875 0.03324,0.980336 0.06249,1.741641 0.0625,2.28125 l 0,0.71875 0.65625,-0.25 c 0.169678,-0.0617 0.321691,-0.09788 0.4375,-0.125 0.10338,-0.02421 0.230396,-0.03125 0.34375,-0.03125 0.212458,1e-6 0.293255,0.05107 0.40625,0.1875 0.120711,0.145774 0.18749,0.318042 0.1875,0.59375 -1e-5,0.246269 -0.06241,0.343652 -0.125,0.40625 -0.107571,0.107563 -0.302076,0.227076 -0.59375,0.34375 -0.475038,0.196493 -1.179299,0.463438 -2.09375,0.8125 -0.901676,0.344177 -1.546073,0.5 -1.59375,0.5 -0.223563,-1e-6 -0.29892,-0.03823 -0.40625,-0.1875 -0.131029,-0.182209 -0.187506,-0.365839 -0.1875,-0.625 -6e-6,-0.267318 0.05484,-0.346327 0.1875,-0.4375 C 29.415911,21.374269 29.724561,21.191643 30.15625,21 l 0.3125,-0.15625 0,-0.3125 c -0.01671,-0.651048 -0.05205,-1.750006 -0.09375,-3.25 -0.04165,-1.497357 -0.06251,-2.614557 -0.0625,-3.40625 l 0,-1.625 c -10e-6,-0.414087 0.0152,-0.809591 0.0625,-1.1875 l 0.03125,0 0,-0.03125 c 0.02878,-0.431463 0.124092,-0.561906 0.125,-0.5625 0.05937,-0.0388 0.385777,-0.124989 0.875,-0.125 0.313167,10e-6 0.356425,0.06643 0.375,0.09375 0.04404,0.0648 0.124989,0.302607 0.125,0.71875 -1.2e-5,0.192842 0.0083,0.507978 0,0.90625 -0.0084,0.401811 -10e-6,0.699179 0,0.90625 l 0,0.5625 0.53125,-0.0625 c 0.135087,-0.015 0.402866,-0.03767 0.75,-0.0625 0.343173,-0.02453 0.601864,-0.03124 0.78125,-0.03125 l 0.5625,0 -0.0625,-0.5625 C 34.4024,12.249097 34.3452,11.782073 34.3125,11.40625 c -0.03213,-0.368928 -0.03126,-0.756202 -0.03125,-1.125 -1e-5,-0.3199652 0.05957,-0.3656592 0.125,-0.40625 0.12355,-0.076645 0.355475,-0.1562386 0.75,-0.15625 z m -7.90625,5.875 c 0.0272,0.03749 0.03232,0.08974 0.0625,0.125 0.03144,0.03673 0.08924,0.03005 0.125,0.0625 -0.06428,0.01976 -0.126159,0.03546 -0.1875,0.0625 0.0017,-0.08091 -0.0019,-0.164697 0,-0.25 z M 29.34375,15.75 c 0.006,0.312708 0.02233,0.545191 0.03125,0.90625 -0.151779,-0.279468 -0.317367,-0.495014 -0.53125,-0.6875 -0.0073,-0.0065 -0.02386,0.0064 -0.03125,0 0.184051,-0.05981 0.383492,-0.09602 0.53125,-0.21875 z m -5.40625,0.03125 c -0.0014,0.04192 0.0013,0.109885 0,0.15625 -0.119076,-0.05878 -0.274394,-0.0292 -0.40625,-0.0625 0.115344,-0.02308 0.272304,-0.06694 0.40625,-0.09375 z M 33.75,15.875 c 0.05728,0.465258 0.110233,0.944136 0.1875,1.59375 0.07278,0.612019 0.188232,1.22822 0.3125,1.84375 -0.259574,-0.181443 -0.521509,-0.374998 -0.84375,-0.375 -0.156184,0 -0.317224,0.03317 -0.46875,0.0625 -0.0066,-0.49179 -0.0068,-0.96769 -0.03125,-1.6875 -0.02486,-0.732366 -0.025,-1.04751 -0.03125,-1.375 L 33.75,15.875 z m -5.8125,0.75 c 0.07536,2e-6 0.126121,0.0104 0.21875,0.09375 0.108167,0.09735 0.235926,0.209923 0.34375,0.40625 0.0031,0.0068 -0.0031,0.02435 0,0.03125 0.137094,0.307888 0.301024,0.715602 0.46875,1.21875 0.166418,0.49928 0.218744,0.8817 0.21875,1.0625 -6e-6,0.206897 -0.04888,0.307473 -0.15625,0.40625 -0.115476,0.106226 -0.221843,0.156251 -0.4375,0.15625 -0.120144,1e-6 -0.159402,-0.04429 -0.21875,-0.09375 -0.08441,-0.07034 -0.162545,-0.145959 -0.21875,-0.28125 l 0,-0.03125 c -0.09957,-0.227228 -0.277045,-0.681317 -0.5,-1.375 -0.11074,-0.344525 -0.197666,-0.642126 -0.25,-0.84375 -0.05233,-0.201624 -0.0625,-0.341493 -0.0625,-0.3125 -3e-6,-0.155675 0.0109,-0.220364 0.125,-0.3125 0.128946,-0.104124 0.266089,-0.124996 0.46875,-0.125 z m -5,0.09375 c 0.298452,5e-6 0.491812,0.03943 0.625,0.125 0.07745,0.04977 0.124997,0.114472 0.125,0.375 -4e-6,0.425401 -0.03024,0.858917 -0.09375,1.3125 -0.06508,0.464684 -0.165613,1.014563 -0.28125,1.625 -0.05608,0.294082 -0.138145,0.505196 -0.25,0.65625 -0.07651,0.103318 -0.114402,0.125001 -0.3125,0.125 -0.258763,1e-6 -0.425639,-0.04899 -0.53125,-0.125 -0.07292,-0.05248 -0.09375,-0.105614 -0.09375,-0.3125 -1e-6,-0.369951 0.04194,-0.923418 0.15625,-1.625 0.116749,-0.716569 0.185774,-1.146296 0.21875,-1.34375 l 0,-0.03125 0.03125,-0.03125 c 0.02966,-0.355625 0.0938,-0.583351 0.15625,-0.6875 0.02407,-0.04014 0.02093,-0.0625 0.25,-0.0625 z"
     id="path3010"
     inkscape:connector-curvature="0" /><path
     style="font-size:medium;font-style:normal;font-variant:normal;font-weight:normal;font-stretch:normal;text-indent:0;text-align:start;text-decoration:none;line-height:125%;letter-spacing:0;word-spacing:0;text-transform:none;direction:ltr;block-progression:tb;writing-mode:lr-tb;text-anchor:start;baseline-shift:baseline;color:#000000;fill:#c8c8c8;fill-opacity:1;fill-rule:nonzero;stroke:none;stroke-width:1;marker:none;visibility:visible;display:inline;overflow:visible;enable-background:accumulate;font-family:'蟇悟｣ｫ繝昴ャ繝暦ｼｰ';-inkscape-font-specification:'蟇悟｣ｫ繝昴ャ繝暦ｼｰ'"
     d="m 45.59375,11.375 c -0.778988,1.2e-5 -1.486411,0.277825 -2.03125,0.8125 -0.548744,0.538522 -0.843753,1.267156 -0.84375,2.0625 -4e-6,0.765253 0.279708,1.488595 0.8125,2.03125 0.538644,0.548639 1.267485,0.843757 2.0625,0.84375 0.767383,7e-6 1.489334,-0.301834 2.03125,-0.84375 0.541905,-0.541905 0.812491,-1.263863 0.8125,-2.03125 -9e-6,-0.783536 -0.2905,-1.488112 -0.84375,-2.03125 -0.547378,-0.537339 -1.246263,-0.843738 -2,-0.84375 z m 0,1 c 0.512527,8e-6 0.926436,0.183517 1.3125,0.5625 0.380168,0.37322 0.531243,0.762232 0.53125,1.3125 -7e-6,0.532269 -0.156421,0.937671 -0.53125,1.3125 -0.374844,0.374844 -0.780253,0.562505 -1.3125,0.5625 -0.571367,5e-6 -0.982336,-0.194379 -1.34375,-0.5625 -0.36728,-0.374079 -0.531252,-0.778097 -0.53125,-1.3125 -3e-6,-0.571826 0.16324,-0.982594 0.53125,-1.34375 0.371901,-0.364963 0.789722,-0.531242 1.34375,-0.53125 z"
     id="path3012"
     inkscape:connector-curvature="0" /><path
     style="font-size:medium;font-style:normal;font-variant:normal;font-weight:normal;font-stretch:normal;text-indent:0;text-align:start;text-decoration:none;line-height:125%;letter-spacing:0;word-spacing:0;text-transform:none;direction:ltr;block-progression:tb;writing-mode:lr-tb;text-anchor:start;baseline-shift:baseline;color:#000000;fill:#c8c8c8;fill-opacity:1;fill-rule:nonzero;stroke:none;stroke-width:1;marker:none;visibility:visible;display:inline;overflow:visible;enable-background:accumulate;font-family:'蟇悟｣ｫ繝昴ャ繝暦ｼｰ';-inkscape-font-specification:'蟇悟｣ｫ繝昴ャ繝暦ｼｰ'"
     d="m 60.59375,4.625 c -0.608963,1.95e-5 -1.152252,0.1252978 -1.46875,0.5625 -0.265264,0.3664418 -0.382536,0.8431472 -0.4375,1.4375 -0.0011,0.011847 0.0011,0.019301 0,0.03125 -0.05,0.3914115 -0.08529,0.7884335 -0.09375,1.1875 -0.0056,0.2646837 0.0019,0.6442736 0,1 -0.494764,0.012264 -1.000507,0.018966 -1.375,0.03125 -0.513812,0.01688 -1.010464,0.060385 -1.5,0.09375 -0.668213,0.016728 -1.226585,0.01448 -1.6875,0.03125 -0.459971,0.016761 -0.889906,0.075146 -1.3125,0.125 -0.01,0.00118 -0.0213,-0.0012 -0.03125,0 -0.483414,0.041107 -0.93101,0.1568439 -1.25,0.4375 -0.355017,0.312392 -0.468751,0.799034 -0.46875,1.3125 -10e-7,0.510277 0.124814,0.97375 0.4375,1.3125 0.326769,0.354048 0.813466,0.468762 1.34375,0.46875 0.390559,10e-6 0.773722,-0.01422 1.15625,-0.03125 0.378255,-0.01682 0.85304,-0.02904 1.4375,-0.0625 0.547568,-0.03319 1.108895,-0.06904 1.65625,-0.09375 0.409178,-0.01846 0.985693,-0.03924 1.5625,-0.0625 l 0,1.15625 c -6e-6,0.281393 0.02458,0.559168 0.03125,0.84375 L 57.3125,14.5 c -0.144434,-0.156537 -0.235835,-0.367805 -0.4375,-0.4375 -0.287809,-0.09944 -0.612423,-0.156241 -0.96875,-0.15625 -0.448497,9e-6 -0.849506,0.09514 -1.1875,0.3125 -0.346548,0.222874 -0.546916,0.610611 -0.65625,1.03125 -0.0032,0.0091 0.0031,0.02215 0,0.03125 -0.0023,0.0092 0.0022,0.02205 0,0.03125 -0.0014,0.0058 -0.02993,-0.0058 -0.03125,0 -0.121195,0.364139 -0.215699,0.759089 -0.25,1.1875 -0.03468,0.43307 -0.03125,0.909978 -0.03125,1.4375 l 0,1.3125 c -3e-6,1.491936 0.138619,2.573551 0.625,3.28125 0.536904,0.781232 1.614164,0.999999 3.09375,1 0.899113,-1e-6 2.102954,-0.0413 3.625,-0.125 1.403266,-0.07718 2.236524,-0.136515 2.71875,-0.15625 0.125684,0.25061 0.183241,0.541338 0.4375,0.65625 0.353978,0.159996 0.771727,0.218748 1.25,0.21875 0.395497,-2e-6 0.765619,-0.08025 1.0625,-0.3125 0.287476,-0.224935 0.486373,-0.561281 0.625,-0.9375 l 0,-0.03125 c 0.0916,-0.329359 0.182737,-0.671707 0.21875,-1.03125 0.03573,-0.357078 0.03123,-0.786356 0.03125,-1.28125 -1.7e-5,-0.383288 -1.7e-5,-0.675047 0,-0.875 -1.7e-5,-0.199948 -1.7e-5,-0.491707 0,-0.875 -1.7e-5,-1.702486 -0.127949,-2.833956 -0.625,-3.5625 -0.275799,-0.4042 -0.729646,-0.632094 -1.28125,-0.78125 -0.551604,-0.149156 -1.211796,-0.218746 -2.03125,-0.21875 -0.255467,0 -0.50249,-0.0085 -0.75,0 -0.117785,0.0041 -0.314389,-0.006 -0.46875,0 -2e-6,-0.334012 -7e-6,-0.701292 0,-0.90625 -7e-6,-0.212014 -2e-6,-0.594459 0,-0.9375 l 0.875,0 0.03125,0 c 0.596654,-0.01614 1.486547,-0.01005 2.65625,0.03125 1.177783,0.04161 2.016457,0.06251 2.5625,0.0625 0.493317,1.2e-5 0.95588,-0.12603 1.28125,-0.4375 0.249323,-0.238691 0.293986,-0.613009 0.34375,-0.96875 l 0.03125,-0.03125 0.09375,-0.09375 0,-0.1875 c -2.1e-5,-0.582576 -0.03343,-1.015384 -0.375,-1.375 -0.322299,-0.3391957 -0.76282,-0.4454182 -1.3125,-0.5 -0.529649,-0.051322 -1.063556,-0.053933 -1.59375,-0.0625 -0.520764,-0.0084 -1.169107,-0.031237 -1.9375,-0.03125 -0.699879,1.3e-5 -1.220736,1.3e-5 -1.5625,0 -0.22321,8.5e-6 -0.631193,2.6e-6 -1,0 0.02104,-0.4133319 0.04538,-0.8372071 0.0625,-1.15625 0.02545,-0.4744477 0.03124,-0.9483203 0.03125,-1.375 C 62.468737,5.7135636 62.32153,5.2195857 61.90625,4.9375 61.549317,4.6951211 61.102459,4.6250193 60.59375,4.625 z m 0,1 c 0.391335,1.49e-5 0.640197,0.050437 0.75,0.125 0.05141,0.034924 0.124991,0.1364042 0.125,0.5 -1.1e-5,0.4066847 -0.0067,0.8539539 -0.03125,1.3125 -0.02508,0.4673836 -0.06038,1.0201745 -0.09375,1.6875 l -0.03125,0.53125 0.53125,0 c 0.68318,1.3e-5 1.189421,1.3e-5 1.53125,0 0.341802,1.3e-5 0.862611,1.3e-5 1.5625,0 0.764779,1.3e-5 1.424704,0.022982 1.9375,0.03125 0.503302,0.00813 0.996899,0.01375 1.5,0.0625 0.450446,0.044728 0.661535,0.193062 0.65625,0.1875 -0.02463,-0.02593 0.124983,0.20402 0.125,0.6875 -1.5e-5,0.336613 -0.08682,0.496034 -0.15625,0.5625 -0.07506,0.07185 -0.253771,0.156258 -0.59375,0.15625 -0.520073,10e-6 -1.358805,-0.02107 -2.53125,-0.0625 -1.180585,-0.04168 -2.08252,-0.04846 -2.71875,-0.03125 l -1.375,0 -0.5,0 0,0.5 c -1.1e-5,0.633152 -1.1e-5,1.112379 0,1.4375 -1.1e-5,0.32514 -1.1e-5,0.787683 0,1.4375 l 0,0.53125 L 61.8125,15.25 c 0.399249,-0.01665 0.729002,-0.02297 0.96875,-0.03125 0.235862,-0.0081 0.474517,0 0.71875,0 0.764191,3e-6 1.361887,0.04285 1.78125,0.15625 0.419363,0.113397 0.636257,0.285352 0.71875,0.40625 0.219469,0.321682 0.437483,1.369164 0.4375,3 -1.7e-5,0.383315 -1.7e-5,0.67497 0,0.875 -1.7e-5,0.200035 -1.7e-5,0.49169 0,0.875 -1.7e-5,0.471906 -2.84e-4,0.878076 -0.03125,1.1875 -0.02965,0.295969 -0.08524,0.550541 -0.15625,0.8125 -0.0026,0.0097 0.0027,0.02157 0,0.03125 -0.092,0.236698 -0.221012,0.397165 -0.3125,0.46875 -0.08645,0.06763 -0.199889,0.09375 -0.4375,0.09375 -0.388455,-2e-6 -0.680992,-0.05143 -0.84375,-0.125 -0.09487,-0.04288 -0.103003,-0.0476 -0.125,-0.28125 L 64.46875,22.25 64,22.25 c -0.460101,0.01705 -1.451157,0.07278 -2.96875,0.15625 -1.51142,0.08312 -2.694865,0.124999 -3.5625,0.125 -1.354084,-1e-6 -2.053678,-0.308088 -2.25,-0.59375 C 54.971887,21.578307 54.749997,20.657644 54.75,19.25 l 0,-1.3125 c -3e-6,-0.505996 -8.07e-4,-0.974726 0.03125,-1.375 0.0305,-0.380961 0.118558,-0.714092 0.21875,-1 l 0,-0.03125 c 0.06432,-0.28272 0.149949,-0.404404 0.25,-0.46875 0.128306,-0.08251 0.338135,-0.156243 0.65625,-0.15625 0.277613,7e-6 0.510697,0.04346 0.65625,0.09375 0.08028,0.02774 0.113112,0.0588 0.1875,0.21875 l 0.15625,0.3125 L 57.25,15.5 l 1.875,-0.125 0.5,-0.03125 -0.03125,-0.46875 c -0.01646,-0.443967 -0.03126,-0.877101 -0.03125,-1.3125 l 0,-1.6875 0,-0.5 -0.5,0 c -0.85065,0.03341 -1.573575,0.06887 -2.125,0.09375 -0.552511,0.02495 -1.103568,0.06025 -1.65625,0.09375 -0.581726,0.0333 -1.065845,0.04598 -1.4375,0.0625 -0.367398,0.01635 -0.717713,0.03126 -1.09375,0.03125 -0.369786,8e-6 -0.551789,-0.07693 -0.625,-0.15625 -0.0873,-0.09458 -0.156251,-0.268555 -0.15625,-0.625 -10e-7,-0.35321 0.0946,-0.508251 0.15625,-0.5625 0.09055,-0.07967 0.286654,-0.190282 0.65625,-0.21875 l 0.03125,0 c 0.40166,-0.04823 0.80448,-0.07752 1.25,-0.09375 0.455419,-0.01657 1.021883,-0.014587 1.6875,-0.03125 l 0.03125,0 C 56.2585,9.9362227 56.747362,9.8915124 57.25,9.875 c 0.505804,-0.016591 1.111664,-0.01458 1.84375,-0.03125 l 0.5,-0.03125 0,-0.46875 c -9e-6,-0.5978237 -0.0082,-1.113713 0,-1.5 0.0079,-0.3737499 0.04606,-0.7285543 0.09375,-1.09375 l 0,-0.03125 c 0.0461,-0.5221435 0.170599,-0.8590641 0.25,-0.96875 0.03342,-0.046162 0.198299,-0.1249853 0.65625,-0.125 z m 2.625,11 c -0.891261,5e-6 -1.817771,0.02048 -2.75,0.0625 -0.926019,0.04175 -2.070713,0.120751 -3.4375,0.1875 l -0.46875,0 0,0.5 c -6e-6,0.227598 0.0017,0.576467 -0.03125,1.0625 -0.03376,0.497446 -0.06251,0.884127 -0.0625,1.15625 -7e-6,0.409433 0.03681,0.775577 0.34375,1.0625 0.311286,0.291026 0.659663,0.312502 1.09375,0.3125 1.237818,2e-6 2.346581,-0.02887 3.3125,-0.0625 0.970184,-0.03377 1.929768,-0.08609 2.875,-0.1875 l 0.4375,-0.0625 0,-0.4375 c -1.3e-5,-0.227101 0.02297,-0.574367 0.03125,-1.03125 0.0083,-0.459868 -1e-5,-0.823359 0,-1.0625 -1.5e-5,-0.430352 -0.01,-0.779239 -0.25,-1.09375 -0.265923,-0.348344 -0.67629,-0.406244 -1.09375,-0.40625 z m 0,1 c 0.282384,4e-6 0.330675,0.09599 0.28125,0.03125 -0.02357,-0.03089 0.06249,0.132508 0.0625,0.46875 -1e-5,0.227166 0.0083,0.574374 0,1.03125 -0.0047,0.257162 -0.02917,0.406207 -0.03125,0.59375 -0.77095,0.07319 -1.55483,0.128791 -2.34375,0.15625 -0.951011,0.03311 -2.05245,0.0625 -3.28125,0.0625 -0.332529,2e-6 -0.467712,-0.119962 -0.40625,-0.0625 0.05709,0.05336 -0.03126,-0.02206 -0.03125,-0.3125 -9e-6,-0.227547 0.02952,-0.60771 0.0625,-1.09375 0.02063,-0.30414 0.02307,-0.469954 0.03125,-0.6875 1.127461,-0.05465 2.170717,-0.08902 2.96875,-0.125 0.917927,-0.04138 1.811973,-0.06249 2.6875,-0.0625 z"
     id="path3014"
     inkscape:connector-curvature="0" /><path
     style="font-size:medium;font-style:normal;font-variant:normal;font-weight:normal;font-stretch:normal;text-indent:0;text-align:start;text-decoration:none;line-height:125%;letter-spacing:0;word-spacing:0;text-transform:none;direction:ltr;block-progression:tb;writing-mode:lr-tb;text-anchor:start;baseline-shift:baseline;color:#000000;fill:#c8c8c8;fill-opacity:1;fill-rule:nonzero;stroke:none;stroke-width:1;marker:none;visibility:visible;display:inline;overflow:visible;enable-background:accumulate;font-family:'蟇悟｣ｫ繝昴ャ繝暦ｼｰ';-inkscape-font-specification:'蟇悟｣ｫ繝昴ャ繝暦ｼｰ'"
     d="m 80.65625,4.5 c -0.300037,2.38e-5 -0.590192,0.093164 -0.84375,0.25 -0.225782,0.1396839 -0.420552,0.3383365 -0.59375,0.5625 -0.0094,0.012109 -0.02204,0.018932 -0.03125,0.03125 -0.332671,0.3699056 -0.739511,0.8791051 -1.25,1.5625 -0.433633,0.5805149 -0.668706,0.8912363 -0.84375,1.125 -0.469426,0.016499 -1.076117,0.063688 -2,0.09375 -1.030292,0.033552 -1.822573,0.073145 -2.375,0.125 -0.496617,0.038252 -0.914648,0.1643248 -1.25,0.4375 -0.368824,0.300482 -0.531251,0.7745864 -0.53125,1.28125 -10e-7,0.54661 0.08734,0.995835 0.40625,1.34375 0.34144,0.372528 0.856225,0.468762 1.4375,0.46875 0.323076,1.1e-5 0.754366,-0.02035 1.34375,-0.0625 0.06073,-0.0043 0.06808,0.0039 0.125,0 L 72.84375,13.5 c -0.302533,0.386165 -0.604301,0.784769 -0.90625,1.1875 -0.339866,0.453313 -0.531251,0.923022 -0.53125,1.40625 -10e-7,0.492768 0.227976,0.936312 0.59375,1.3125 0.370955,0.381534 0.836661,0.625007 1.34375,0.625 0.312812,7e-6 0.62067,-0.09937 0.875,-0.28125 0.222346,-0.159 0.417678,-0.359463 0.59375,-0.59375 0.09296,-0.118573 0.22926,-0.336966 0.34375,-0.5 -0.02117,0.288724 -0.04903,0.587093 -0.0625,0.875 -0.04208,0.89937 -0.06251,1.810963 -0.0625,2.71875 -5e-6,0.641821 0.01754,1.104271 0.28125,1.5 0.311158,0.466965 0.867018,0.5625 1.5,0.5625 0.527181,0 1.014002,-0.125261 1.34375,-0.46875 0.324539,-0.338086 0.437492,-0.819654 0.4375,-1.34375 -1e-5,-1.048867 -0.0083,-1.896809 0,-2.59375 0.0065,-0.543378 0.03054,-1.091972 0.0625,-1.625 L 79.375,16.25 c -0.01861,0.541386 -0.03126,1.074825 -0.03125,1.625 l 0,2.75 0,0.9375 c -1.1e-5,0.25461 0.02946,0.5079 0.0625,0.78125 9.29e-4,0.01067 -0.001,0.02063 0,0.03125 0.04238,0.438395 0.16781,0.829611 0.4375,1.125 0.302875,0.331766 0.738898,0.468749 1.21875,0.46875 0.567804,-1e-6 1.030996,-0.08923 1.40625,-0.34375 0.429032,-0.291024 0.562486,-0.811151 0.5625,-1.375 -5e-6,-0.220619 0.0018,-0.651429 0,-0.96875 0.15608,0.138934 0.295503,0.299161 0.5,0.375 0.582468,0.216029 1.22306,0.343751 1.9375,0.34375 0.614162,1e-6 1.151539,-0.177183 1.5625,-0.53125 0.40436,-0.348414 0.680169,-0.833566 0.8125,-1.4375 l 0,-0.03125 0,-0.03125 c 0.05236,-0.348773 0.07619,-0.689322 0.09375,-1.03125 0.01724,-0.337219 0.03123,-0.714803 0.03125,-1.1875 -1.7e-5,-0.299867 -1.7e-5,-0.545956 0,-0.6875 -1.7e-5,-0.141539 -1.7e-5,-0.326834 0,-0.59375 -1.8e-5,-1.342762 -0.127424,-2.265291 -0.625,-2.875 -0.526895,-0.645547 -1.445573,-0.812491 -2.75,-0.8125 l -0.875,0 c -0.151416,5e-6 -0.377263,0.02262 -0.5625,0.03125 0.0019,-0.02622 -0.0022,-0.06931 0,-0.09375 0.01784,-0.196746 0.03124,-0.378927 0.03125,-0.5625 -9e-6,-0.251357 -0.174924,-0.438237 -0.28125,-0.65625 0.604866,0.0053 1.158336,0.01381 2.09375,0.03125 1.343325,0.02507 2.341934,0.03126 3.03125,0.03125 0.580284,1.3e-5 1.074498,-0.06618 1.46875,-0.28125 0.379334,-0.206934 0.465428,-0.678077 0.53125,-1.125 l 0.03125,0.03125 0.09375,-0.125 0,-0.1875 C 90.156228,9.3082853 90.085648,8.8363482 89.71875,8.5 89.382094,8.1914782 88.916038,8.0686431 88.375,8.03125 87.912025,7.9969402 87.455487,8.0000141 86.96875,8 c -0.475061,1.38e-5 -1.081402,1.38e-5 -1.78125,0 -1.000173,1.38e-5 -1.824972,1.38e-5 -2.5,0 -0.318362,6.1e-6 -0.624617,-0.00369 -0.9375,0 0.07689,-0.095426 0.140228,-0.1836668 0.21875,-0.28125 0.346182,-0.4302136 0.562482,-0.8476471 0.5625,-1.3125 -1.5e-5,-0.488869 -0.200024,-0.9502428 -0.5625,-1.3125 C 81.609665,4.7349495 81.135288,4.5000247 80.65625,4.5 z m 0,1 c 0.187446,9.7e-6 0.369317,0.088246 0.59375,0.3125 0.220998,0.220865 0.281243,0.3827816 0.28125,0.59375 -4e-6,0.1023983 -0.07309,0.3511426 -0.34375,0.6875 -0.308174,0.3829817 -0.592129,0.7442263 -0.875,1.09375 L 79.625,9.03125 80.71875,9 c 0.645377,-0.016555 1.297803,1.29e-5 1.96875,0 0.675044,1.38e-5 1.499819,1.38e-5 2.5,0 0.69986,1.38e-5 1.306165,1.38e-5 1.78125,0 0.463343,1.35e-5 0.906625,-0.00114 1.34375,0.03125 0.424908,0.029367 0.655386,0.1294312 0.71875,0.1875 0.03305,0.030296 0.124984,0.2228277 0.125,0.65625 -1.5e-5,0.388654 -0.04848,0.489505 -0.125,0.53125 -0.155508,0.08483 -0.513426,0.156261 -1,0.15625 C 87.35416,10.562512 86.340155,10.55626 85,10.53125 83.656691,10.506211 82.672746,10.50001 82,10.5 c -0.749925,1.1e-5 -1.397846,1.1e-5 -1.90625,0 -0.513925,1.1e-5 -1.010641,-0.01684 -1.5,0 l -0.21875,0.03125 -0.15625,0.1875 c -0.197722,0.263765 -0.492091,0.625695 -0.875,1.125 -0.386085,0.503448 -0.632035,0.869698 -0.78125,1.09375 l -0.53125,0.78125 0.0625,0 -0.65625,0.8125 c -0.176301,0.215002 -0.414446,0.566435 -0.71875,1.03125 -0.295884,0.45195 -0.520559,0.787059 -0.6875,1 -0.124228,0.165301 -0.278668,0.283766 -0.40625,0.375 -0.09561,0.06837 -0.161124,0.09375 -0.28125,0.09375 -0.226965,3e-6 -0.427437,-0.07716 -0.65625,-0.3125 -0.234002,-0.240664 -0.281251,-0.417886 -0.28125,-0.625 -10e-7,-0.183264 0.08384,-0.465831 0.34375,-0.8125 0.297819,-0.397221 0.576943,-0.775799 0.875,-1.15625 l 2.09375,-2.65625 0.625,-0.8125 -1.03125,0 c -0.262951,1.2e-5 -0.661994,0.02047 -1.25,0.0625 -0.577208,0.04129 -1.004558,0.06251 -1.28125,0.0625 -0.452257,10e-6 -0.662324,-0.09753 -0.6875,-0.125 -0.04771,-0.05204 -0.156251,-0.26729 -0.15625,-0.6875 -10e-7,-0.3266442 0.07504,-0.4650882 0.15625,-0.53125 0.114678,-0.093416 0.348665,-0.1902438 0.71875,-0.21875 0.513649,-0.048215 1.292818,-0.060544 2.3125,-0.09375 1.025223,-0.03336 1.782097,-0.077012 2.25,-0.09375 l 0.21875,0 L 77.75,8.84375 C 77.900813,8.6426718 78.233376,8.191618 78.75,7.5 79.261408,6.8153751 79.671053,6.2974084 79.96875,5.96875 L 80,5.9375 c 0.11967,-0.1599898 0.231774,-0.2744739 0.34375,-0.34375 0.09636,-0.059601 0.178761,-0.093739 0.3125,-0.09375 z m -1.78125,6 c 0.256259,-0.0073 0.51777,0.0026 0.78125,0 -0.121908,0.255703 -0.156261,0.544526 -0.15625,0.84375 L 79.5,13 c -0.156941,0.0064 -0.268782,-0.01225 -0.46875,0 -0.354192,0.02171 -0.589244,0.04649 -0.78125,0.0625 -0.130932,-0.08497 -0.258089,-0.173523 -0.40625,-0.21875 0.105834,-0.141632 0.14123,-0.192417 0.28125,-0.375 0.320302,-0.417667 0.556576,-0.712323 0.75,-0.96875 z m 2.78125,0.1875 c 0.233747,8e-6 0.350184,0.05289 0.4375,0.125 0.05882,0.04858 0.09374,0.10635 0.09375,0.34375 -1.1e-5,0.150105 -0.01585,0.298898 -0.03125,0.46875 -0.01855,0.203735 -2.1e-5,0.457758 0,0.71875 l 0,0.53125 0.53125,-0.03125 c 0.425025,-0.03272 0.767651,-0.06249 1.03125,-0.0625 l 0.875,0 c 1.195543,9e-6 1.860359,0.266413 2,0.4375 0.168894,0.206957 0.374984,0.992678 0.375,2.25 -1.7e-5,0.266948 -1.7e-5,0.452095 0,0.59375 -1.7e-5,0.141668 -1.7e-5,0.387605 0,0.6875 -1.7e-5,0.460743 -0.01525,0.843249 -0.03125,1.15625 -0.01531,0.298131 -0.04865,0.599316 -0.09375,0.90625 -0.0015,0.01048 0.0016,0.02076 0,0.03125 -0.101941,0.439634 -0.247583,0.71136 -0.4375,0.875 -0.188843,0.162699 -0.484798,0.281251 -0.9375,0.28125 -0.618596,1e-6 -1.142718,-0.113969 -1.59375,-0.28125 -0.374971,-0.139061 -0.468758,-0.22176 -0.46875,-0.59375 -1e-5,-0.363271 0.07321,-0.606656 0.125,-0.6875 0.01617,-0.02524 0.08227,-0.0625 0.375,-0.0625 0.07195,2e-6 0.1907,-0.01606 0.375,0 0.182478,0.01588 0.318474,0.03275 0.3125,0.03125 l 0.59375,0.15625 0.03125,-0.59375 c 0.01686,-0.370729 0.02281,-0.76918 0.03125,-1.15625 0.0084,-0.388586 0.03124,-0.868216 0.03125,-1.4375 -8e-6,-0.209799 -0.01681,-0.386187 -0.0625,-0.5625 -0.04569,-0.176313 -0.144173,-0.35752 -0.34375,-0.5 -0.318274,-0.227122 -0.595566,-0.218742 -1,-0.21875 l -0.75,0 c -0.206073,8e-6 -0.41187,0.01341 -0.625,0.03125 l -0.4375,0.03125 -0.03125,0.4375 c -0.01704,0.374355 -2e-5,0.742606 0,1.125 -1.2e-5,0.374978 -1.2e-5,0.839435 0,1.40625 -1.2e-5,0.469336 -0.0083,1.153334 0,2.0625 0.0083,0.907643 -1e-5,1.598774 0,2.0625 -1e-5,0.402947 -0.08734,0.536954 -0.125,0.5625 -0.09148,0.06205 -0.378048,0.156249 -0.84375,0.15625 -0.320136,-1e-6 -0.452961,-0.07347 -0.5,-0.125 -0.07373,-0.08076 -0.128817,-0.247256 -0.15625,-0.5625 l 0,-0.03125 -0.03125,0 c -0.03106,-0.248038 -0.03126,-0.468832 -0.03125,-0.6875 l 0,-0.9375 0,-2.75 c -9e-6,-0.725645 0.02949,-1.4472 0.0625,-2.15625 l 0,-0.53125 -0.53125,0.03125 -1.71875,0.09375 -0.4375,0.03125 -0.03125,0.4375 c -0.05082,0.693983 -0.08529,1.38391 -0.09375,2.09375 -0.0083,0.702805 -1e-5,1.573449 0,2.625 -6e-6,0.375972 -0.08082,0.57767 -0.15625,0.65625 -0.07025,0.07318 -0.252131,0.15625 -0.625,0.15625 -0.500656,0 -0.667532,-0.141931 -0.65625,-0.125 -0.03619,-0.0543 -0.125005,-0.378959 -0.125,-0.9375 -5e-6,-0.892337 0.02116,-1.803822 0.0625,-2.6875 0.04105,-0.877596 0.103697,-1.738286 0.21875,-2.625 l 0.15625,-1.21875 0.5,0 c 0.203349,8e-6 0.400506,-0.0025 0.5625,0.03125 0.109826,0.02291 0.20239,0.08841 0.3125,0.1875 L 78,14.0625 l 0.21875,0 c 0.172196,-0.01568 0.468886,-0.03761 0.875,-0.0625 0.402937,-0.02468 0.708583,-0.03124 0.90625,-0.03125 l 0.5,0 0,-0.5 0,-1.125 c -7e-6,-0.184154 0.01756,-0.311997 0.0625,-0.40625 0.01733,-0.03634 0.05812,-0.09535 0.21875,-0.15625 0.145231,-0.05505 0.458857,-0.09374 0.875,-0.09375 z m 1.375,4.40625 c 0.03156,-4.8e-4 0.06247,1e-6 0.09375,0 l 0.75,0 c 0.282046,5e-6 0.383133,0.05023 0.375,0.03125 0.01035,0.05874 0.03124,0.12424 0.03125,0.25 -1e-5,0.564354 -0.02307,1.059494 -0.03125,1.4375 -0.0043,0.195343 -0.02482,0.371669 -0.03125,0.5625 -0.114119,-0.008 -0.227559,3e-6 -0.3125,0 -0.339321,3e-6 -0.618288,0.187232 -0.875,0.375 -7.67e-4,-0.181334 -4e-6,-0.48461 0,-0.625 -1.2e-5,-0.566803 -1.2e-5,-1.031298 0,-1.40625 -1.1e-5,-0.210007 -0.0053,-0.417809 0,-0.625 z"
     id="path3016"
     inkscape:connector-curvature="0" /></g></svg>
