<?xml version="1.0" encoding="UTF-8" standalone="no"?>
<!-- Generator: Adobe Illustrator 16.0.4, SVG Export Plug-In . SVG Version: 6.00 Build 0)  -->

<svg
   xmlns:dc="http://purl.org/dc/elements/1.1/"
   xmlns:cc="http://creativecommons.org/ns#"
   xmlns:rdf="http://www.w3.org/1999/02/22-rdf-syntax-ns#"
   xmlns:svg="http://www.w3.org/2000/svg"
   xmlns="http://www.w3.org/2000/svg"
   xmlns:sodipodi="http://sodipodi.sourceforge.net/DTD/sodipodi-0.dtd"
   xmlns:inkscape="http://www.inkscape.org/namespaces/inkscape"
   version="1.1"
   id="レイヤー_1"
   x="0px"
   y="0px"
   width="172"
   height="23"
   viewBox="0 0 172 23"
   enable-background="new 0 0 120 23"
   xml:space="preserve"
   inkscape:version="0.48.5 r10040"
   sodipodi:docname="petto.svg"><metadata
   id="metadata4427"><rdf:RDF><cc:Work
       rdf:about=""><dc:format>image/svg+xml</dc:format><dc:type
         rdf:resource="http://purl.org/dc/dcmitype/StillImage" /></cc:Work></rdf:RDF></metadata><defs
   id="defs4425" /><sodipodi:namedview
   pagecolor="#ffffff"
   bordercolor="#666666"
   borderopacity="1"
   objecttolerance="10"
   gridtolerance="10"
   guidetolerance="10"
   inkscape:pageopacity="0"
   inkscape:pageshadow="2"
   inkscape:window-width="1366"
   inkscape:window-height="706"
   id="namedview4423"
   showgrid="false"
   inkscape:zoom="5.075"
   inkscape:cx="116.41854"
   inkscape:cy="16.507389"
   inkscape:window-x="-8"
   inkscape:window-y="-8"
   inkscape:window-maximized="1"
   inkscape:current-layer="レイヤー_1" />





<text
   xml:space="preserve"
   style="font-size:13.42425632px;font-style:normal;font-weight:normal;line-height:125%;letter-spacing:0px;word-spacing:0px;fill:#f6f6f6;fill-opacity:1;stroke:none;font-family:Sans"
   x="6.7928081"
   y="12.422898"
   id="text4429"
   sodipodi:linespacing="125%"
   transform="scale(0.7536626,1.3268537)"><tspan
     sodipodi:role="line"
     x="6.7928081"
     y="12.422898"
     id="tspan4433"
     style="font-size:13px" /></text>
<flowRoot
   xml:space="preserve"
   id="flowRoot4945"
   style="font-size:11px;font-style:normal;font-weight:normal;line-height:125%;letter-spacing:0px;word-spacing:0px;fill:#000000;fill-opacity:1;stroke:none;font-family:Sans"><flowRegion
     id="flowRegion4947"><rect
       id="rect4949"
       width="392.31528"
       height="103.64532"
       x="32.118225"
       y="-121.23645" /></flowRegion><flowPara
     id="flowPara4951"></flowPara></flowRoot><path
   style="fill:#f6f6f6;fill-opacity:1;stroke:#f4f4f4;stroke-opacity:1"
   d="m 4.9261084,1.5221675 -1.9704434,5.5172414 0.591133,0 0.7881774,-3.3497537 z"
   id="path4953"
   inkscape:connector-curvature="0" /><path
   style="fill:#f6f6f6;fill-opacity:1;stroke:#f4f4f4;stroke-opacity:1"
   d="M 3.9408867,4.2807882 12.807882,2.7044335 14.384236,3.2955665 5.7142857,5.2660099 z"
   id="path4955"
   inkscape:connector-curvature="0" /><path
   style="fill:#f6f6f6;fill-opacity:1;stroke:#f4f4f4;stroke-opacity:1"
   d="m 9.2610837,4.2807882 0.7881773,3.3497537 2.758621,8.6699511 1.182266,0.394088 z"
   id="path4957"
   inkscape:connector-curvature="0" /><path
   style="fill:#f6f6f6;fill-opacity:1;stroke:#f4f4f4;stroke-opacity:1"
   d="M 4.137931,10.586207 14.778325,7.4334975 15.566502,6.6453202 17.931034,7.8275862 17.339901,8.6157635 15.369458,8.2216749 5.91133,11.17734 z"
   id="path4959"
   inkscape:connector-curvature="0" /><path
   style="fill:#f6f6f6;fill-opacity:1;stroke:#f4f4f4;stroke-opacity:1"
   d="m 1.3793103,11.17734 1.7733991,1.576355 2.5615763,4.926108 0.3940887,1.773399 -1.9704434,-0.788177 0.1970444,-1.773399 z"
   id="path4961"
   inkscape:connector-curvature="0" /><path
   style="fill:#f6f6f6;fill-opacity:1;stroke:#f4f4f4;stroke-opacity:1"
   d="M 6.3054187,18.270936 20.098522,14.330049 19.1133,6.0541872 21.083744,7.8275862 20.8867,10.192118 20.098522,9.0098522 l 0.591133,6.5024628 -2.167488,0.591133 -5.91133,0.985222 -4.9261079,1.970443 z"
   id="path4963"
   inkscape:connector-curvature="0" /><path
   style="fill:#f6f6f6;fill-opacity:1;stroke:#f4f4f4;stroke-opacity:1"
   d="m 23.842365,9.7980296 0.591133,2.1674874 2.167487,0 0,-1.9704431 z"
   id="path4965"
   inkscape:connector-curvature="0" /><path
   style="fill:#f6f6f6;fill-opacity:1;stroke:#f4f4f4;stroke-opacity:1"
   d="M 32.118227,8.8128079 42.364532,7.2364532 44.53202,6.0541872 46.305419,8.2216749 43.546798,9.0098522 40.591133,7.8275862 32.315271,9.7980296 z"
   id="path4967"
   inkscape:connector-curvature="0" /><path
   style="fill:#f6f6f6;fill-opacity:1;stroke:#f4f4f4;stroke-opacity:1"
   d="m 29.162562,6.4482759 3.152709,11.2315271 1.37931,1.37931 3.546798,0.985222 4.334976,-0.985222 7.093596,-1.773399 2.364532,0 0.394088,-0.985221 -2.75862,-2.364532 -2.167488,2.955665 -10.049261,1.970443 -0.985222,-0.788177 -1.576354,-0.788178 -0.591133,-2.364532 -2.561577,-9.4581278 z"
   id="path4969"
   inkscape:connector-curvature="0" /><path
   style="fill:#f6f6f6;fill-opacity:1;stroke:#f4f4f4;stroke-opacity:1"
   d="m 44.926108,1.7192118 3.940887,6.5024631 0.788177,0.7881773 z"
   id="path4971"
   inkscape:connector-curvature="0" /><path
   style="fill:#f6f6f6;fill-opacity:1;stroke:#f4f4f4;stroke-opacity:1"
   d="m 48.275862,1.9162562 2.955665,6.502463 0.591133,0 z"
   id="path4973"
   inkscape:connector-curvature="0" /><path
   style="fill:#f6f6f6;fill-opacity:1;stroke:#f4f4f4;stroke-opacity:1"
   d="m 54.975369,5.8571429 0.985222,4.137931 7.093596,0.3940891 z"
   id="path4975"
   inkscape:connector-curvature="0" /><path
   style="fill:#f6f6f6;fill-opacity:1;stroke:#f4f4f4;stroke-opacity:1"
   d="m 54.975369,18.270936 4.137931,1.576355 4.729065,-0.591133 1.576354,-0.788178 3.743843,-5.123152 1.576354,-4.1379314 1.576355,-4.7290641 -0.591133,-1.9704433 0.788177,2.955665 0.197045,3.3497537 -2.167488,2.9556651 -1.37931,3.546798 -3.349754,3.940887 -4.926108,2.561576 -2.561577,-0.394089 -2.364532,-1.182266 z"
   id="path4977"
   inkscape:connector-curvature="0" /><path
   style="fill:#f6f6f6;fill-opacity:1;stroke:#f4f4f4;stroke-opacity:1"
   d="m 74.679803,10.389163 -0.197044,2.955665 2.75862,-0.788178 -0.788177,-2.364532 z"
   id="path4979"
   inkscape:connector-curvature="0" /><path
   style="fill:#f6f6f6;fill-opacity:1;stroke:#f4f4f4;stroke-opacity:1"
   d="m 77.635468,17.482759 1.37931,-2.561577 3.15271,-7.6847288 1.970443,-2.955665 4.729064,4.3349753 4.729064,6.1083745 3.743842,4.137931 1.576355,1.970443 -3.152709,-0.197044 0,-0.985222 -11.034483,-13.3990145 -3.152709,5.9113305 -2.167488,5.91133 z"
   id="path4981"
   inkscape:connector-curvature="0" /><path
   style="fill:#f6f6f6;fill-opacity:1;stroke:#f4f4f4;stroke-opacity:1"
   d="m 88.866995,3.4926108 0.591133,3.1527094 2.758621,1.5763547 2.561576,0.7881773 1.37931,-2.1674877 -0.197044,-2.7586207 -3.349754,-2.5615763 -3.152709,0.591133 0.985222,0.591133 1.773399,-0.7881773 1.182266,1.3793103 1.37931,0.591133 0.197044,1.182266 -0.788177,2.5615764 -1.970443,0 -2.364532,-1.3793104 0,-1.5763547 0.197044,-2.1674876 z"
   id="path4985"
   inkscape:connector-curvature="0" /><path
   style="fill:#f6f6f6;fill-opacity:1;stroke:#f4f4f4;stroke-opacity:1"
   d="m 98.522167,10.586207 c 0,0.985222 2.167493,3.349754 2.167493,3.349754 z"
   id="path4987"
   inkscape:connector-curvature="0" /><path
   style="fill:#f6f6f6;fill-opacity:1;stroke:#f4f4f4;stroke-opacity:1"
   d="m 102.46305,9.9950739 0.78818,3.5467981 -0.59113,-0.197044 z"
   id="path4989"
   inkscape:connector-curvature="0" /><path
   style="fill:#f6f6f6;fill-opacity:1;stroke:#f4f4f4;stroke-opacity:1"
   d="m 106.00985,10.783251 -0.78818,3.743843 -3.34975,4.137931 4.13793,-3.546798 2.16749,-3.940887 z"
   id="path4991"
   inkscape:connector-curvature="0" /><path
   style="fill:#f6f6f6;fill-opacity:1;stroke:#f4f4f4;stroke-opacity:1"
   d="m 109.55665,3.2955665 2.56158,17.3399015 1.7734,0.591133 0.98522,-1.970443 -1.37931,-0.591133 z"
   id="path4993"
   inkscape:connector-curvature="0" /><path
   style="fill:#f6f6f6;fill-opacity:1;stroke:#f4f4f4;stroke-opacity:1"
   d="m 111.92118,10.389163 8.867,2.955665 -1.57636,3.349753 -8.27586,-6.6995071 z"
   id="path4995"
   inkscape:connector-curvature="0" /><path
   style="fill:#f6f6f6;fill-opacity:1;stroke:#f4f4f4;stroke-opacity:1"
   d="m 123.94089,7.2364532 5.32019,-1.182266 4.72907,-0.7881773 2.75862,-1.5763547 1.7734,2.364532 -0.59114,1.182266 -3.94088,-0.9852217 -9.45813,2.7586207 z"
   id="path4997"
   inkscape:connector-curvature="0" /><path
   style="fill:#f6f6f6;fill-opacity:1;stroke:#f4f4f4;stroke-opacity:1"
   d="m 127.29064,2.1133005 4.53202,16.1576355 2.95567,1.576355 0.19704,-3.15271 -1.57636,-0.197044 z"
   id="path4999"
   inkscape:connector-curvature="0" /><path
   style="fill:#f6f6f6;fill-opacity:1;stroke:#f4f4f4;stroke-opacity:1"
   d="m 125.71429,13.147783 -2.95567,6.699508 1.97044,0.394088 1.57636,-5.123152 z"
   id="path5001"
   inkscape:connector-curvature="0" /><path
   style="fill:#f6f6f6;fill-opacity:1;stroke:#f4f4f4;stroke-opacity:1"
   d="m 134.97537,13.541872 3.74384,5.714286 0.19705,-5.123153 z"
   id="path5003"
   inkscape:connector-curvature="0" /><path
   style="fill:#f6f6f6;fill-opacity:1;stroke:#f4f4f4;stroke-opacity:1"
   d="m 135.96059,1.5221675 5.12315,5.5172414 0.19705,-0.3940887 -4.33498,-4.729064 z"
   id="path5005"
   inkscape:connector-curvature="0" /><path
   style="fill:#f6f6f6;fill-opacity:1;stroke:#f4f4f4;stroke-opacity:1"
   d="m 140.09852,2.5073892 2.95567,4.9261083 0.78817,-0.3940886 -2.75862,-4.5320197 z"
   id="path5007"
   inkscape:connector-curvature="0" /><path
   style="fill:#f6f6f6;fill-opacity:1;stroke:#f4f4f4;stroke-opacity:1"
   d="m 145.41872,1.9162562 0.59113,18.5221678 1.57636,1.970443 0.78817,-3.743842 -1.77339,-2.758621 -0.39409,-12.8078818 z"
   id="path5009"
   inkscape:connector-curvature="0" /><path
   style="fill:#f6f6f6;fill-opacity:1;stroke:#f4f4f4;stroke-opacity:1"
   d="m 146.00985,12.359606 6.30542,3.940887 -1.7734,-5.714286 z"
   id="path5011"
   inkscape:connector-curvature="0" /><path
   style="fill:#f6f6f6;fill-opacity:1;stroke:#f4f4f4;stroke-opacity:1"
   d="m 155.46798,3.2955665 0,3.9408867 0.19704,7.0935958 -0.39408,4.137931 -1.18227,1.970444 -2.56158,1.37931 -0.39409,0.197044 3.94089,-1.182266 1.57636,-2.167487 -0.19705,-6.502463 0,-5.1231531 0,-2.7586207 z"
   id="path5013"
   inkscape:connector-curvature="0" /><path
   style="fill:#f6f6f6;fill-opacity:1;stroke:#f4f4f4;stroke-opacity:1"
   d="m 160.39409,3.8866995 c 0,0 -0.39409,7.8817735 -0.19705,9.0640395 0.19705,1.182266 0.78818,3.546798 0.78818,3.546798 l 0.39409,5.123153 4.92611,-2.561577 2.16749,-2.364532 0.19704,-3.940886 -1.18227,-2.364532 0,1.970443 -0.39408,2.955665 -3.15271,3.349754 -1.7734,0.788177 -0.19705,-5.517241 -0.19704,-4.7290644 -0.19705,-2.9556651 0.19705,-1.3793103 z"
   id="path5015"
   inkscape:connector-curvature="0" /></svg>
