<?xml version="1.0" encoding="UTF-8" standalone="no"?>
<!-- Generator: Adobe Illustrator 16.0.4, SVG Export Plug-In . SVG Version: 6.00 Build 0)  -->

<svg
   xmlns:dc="http://purl.org/dc/elements/1.1/"
   xmlns:cc="http://creativecommons.org/ns#"
   xmlns:rdf="http://www.w3.org/1999/02/22-rdf-syntax-ns#"
   xmlns:svg="http://www.w3.org/2000/svg"
   xmlns="http://www.w3.org/2000/svg"
   xmlns:sodipodi="http://sodipodi.sourceforge.net/DTD/sodipodi-0.dtd"
   xmlns:inkscape="http://www.inkscape.org/namespaces/inkscape"
   version="1.1"
   id="レイヤー_1"
   x="0px"
   y="0px"
   width="220"
   height="24"
   viewBox="0 0 220 24"
   enable-background="new 0 0 120 23"
   xml:space="preserve"
   inkscape:version="0.48.5 r10040"
   sodipodi:docname="petto.svg"><metadata
   id="metadata4427"><rdf:RDF><cc:Work
       rdf:about=""><dc:format>image/svg+xml</dc:format><dc:type
         rdf:resource="http://purl.org/dc/dcmitype/StillImage" /></cc:Work></rdf:RDF></metadata><defs
   id="defs4425" /><sodipodi:namedview
   pagecolor="#ffffff"
   bordercolor="#666666"
   borderopacity="1"
   objecttolerance="10"
   gridtolerance="10"
   guidetolerance="10"
   inkscape:pageopacity="0"
   inkscape:pageshadow="2"
   inkscape:window-width="1366"
   inkscape:window-height="706"
   id="namedview4423"
   showgrid="false"
   inkscape:zoom="5.075"
   inkscape:cx="98.506598"
   inkscape:cy="16.507389"
   inkscape:window-x="-8"
   inkscape:window-y="-8"
   inkscape:window-maximized="1"
   inkscape:current-layer="flowRoot4276"
   showguides="true"
   inkscape:guide-bbox="true"><sodipodi:guide
     orientation="0,1"
     position="-5.91133,35.665025"
     id="guide4284" /></sodipodi:namedview>





<text
   xml:space="preserve"
   style="font-size:13.42425632px;font-style:normal;font-weight:normal;line-height:125%;letter-spacing:0px;word-spacing:0px;fill:#f6f6f6;fill-opacity:1;stroke:none;font-family:Sans"
   x="6.7928081"
   y="13.176561"
   id="text4429"
   sodipodi:linespacing="125%"
   transform="scale(0.7536626,1.3268537)"><tspan
     sodipodi:role="line"
     x="6.7928081"
     y="13.176561"
     id="tspan4433"
     style="font-size:13px" /></text>

<flowRoot
   xml:space="preserve"
   id="flowRoot4945"
   style="font-size:11px;font-style:normal;font-weight:normal;line-height:125%;letter-spacing:0px;word-spacing:0px;fill:#000000;fill-opacity:1;stroke:none;font-family:Sans"
   transform="translate(0,1)"><flowRegion
     id="flowRegion4947"><rect
       id="rect4949"
       width="392.31528"
       height="103.64532"
       x="32.118225"
       y="-121.23645" /></flowRegion><flowPara
     id="flowPara4951" /></flowRoot><g
   transform="translate(6.3054187,-2.1527094)"
   style="font-size:11px;font-style:normal;font-weight:normal;line-height:125%;letter-spacing:0px;word-spacing:0px;fill:#f2f2f2;fill-opacity:1;stroke:none;font-family:Sans"
   id="flowRoot4276"><path
     d="M -0.15625,3.203125 C 0.86457203,4.0781462 1.7031129,4.7708539 2.359375,5.28125 2.2864456,5.5729364 2.2499873,5.9010611 2.25,6.265625 2.2499873,6.7760602 2.1406124,7.3593929 1.921875,8.015625 1.848946,8.2343921 1.7760295,8.4166835 1.703125,8.5625 3.4531111,8.4166835 4.54686,8.3073087 4.984375,8.234375 6.0051919,7.4323095 6.6614412,7.0312683 6.953125,7.03125 c 0.5833154,0.2916846 1.3124813,0.6927259 2.1875,1.203125 0.5833132,0.3646 0.87498,0.6562664 0.875,0.875 -2e-5,0.2916826 -0.2187702,0.5104323 -0.65625,0.65625 C 8.6301893,9.9114737 8.0103982,9.9843903 7.5,9.984375 7.2083157,9.9843903 6.7343578,10.020849 6.078125,10.09375 4.7656098,10.458348 3.7083192,10.859389 2.90625,11.296875 c 0.291653,0.07293 0.656236,0.218764 1.09375,0.4375 0.5833183,0.29168 0.911443,1.020846 0.984375,2.1875 1.3124833,-0.07291 2.6978985,-0.109364 4.15625,-0.109375 1.239563,1.1e-5 2.515603,0.291678 3.828125,0.875 0.36456,0.291677 0.510393,0.546885 0.4375,0.765625 -0.218774,0.510426 -0.765648,0.765634 -1.640625,0.765625 -1.531271,-0.145824 -3.0625191,-0.291657 -4.59375,-0.4375 -0.8750167,-0.07291 -1.6041827,-0.03645 -2.1875,0.109375 -0.072932,1.385425 -0.1458486,2.515632 -0.21875,3.390625 l -0.109375,1.3125 c -1.51e-5,0.583337 -0.036473,1.057295 -0.109375,1.421875 1.3854003,-0.14583 2.9166488,-0.03646 4.59375,0.328125 0.072897,-0.218747 0.1458136,-0.510413 0.21875,-0.875 L 9.46875,20.375 l 0,-0.4375 C 9.4687301,19.500006 9.3958135,19.062506 9.25,18.625 9.1041471,18.114591 9.1406054,17.750008 9.359375,17.53125 c 1.020813,0.583341 1.71352,1.130215 2.078125,1.640625 0.364561,0.437506 0.546853,0.98438 0.546875,1.640625 -2.2e-5,0.364587 -0.109397,1.203128 -0.328125,2.515625 -0.218772,1.312501 -0.583355,2.041667 -1.09375,2.1875 -0.8750201,0.437499 -1.4948112,0.619791 -1.859375,0.546875 -0.2187689,-0.145834 -0.3646021,-0.255209 -0.4375,-0.328125 0.1458145,-0.4375 0.2916477,-0.911458 0.4375,-1.421875 L 8.15625,24.203125 5.859375,24.09375 C 3.2343613,24.166668 0.79165544,24.677084 -1.46875,25.625 l -0.4375,0 c -0.5833413,0 -1.166674,-0.765625 -1.75,-2.296875 0.5104094,-0.802081 0.9843672,-1.640621 1.421875,-2.515625 L -2.125,20.375 c 0.072908,-0.437495 -8.3e-6,-0.765619 -0.21875,-0.984375 -0.3645911,-0.29166 -0.4010494,-0.437494 -0.109375,-0.4375 1.0937409,0.14584 1.89582345,0.510422 2.40625,1.09375 l 0.21875,0.765625 c 0.072906,0.364587 -0.0364689,0.838545 -0.328125,1.421875 -0.0729269,0.218753 -0.0364686,0.437503 0.109375,0.65625 0.87498873,-0.145831 1.6770713,-0.291664 2.40625,-0.4375 -0.4375124,-0.874996 -0.510429,-1.531246 -0.21875,-1.96875 l 0.109375,-1.75 0.109375,-2.40625 c -1.2395949,0.291675 -2.11459402,0.583342 -2.625,0.875 -0.72917611,0.437508 -1.6406335,0.802091 -2.734375,1.09375 -1.3125061,0.07292 -2.1875052,-0.473951 -2.625,-1.640625 -0.145838,-0.510408 0.1458284,-0.87499 0.875,-1.09375 -5.7e-6,0.437509 0.1822858,0.729176 0.546875,0.875 0.3645767,-0.07291 1.4218673,-0.473949 3.171875,-1.203125 0.65623994,-0.291656 1.82290544,-0.619781 3.5,-0.984375 C 2.3958205,13.666678 2.213529,13.119804 1.921875,12.609375 1.7031129,12.317721 1.4843631,12.062513 1.265625,11.84375 0.68228055,12.062513 0.17186439,12.281263 -0.265625,12.5 c 1.02082214,-0.874986 1.7499881,-1.458319 2.1875,-1.75 -0.94792808,0.145848 -1.96876039,0.546889 -3.0625,1.203125 -0.2916757,0.07293 -0.5468837,0.07293 -0.765625,0 C -2.0520917,11.807305 -2.1250083,11.552097 -2.125,11.1875 l 0,-0.21875 c -8.3e-6,-0.364569 -0.036467,-0.802068 -0.109375,-1.3125 -8.2e-6,-0.2187341 0.1822833,-0.5468588 0.546875,-0.984375 0.94790697,-1.1666489 1.53123972,-1.8958148 1.75,-2.1875 C 0.20832269,6.1198108 0.28123928,5.645853 0.28125,5.0625 0.28123928,4.8437705 0.0624895,4.2239794 -0.375,3.203125 c -1.006e-5,-0.072894 0.0729065,-0.072894 0.21875,0 z"
     style="font-size:28px;font-variant:normal;font-stretch:normal;fill:#f2f2f2;font-family:HGPGyoshotai;-inkscape-font-specification:HGPGyoshotai"
     id="path4287" /><path
     d="m 24.015625,13.59375 c 0.802076,1.2e-5 1.604159,0.437511 2.40625,1.3125 -0.07293,0.291677 -0.109384,0.619801 -0.109375,0.984375 -9e-6,0.437509 -0.218759,0.984383 -0.65625,1.640625 -0.145841,0.07292 -0.401049,0.109383 -0.765625,0.109375 -1.166673,8e-6 -2.114589,-0.984366 -2.84375,-2.953125 -0.145838,-0.656239 0.510412,-1.020822 1.96875,-1.09375 z"
     style="font-size:28px;font-variant:normal;font-stretch:normal;fill:#f2f2f2;font-family:HGPGyoshotai;-inkscape-font-specification:HGPGyoshotai"
     id="path4289" /><path
     d="m 45.015625,7.46875 c 0.656236,1.78e-5 1.348944,0.2552259 2.078125,0.765625 0.364567,0.3646 0.437484,0.7656413 0.21875,1.203125 L 47.09375,9.875 c -0.656265,0.218765 -1.239598,0.072932 -1.75,-0.4375 C 44.687487,8.9270997 44.031238,8.343767 43.375,7.6875 43.156238,7.4687678 43.192697,7.3593929 43.484375,7.359375 z M 47.3125,5.0625 c 1.822899,0.2916866 2.734357,0.9114777 2.734375,1.859375 C 49.97394,7.2135597 49.718732,7.3958512 49.28125,7.46875 48.406233,7.614601 47.276026,6.9218934 45.890625,5.390625 46.32811,5.1718951 46.802068,5.0625202 47.3125,5.0625 z M 34.40625,6.921875 c 1.895829,0.2916847 2.807286,1.0937673 2.734375,2.40625 -0.145839,1.093765 -0.291672,2.187514 -0.4375,3.28125 0.874994,1.3e-5 1.786451,-0.14582 2.734375,-0.4375 0.947908,-0.291653 1.567699,-0.58332 1.859375,-0.875 1.604155,0.07293 2.661446,0.401055 3.171875,0.984375 0.218737,0.291679 0.14582,0.583346 -0.21875,0.875 -1.020845,0.583345 -2.114594,0.947928 -3.28125,1.09375 -1.166675,0.145844 -2.406257,0.218761 -3.71875,0.21875 -0.291672,-0.07291 -0.583338,-0.218739 -0.875,-0.4375 l -0.109375,2.296875 c -0.07292,1.166674 -0.03646,2.11459 0.109375,2.84375 0.437495,0.875005 1.38541,1.348963 2.84375,1.421875 1.96874,0.07292 3.281239,-0.07291 3.9375,-0.4375 0.947904,0.218755 1.822903,0.54688 2.625,0.984375 0.437485,0.291671 0.656235,0.656254 0.65625,1.09375 -1.5e-5,0.364586 -0.145848,0.656252 -0.4375,0.875 -0.364597,0.145835 -0.692722,0.218752 -0.984375,0.21875 -1.093762,2e-6 -3.06251,-0.03646 -5.90625,-0.109375 -1.312506,-0.218748 -2.369797,-0.619789 -3.171875,-1.203125 -1.093753,-0.874996 -1.713544,-1.85937 -1.859375,-2.953125 -0.218752,-0.947909 -0.291669,-2.406241 -0.21875,-4.375 0.145831,-2.114571 0.255206,-4.119777 0.328125,-6.015625 -3e-6,-0.4374829 -0.145836,-0.8020659 -0.4375,-1.09375 0.145831,-0.3645653 0.364581,-0.583315 0.65625,-0.65625 z"
     style="font-size:28px;font-variant:normal;font-stretch:normal;fill:#f2f2f2;font-family:HGPGyoshotai;-inkscape-font-specification:HGPGyoshotai"
     id="path4291" /><path
     d="m 55.1875,7.03125 c 1.82291,0.072935 3.135409,0.2916846 3.9375,0.65625 0.729157,0.291684 1.09374,1.0208499 1.09375,2.1875 -0.291676,0.291682 -0.692718,0.437515 -1.203125,0.4375 C 58.28645,10.312515 57.593743,10.093765 56.9375,9.65625 56.135411,9.1458495 55.041662,8.1979338 53.65625,6.8125 c 0.437496,0.072935 0.947912,0.1458517 1.53125,0.21875 z m 13.015625,7 c -0.291684,1.604176 -1.385433,3.135425 -3.28125,4.59375 -3.354178,2.187504 -6.270842,3.864586 -8.75,5.03125 -0.364589,0.291668 -0.692714,0.546876 -0.984375,0.765625 -0.291671,-0.218749 -0.619796,-0.437499 -0.984375,-0.65625 -0.437503,-0.364581 -0.765628,-0.802081 -0.984375,-1.3125 0.14583,-0.80208 -0.109378,-1.677079 -0.765625,-2.625 1.312497,-0.07291 2.260412,0.145839 2.84375,0.65625 0.802078,-0.145828 2.406243,-0.729161 4.8125,-1.75 2.406238,-1.020826 4.484361,-2.114575 6.234375,-3.28125 0.802066,-0.510406 1.421858,-0.984364 1.859375,-1.421875 z"
     style="font-size:28px;font-variant:normal;font-stretch:normal;fill:#f2f2f2;font-family:HGPGyoshotai;-inkscape-font-specification:HGPGyoshotai"
     id="path4293" /><path
     d="m 76.953125,13.59375 c 0.802076,1.2e-5 1.604159,0.437511 2.40625,1.3125 -0.07292,0.291677 -0.109384,0.619801 -0.109375,0.984375 -9e-6,0.437509 -0.218759,0.984383 -0.65625,1.640625 -0.145841,0.07292 -0.401049,0.109383 -0.765625,0.109375 -1.166673,8e-6 -2.114589,-0.984366 -2.84375,-2.953125 -0.145838,-0.656239 0.510412,-1.020822 1.96875,-1.09375 z"
     style="font-size:28px;font-variant:normal;font-stretch:normal;fill:#f2f2f2;font-family:HGPGyoshotai;-inkscape-font-specification:HGPGyoshotai"
     id="path4295" /><path
     d="m 104.1875,7.140625 c 1.09373,0.5104343 1.6406,1.0208505 1.64063,1.53125 -3e-5,0.656266 -0.14586,1.0937655 -0.4375,1.3125 -0.14586,0.145849 -0.58336,0.401057 -1.3125,0.765625 -0.36461,0.218764 -0.76565,0.145848 -1.20313,-0.21875 -0.43752,-0.437485 -0.72918,-0.7291512 -0.875,-0.875 -0.21877,-0.1458175 -0.32814,-0.4374839 -0.32812,-0.875 -0.0729,-1.166649 0.36456,-1.7499817 1.3125,-1.75 z m -0.98437,0.875 c -0.29169,0.072934 -0.47398,0.3646003 -0.54688,0.875 -2e-5,0.5104326 0.36456,0.7291823 1.09375,0.65625 0.14581,-0.1458174 0.36456,-0.4010255 0.65625,-0.765625 L 104.1875,8.234375 c -0.0729,-0.2916493 -0.40106,-0.3645659 -0.98437,-0.21875 z m -9.406255,3.9375 c 0.947906,1.3e-5 1.895822,0.29168 2.84375,0.875 1.23957,0.656262 3.135401,1.786469 5.687505,3.390625 2.33331,1.166675 4.01039,2.005215 5.03125,2.515625 0.87497,0.656256 1.31247,1.239589 1.3125,1.75 -3e-5,0.583338 -0.2917,0.875004 -0.875,0.875 -2.18753,-0.802079 -4.15627,-1.786453 -5.90625,-2.953125 -2.260437,-1.531242 -4.33856,-2.953115 -6.23438,-4.265625 -0.291678,-0.218739 -0.619802,-0.328114 -0.984375,-0.328125 -0.21876,1.1e-5 -0.838551,0.401053 -1.859375,1.203125 -0.875007,0.583343 -1.822923,0.947926 -2.84375,1.09375 -0.802088,9e-6 -1.859379,-0.546865 -3.171875,-1.640625 0.510414,-0.07291 1.057288,-0.182281 1.640625,-0.328125 0.802079,-0.437488 1.713536,-0.83853 2.734375,-1.203125 1.093742,-0.58332 1.968741,-0.911445 2.625,-0.984375 z"
     style="font-size:28px;font-variant:normal;font-stretch:normal;fill:#f2f2f2;font-family:HGPGyoshotai;-inkscape-font-specification:HGPGyoshotai"
     id="path4297" /><path
     d="m 118.51563,11.84375 c 1.23957,0.802096 1.96874,1.677095 2.1875,2.625 0.21873,0.583344 0.21873,1.09376 0,1.53125 -0.3646,0.437509 -0.83856,0.401051 -1.42188,-0.109375 -0.36459,-0.364574 -0.54688,-0.729157 -0.54687,-1.09375 -0.0729,-0.364572 -0.10939,-1.020822 -0.10938,-1.96875 -1e-5,-0.36457 -0.0365,-0.692695 -0.10937,-0.984375 z m 6.34375,0.765625 c 0.58331,0.291679 1.2031,0.838554 1.85937,1.640625 -2e-5,1.677093 -1.13022,3.718757 -3.39062,6.125 -2.26043,2.406253 -5.14064,3.864584 -8.64063,4.375 l -0.10937,-0.109375 0.65625,-0.328125 c 2.62499,-1.166665 4.81249,-2.807288 6.5625,-4.921875 1.8229,-2.114575 2.73436,-3.901032 2.73437,-5.359375 -1e-5,-0.510405 -0.21876,-0.947904 -0.65625,-1.3125 0.29165,1.3e-5 0.61978,-0.03645 0.98438,-0.109375 z m -10.9375,0.984375 c 0.72916,0.145845 1.34895,0.546886 1.85937,1.203125 0.29166,0.364593 0.51041,0.802093 0.65625,1.3125 -0.0729,0.802092 -0.36459,1.239591 -0.875,1.3125 -0.4375,-0.07291 -1.02084,-0.729158 -1.75,-1.96875 -0.21875,-0.947906 -0.47396,-1.567697 -0.76562,-1.859375 0.21874,-0.07291 0.51041,-0.07291 0.875,0 z"
     style="font-size:28px;font-variant:normal;font-stretch:normal;fill:#f2f2f2;font-family:HGPGyoshotai;-inkscape-font-specification:HGPGyoshotai"
     id="path4299" /><path
     d="m 135.03125,13.046875 c 1.38541,0.07293 2.69791,0.291679 3.9375,0.65625 2.18749,0.729178 3.24478,1.567718 3.17187,2.515625 -0.0729,0.437509 -0.29167,0.692717 -0.65625,0.765625 -1.67709,-0.07291 -3.82813,-0.947907 -6.45312,-2.625 0.29166,4.812506 0.43749,7.838545 0.4375,9.078125 -1e-5,0.656251 -0.10938,1.130209 -0.32813,1.421875 -0.21875,0.364583 -0.58333,0.546875 -1.09375,0.546875 -1.02083,-0.583333 -1.56771,-1.531249 -1.64062,-2.84375 L 132.625,21.46875 132.84375,15.5625 132.625,9.109375 C 132.55208,8.0156423 132.29687,7.250018 131.85937,6.8125 l 0,-0.4375 c 0.65625,1.89e-5 1.23958,0.1093938 1.75,0.328125 0.36458,0.072935 0.80208,0.291685 1.3125,0.65625 0.4375,0.3646009 0.65625,0.7656422 0.65625,1.203125 -0.14583,0.7291827 -0.29167,1.567724 -0.4375,2.515625 -0.0729,0.583347 -0.10938,1.239596 -0.10937,1.96875 z"
     style="font-size:28px;font-variant:normal;font-stretch:normal;fill:#f2f2f2;font-family:HGPGyoshotai;-inkscape-font-specification:HGPGyoshotai"
     id="path4301" /><path
     d="m 158.32812,13.8125 c -1e-5,3.135425 0.0364,5.541673 0.10938,7.21875 0.14582,1.531253 0.0729,2.66146 -0.21875,3.390625 -0.29168,0.729167 -0.72918,1.166666 -1.3125,1.3125 -1.16668,-0.510417 -2.55209,-1.604166 -4.15625,-3.28125 -0.29168,-0.291664 -0.51043,-0.546872 -0.65625,-0.765625 0.58332,0.218753 1.20312,0.364587 1.85937,0.4375 l 1.42188,0 c 0.29165,-0.14583 0.47395,-0.328121 0.54687,-0.546875 0.0729,-0.291663 0.10937,-1.057287 0.10938,-2.296875 -0.0729,-1.749992 -0.10939,-3.49999 -0.10938,-5.25 -0.51042,1.1e-5 -1.09376,0.03647 -1.75,0.109375 -0.51042,1.1e-5 -0.98438,0.03647 -1.42187,0.109375 -1.60417,-0.510405 -2.91667,-1.166654 -3.9375,-1.96875 1.96874,-0.14582 3.64582,-0.255195 5.03125,-0.328125 0.58332,1.3e-5 1.23957,-0.03645 1.96875,-0.109375 0.0729,-1.093735 0.21874,-2.4062341 0.4375,-3.9375 -0.29168,-0.3645656 -0.58335,-0.7656068 -0.875,-1.203125 -0.14584,-0.3645644 -0.25522,-0.6562307 -0.32813,-0.875 0.36458,-0.1458137 0.80208,-0.2551886 1.3125,-0.328125 1.53124,0.3646028 2.47916,1.2396019 2.84375,2.625 -0.36459,1.0937661 -0.6198,2.29689 -0.76562,3.609375 l 1.64062,-0.21875 c 0.21874,-0.0729 0.43749,-0.218736 0.65625,-0.4375 0.65624,1.4e-5 1.45832,0.03647 2.40625,0.109375 0.87498,0.218764 1.49478,0.51043 1.85938,0.875 0.29165,0.364596 0.25519,0.656263 -0.10938,0.875 l -0.54687,0.21875 c -2.5521,0.364595 -4.55731,0.583345 -6.01563,0.65625 z m -4.48437,3.9375 c -0.29168,0.729173 -0.98438,1.531256 -2.07813,2.40625 -1.02084,0.802088 -2.51563,1.203129 -4.48437,1.203125 -0.58334,-0.07291 -0.94792,-0.182288 -1.09375,-0.328125 2.04166,-0.729162 3.68229,-1.968744 4.92187,-3.71875 l -0.32812,-0.765625 c -1e-5,-0.218741 0.21874,-0.328116 0.65625,-0.328125 l 0.875,0 c 1.02082,0.510425 1.53124,1.020841 1.53125,1.53125 z m 8.96875,1.421875 c -0.8021,-0.802076 -1.42189,-1.604159 -1.85938,-2.40625 0.36457,-0.07291 0.76561,-0.07291 1.20313,0 1.16665,0.218758 2.22394,0.656258 3.17187,1.3125 1.3854,0.729173 2.11456,1.640631 2.1875,2.734375 -0.0729,0.364587 -0.25523,0.619796 -0.54687,0.765625 -1.38544,-0.145829 -2.77085,-0.947912 -4.15625,-2.40625 z m 2.07812,-14.4375 c 0.72915,-0.2916458 1.49477,-0.3645624 2.29688,-0.21875 1.02081,0.145854 1.60414,0.5833535 1.75,1.3125 -3e-5,0.437519 -0.36461,0.6562688 -1.09375,0.65625 -0.58336,1.88e-5 -1.56773,-0.5833139 -2.95313,-1.75 z M 164.5625,6.59375 c 0.80206,0.072935 1.45831,0.4375183 1.96875,1.09375 C 167.11456,8.4896001 167.00519,8.9270997 166.20312,9 164.81769,8.8541831 163.83331,8.2708504 163.25,7.25 163.10415,7.0312683 162.99477,6.8489768 162.92187,6.703125 z"
     style="font-size:28px;font-variant:normal;font-stretch:normal;fill:#f2f2f2;font-family:HGPGyoshotai;-inkscape-font-specification:HGPGyoshotai"
     id="path4303" /><path
     d="m 175.82812,13.046875 c 1.38541,0.07293 2.69791,0.291679 3.9375,0.65625 2.18749,0.729178 3.24478,1.567718 3.17188,2.515625 -0.0729,0.437509 -0.29168,0.692717 -0.65625,0.765625 -1.67709,-0.07291 -3.82813,-0.947907 -6.45313,-2.625 0.29167,4.812506 0.4375,7.838545 0.4375,9.078125 0,0.656251 -0.10938,1.130209 -0.32812,1.421875 -0.21876,0.364583 -0.58334,0.546875 -1.09375,0.546875 -1.02084,-0.583333 -1.56771,-1.531249 -1.64063,-2.84375 l 0.21875,-1.09375 0.21875,-5.90625 -0.21875,-6.453125 C 173.34895,8.0156423 173.09375,7.250018 172.65625,6.8125 l 0,-0.4375 c 0.65625,1.89e-5 1.23958,0.1093938 1.75,0.328125 0.36458,0.072935 0.80208,0.291685 1.3125,0.65625 0.43749,0.3646009 0.65624,0.7656422 0.65625,1.203125 -0.14584,0.7291827 -0.29167,1.567724 -0.4375,2.515625 -0.0729,0.583347 -0.10938,1.239596 -0.10938,1.96875 z"
     style="font-size:28px;font-variant:normal;font-stretch:normal;fill:#f2f2f2;font-family:HGPGyoshotai;-inkscape-font-specification:HGPGyoshotai"
     id="path4305" /><path
     d="m 198.79687,6.703125 c 1.74999,0.3646016 2.73436,0.9843926 2.95313,1.859375 -2e-5,0.5104329 -0.0729,1.0937656 -0.21875,1.75 -0.43752,2.697929 -0.69272,5.578134 -0.76563,8.640625 -1e-5,0.510422 -1e-5,0.911464 0,1.203125 1.67707,-0.656244 3.42707,-1.494785 5.25,-2.515625 1.31248,-0.729158 2.2604,-1.531241 2.84375,-2.40625 -0.14585,0.583343 -0.32814,1.093759 -0.54687,1.53125 -0.87502,2.11459 -3.20835,4.156254 -7,6.125 -0.51043,0.583335 -1.05731,0.947918 -1.64063,1.09375 -0.58334,-0.291665 -1.16668,-1.057289 -1.75,-2.296875 -1e-5,-0.364579 0.0729,-0.729162 0.21875,-1.09375 0.14582,-2.770826 0.29166,-6.52603 0.4375,-11.265625 0.0729,-0.5833168 -0.21876,-1.348941 -0.875,-2.296875 0.14583,-0.1458149 0.32812,-0.2551898 0.54688,-0.328125 z m -6.67187,2.40625 c 1.02082,-0.0729 1.85937,0.036475 2.51562,0.328125 0.72916,0.510432 1.16666,0.98439 1.3125,1.421875 -1e-5,2.625012 -0.72917,4.958343 -2.1875,7 -1.38542,1.895839 -3.0625,3.026046 -5.03125,3.390625 -0.65625,0.145837 -1.23958,0.145837 -1.75,0 0.4375,-0.145829 0.875,-0.328121 1.3125,-0.546875 3.0625,-2.187493 4.66666,-5.286448 4.8125,-9.296875 0,-0.583319 -0.10938,-1.130193 -0.32812,-1.640625 -0.21876,-0.2187342 -0.43751,-0.437484 -0.65625,-0.65625 z"
     style="font-size:28px;font-variant:normal;font-stretch:normal;fill:#f2f2f2;font-family:HGPGyoshotai;-inkscape-font-specification:HGPGyoshotai"
     id="path4307" /></g></svg>
