<?xml version="1.0" encoding="UTF-8" standalone="no"?>
<!-- Generator: Adobe Illustrator 16.0.4, SVG Export Plug-In . SVG Version: 6.00 Build 0)  -->

<svg
   xmlns:dc="http://purl.org/dc/elements/1.1/"
   xmlns:cc="http://creativecommons.org/ns#"
   xmlns:rdf="http://www.w3.org/1999/02/22-rdf-syntax-ns#"
   xmlns:svg="http://www.w3.org/2000/svg"
   xmlns="http://www.w3.org/2000/svg"
   xmlns:sodipodi="http://sodipodi.sourceforge.net/DTD/sodipodi-0.dtd"
   xmlns:inkscape="http://www.inkscape.org/namespaces/inkscape"
   version="1.1"
   id="レイヤー_1"
   x="0px"
   y="0px"
   width="172"
   height="23"
   viewBox="0 0 172 23"
   enable-background="new 0 0 120 23"
   xml:space="preserve"
   inkscape:version="0.48.5 r10040"
   sodipodi:docname="kosi02.svg"><metadata
   id="metadata4427"><rdf:RDF><cc:Work
       rdf:about=""><dc:format>image/svg+xml</dc:format><dc:type
         rdf:resource="http://purl.org/dc/dcmitype/StillImage" /><dc:title></dc:title></cc:Work></rdf:RDF></metadata><defs
   id="defs4425" /><sodipodi:namedview
   pagecolor="#ffffff"
   bordercolor="#666666"
   borderopacity="1"
   objecttolerance="10"
   gridtolerance="10"
   guidetolerance="10"
   inkscape:pageopacity="0"
   inkscape:pageshadow="2"
   inkscape:window-width="1366"
   inkscape:window-height="706"
   id="namedview4423"
   showgrid="false"
   inkscape:zoom="5.075"
   inkscape:cx="72.563547"
   inkscape:cy="16.507389"
   inkscape:window-x="-8"
   inkscape:window-y="-8"
   inkscape:window-maximized="1"
   inkscape:current-layer="レイヤー_1" />





<text
   xml:space="preserve"
   style="font-size:13.42425632px;font-style:normal;font-weight:normal;line-height:125%;letter-spacing:0px;word-spacing:0px;fill:#f6f6f6;fill-opacity:1;stroke:none;font-family:Sans"
   x="6.7928081"
   y="12.422898"
   id="text4429"
   sodipodi:linespacing="125%"
   transform="scale(0.7536626,1.3268537)"><tspan
     sodipodi:role="line"
     x="6.7928081"
     y="12.422898"
     id="tspan4433"
     style="font-size:13px" /></text>


<flowRoot
   xml:space="preserve"
   id="flowRoot4945"
   style="font-size:11px;font-style:normal;font-weight:normal;line-height:125%;letter-spacing:0px;word-spacing:0px;fill:#000000;fill-opacity:1;stroke:none;font-family:Sans"><flowRegion
     id="flowRegion4947"><rect
       id="rect4949"
       width="392.31528"
       height="103.64532"
       x="32.118225"
       y="-121.23645" /></flowRegion><flowPara
     id="flowPara4951" /></flowRoot><path
   style="fill:#f6f6f6;fill-opacity:1;stroke:#f4f4f4;stroke-opacity:1"
   d="m 6.5024631,4.4778325 0.9852216,3.1527094 1.5763547,1.182266 -0.3940887,-0.9852217 5.1231523,-1.773399 3.349754,0 4.137931,-0.3940887 1.970444,1.773399 -1.182266,-4.9261083 -1.970444,-0.3940887 -1.37931,1.773399 -3.15271,0.7881773 -4.334975,0.9852217 -3.1527093,0.9852217 z"
   id="path3159"
   inkscape:connector-curvature="0" /><path
   style="fill:#f6f6f6;fill-opacity:1;stroke:#f4f4f4;stroke-opacity:1"
   d="m 10.837438,1.9162562 -0.788177,1.182266 1.773399,2.364532 0.591133,-0.591133 0.394089,2.1674877 1.576354,2.5615763 0.197045,1.3793108 3.152709,0.788177 L 17.931034,9.4039409 16.35468,8.6157635 14.187192,5.2660099 13.596059,3.2955665 14.384236,2.7044335 z"
   id="path3161"
   inkscape:connector-curvature="0" /><path
   style="fill:#f6f6f6;fill-opacity:1;stroke:#f4f4f4;stroke-opacity:1"
   d="m 9.0640394,11.768473 -2.955665,0.394089 0.7881773,1.773399 0.9852217,0.591133 0.7881773,0 4.3349753,5.714285 -0.788177,0 2.167487,0.985222 1.576355,-2.758621 -2.364532,-0.788177 -2.561576,-3.152709 z"
   id="path3163"
   inkscape:connector-curvature="0" /><path
   style="fill:#f6f6f6;fill-opacity:1;stroke:#f4f4f4;stroke-opacity:1"
   d="M 9.6551724,12.950739 15.763547,11.965517 20.8867,9.4039409 21.871921,9.2068966 21.280788,7.8275862 l 3.940887,0.9852217 0.788177,2.1674881 -1.182266,0.985221 0.591133,7.487685 -2.364532,0 0,-2.364532 0.394089,-2.561576 -0.591133,-2.955665 -1.576355,-1.182266 -6.502463,3.546798 -2.955665,0.394088 z"
   id="path3165"
   inkscape:connector-curvature="0" /><path
   style="fill:#f6f6f6;fill-opacity:1;stroke:#f4f4f4;stroke-opacity:1"
   d="m 14.778325,19.453202 8.275862,-1.773399 2.167488,-0.788177 1.773399,0 0.591133,2.75862 -3.940887,1.182266 -0.985221,-1.970443 -6.699508,2.364532 z"
   id="path3167"
   inkscape:connector-curvature="0" /><path
   style="fill:#f6f6f6;fill-opacity:1;stroke:#f4f4f4;stroke-opacity:1"
   d="m 33.300493,1.9162562 -0.197045,1.773399 -1.970443,1.9704433 0.197044,0.591133 1.773399,0.9852217 1.182266,0 -1.37931,-1.3793103 -0.591133,0 0.788177,-1.1822661 z"
   id="path3169"
   inkscape:connector-curvature="0" /><path
   style="fill:#f6f6f6;fill-opacity:1;stroke:#f4f4f4;stroke-opacity:1"
   d="m 35.270936,3.4926108 -2.167488,3.7438424 -1.37931,2.364532 -1.576355,0.9852218 0.394089,1.37931 2.364532,0.591133 3.546798,-1.182266 3.152709,-1.182266 1.182266,0.985222 0.591133,1.37931 0.788178,1.379311 0.985221,-1.182266 0.788178,-1.182266 -1.182266,-0.788178 -1.379311,-0.9852214 -2.167487,-2.9556651 -0.591133,-0.591133 0.591133,1.9704434 0.394088,0.591133 -0.394088,0.591133 -5.517242,1.9704431 -1.576354,-0.197044 0.985221,-1.9704434 1.773399,-1.9704434 0.591133,-2.5615764 1.773399,-1.182266 -1.182266,-2.95566499 z"
   id="path3171"
   inkscape:connector-curvature="0" /><path
   style="fill:#f6f6f6;fill-opacity:1;stroke:#f4f4f4;stroke-opacity:1"
   d="m 35.270936,12.162562 1.37931,6.108374 -0.394088,1.970443 4.926108,1.379311 -2.758621,-2.167488 -0.394088,-1.773399 -0.985222,-3.349754 z"
   id="path3173"
   inkscape:connector-curvature="0" /><path
   style="fill:#f6f6f6;fill-opacity:1;stroke:#f4f4f4;stroke-opacity:1"
   d="m 32.118227,14.921182 -0.197045,2.364532 c 0,0 -0.197044,0.788178 -0.985221,1.182266 -0.788178,0.394089 1.576354,1.576355 1.576354,1.576355 l 1.970444,0 -0.985222,-2.758621 z"
   id="path3175"
   inkscape:connector-curvature="0" /><path
   style="fill:#f6f6f6;fill-opacity:1;stroke:#f4f4f4;stroke-opacity:1"
   d="m 38.817734,14.527094 2.167488,3.940886 1.182266,1.773399 0.985221,-0.197044 0.394089,-2.364532 -2.364532,-1.970443 z"
   id="path3177"
   inkscape:connector-curvature="0" /><path
   style="fill:#f6f6f6;fill-opacity:1;stroke:#f4f4f4;stroke-opacity:1"
   d="m 51.625616,0.73399015 -5.714286,3.74384235 -1.37931,1.3793104 -1.576355,1.3793103 0,2.364532 1.576355,-2.7586207 5.320197,-3.9408867 4.334975,-0.9852216 z"
   id="path3179"
   inkscape:connector-curvature="0" /><path
   style="fill:#f6f6f6;fill-opacity:1;stroke:#f4f4f4;stroke-opacity:1"
   d="m 43.546798,8.2216749 1.773399,5.7142861 1.576355,4.926108 -2.167488,0.788177 5.714286,1.576355 0.197044,-1.37931 2.758621,-2.364532 0.197044,-2.955665 -0.591133,-0.591133 -0.197044,2.167487 -1.182266,1.379311 -2.167488,1.182266 -0.788177,-0.591133 -2.364532,-2.955665 -1.182266,-3.940887 z"
   id="path3181"
   inkscape:connector-curvature="0" /><path
   style="fill:#f6f6f6;fill-opacity:1;stroke:#f4f4f4;stroke-opacity:1"
   d="m 45.91133,10.586207 2.364532,-0.5911331 2.364532,-1.5763547 4.926108,-2.1674877 0.197045,-1.5763547 2.955665,1.1822661 0.591133,2.5615763 -1.379311,-0.3940887 -3.546798,0.7881774 -4.137931,1.9704431 -2.561576,1.182266 z"
   id="path3183"
   inkscape:connector-curvature="0" /><path
   style="fill:#f6f6f6;fill-opacity:1;stroke:#f4f4f4;stroke-opacity:1"
   d="m 48.866995,5.6600985 0.985222,2.1674877 4.137931,6.5024628 2.75862,2.955665 2.955665,1.576355 1.970444,0 0.591133,0 2.167488,-0.591133 -2.167488,-0.788177 -4.729064,-2.167488 -4.334976,-4.53202 -3.152709,-4.7290638 1.37931,-1.3793104 z"
   id="path3185"
   inkscape:connector-curvature="0" /><path
   style="fill:#f6f6f6;fill-opacity:1;stroke:#f4f4f4;stroke-opacity:1"
   d="m 68.17734,8.2216749 0.985222,5.3201971 3.152709,0.197044 -0.985222,-5.3201968 z"
   id="path3187"
   inkscape:connector-curvature="0" /><path
   style="fill:#f6f6f6;fill-opacity:1;stroke:#f4f4f4;stroke-opacity:1"
   d="m 79.507389,4.871921 0.985221,3.1527093 1.576355,1.182266 -0.394089,-0.985222 5.123153,-1.7733986 3.349754,0 4.137931,-0.3940887 1.970444,1.773399 -1.182266,-4.9261083 -1.970444,-0.3940887 -1.37931,1.773399 -3.15271,0.7881773 -4.334975,0.9852217 -3.15271,0.9852217 z"
   id="path3159-0"
   inkscape:connector-curvature="0" /><path
   style="fill:#f6f6f6;fill-opacity:1;stroke:#f4f4f4;stroke-opacity:1"
   d="m 83.842364,2.3103447 -0.788177,1.182266 1.773399,2.364532 0.591133,-0.591133 0.394089,2.1674877 1.576354,2.5615759 0.197045,1.3793107 3.152709,0.788177 L 90.93596,9.7980293 89.359606,9.0098523 87.192118,5.6600984 86.600985,3.689655 87.389162,3.098522 z"
   id="path3161-9"
   inkscape:connector-curvature="0" /><path
   style="fill:#f6f6f6;fill-opacity:1;stroke:#f4f4f4;stroke-opacity:1"
   d="m 82.068965,12.162561 -2.955665,0.394089 0.788177,1.773399 0.985222,0.591133 0.788177,0 4.334976,5.714285 -0.788177,0 2.167487,0.985222 1.576355,-2.758621 -2.364532,-0.788177 -2.561576,-3.152709 z"
   id="path3163-4"
   inkscape:connector-curvature="0" /><path
   style="fill:#f6f6f6;fill-opacity:1;stroke:#f4f4f4;stroke-opacity:1"
   d="m 82.660098,13.344827 6.108375,-0.985222 5.123153,-2.5615757 0.985221,-0.197044 -0.591133,-1.379311 3.940887,0.985222 0.788177,2.1674877 -1.182266,0.985221 0.591133,7.487685 -2.364532,0 0,-2.364532 0.394089,-2.561576 -0.591133,-2.955665 -1.576355,-1.182266 -6.502463,3.546798 -2.955665,0.394088 z"
   id="path3165-8"
   inkscape:connector-curvature="0" /><path
   style="fill:#f6f6f6;fill-opacity:1;stroke:#f4f4f4;stroke-opacity:1"
   d="m 87.783251,19.84729 8.275862,-1.773399 2.167488,-0.788177 1.773399,0 0.59113,2.75862 -3.940884,1.182266 -0.985221,-1.970443 -6.699508,2.364532 z"
   id="path3167-8"
   inkscape:connector-curvature="0" /><path
   style="fill:#f6f6f6;fill-opacity:1;stroke:#f4f4f4;stroke-opacity:1"
   d="m 104.23645,5.2660099 2.16749,4.137931 c 0,0 0.78818,1.3793101 0.78818,0.7881771 0,-0.5911328 1.7734,-0.9852214 1.7734,-0.9852214 l 6.30542,-1.7733991 3.15271,-0.7881773 3.94088,0.9852217 -0.78818,-3.9408867 -2.16748,-0.9852217 0,2.5615764 -4.53202,1.3793103 -5.71429,1.5763547 -1.97044,0.1970443 -2.56158,-2.1674877 z"
   id="path3219"
   inkscape:connector-curvature="0" /><path
   style="fill:#f6f6f6;fill-opacity:1;stroke:#f4f4f4;stroke-opacity:1"
   d="m 110.34483,2.1133005 -1.97045,0.591133 0.98523,1.3793103 1.18226,0.591133 0,1.5763547 0.59113,2.7586207 -0.98522,2.5615768 -1.37931,1.970443 -1.97044,3.152709 -3.15271,2.167488 -0.78818,0.591133 4.13793,-1.970443 3.5468,-3.349754 1.37931,-4.3349754 0,-3.9408867 -0.78818,-1.9704434 0.98523,-0.1970443 z"
   id="path3221"
   inkscape:connector-curvature="0" /><path
   style="fill:#f6f6f6;fill-opacity:1;stroke:#f4f4f4;stroke-opacity:1"
   d="m 110.34483,13.344828 0.39409,4.729064 2.36453,2.561576 1.57635,0.788177 -1.18226,-1.773399 -1.18227,-2.561576 -0.98522,-2.758621 z"
   id="path3223"
   inkscape:connector-curvature="0" /><path
   style="fill:#f6f6f6;fill-opacity:1;stroke:#f4f4f4;stroke-opacity:1"
   d="m 110.73892,13.935961 6.10837,-1.970444 2.56158,-0.985221 0.19704,-1.5763551 3.15271,0 1.7734,4.9261081 -0.98522,-0.788177 -0.59113,4.729064 -1.37932,2.167488 0,-2.561577 c 0,0 0,-1.970443 0,-2.75862 0,-0.788178 -0.78817,-2.955665 -0.78817,-2.955665 0,0 -0.59114,0.197044 -2.36453,0.985221 -1.7734,0.788178 -4.33498,2.561577 -4.33498,2.561577 l -1.57635,-0.197045 z"
   id="path3225"
   inkscape:connector-curvature="0" /><path
   style="fill:#f6f6f6;fill-opacity:1;stroke:#f4f4f4;stroke-opacity:1"
   d="m 114.08867,8.8128079 -0.78818,1.182266 1.37931,1.3793101 2.36453,7.290641 0,1.773399 1.18227,1.576354 1.57636,0.788178 -0.78818,-2.561577 -1.37931,-1.37931 -1.18227,-4.334975 -1.18226,-4.137931 0.78817,-0.5911334 z"
   id="path3227"
   inkscape:connector-curvature="0" /><flowRoot
   xml:space="preserve"
   id="flowRoot3123"
   style="font-size:20px;font-style:normal;font-weight:normal;line-height:125%;letter-spacing:0px;word-spacing:0px;fill:#000000;fill-opacity:1;stroke:none;font-family:'蟇悟｣ｫ繝昴ャ繝暦ｼｰ';-inkscape-font-specification:'蟇悟｣ｫ繝昴ャ繝暦ｼｰ';font-stretch:normal;font-variant:normal"><flowRegion
     id="flowRegion3125"><rect
       id="rect3127"
       width="171.62561"
       height="22.857143"
       x="0.591133"
       y="-0.25123152"
       style="font-size:20px;-inkscape-font-specification:'蟇悟｣ｫ繝昴ャ繝暦ｼｰ';font-family:'蟇悟｣ｫ繝昴ャ繝暦ｼｰ';font-weight:normal;font-style:normal;font-stretch:normal;font-variant:normal" /></flowRegion><flowPara
     id="flowPara3129"
     style="font-size:20px;stroke:#c8c8c8;stroke-opacity:1;-inkscape-font-specification:'蟇悟｣ｫ繝昴ャ繝暦ｼｰ';font-family:'蟇悟｣ｫ繝昴ャ繝暦ｼｰ';font-weight:normal;font-style:normal;font-stretch:normal;font-variant:normal">蜿､邏吶・蜿､蟶・/flowPara></flowRoot></svg>
