<?xml version="1.0" encoding="UTF-8" standalone="no"?>
<!-- Generator: Adobe Illustrator 16.0.4, SVG Export Plug-In . SVG Version: 6.00 Build 0)  -->

<svg
   xmlns:dc="http://purl.org/dc/elements/1.1/"
   xmlns:cc="http://creativecommons.org/ns#"
   xmlns:rdf="http://www.w3.org/1999/02/22-rdf-syntax-ns#"
   xmlns:svg="http://www.w3.org/2000/svg"
   xmlns="http://www.w3.org/2000/svg"
   xmlns:sodipodi="http://sodipodi.sourceforge.net/DTD/sodipodi-0.dtd"
   xmlns:inkscape="http://www.inkscape.org/namespaces/inkscape"
   version="1.1"
   id="レイヤー_1"
   x="0px"
   y="0px"
   width="172"
   height="23"
   viewBox="0 0 172 23"
   enable-background="new 0 0 120 23"
   xml:space="preserve"
   inkscape:version="0.48.5 r10040"
   sodipodi:docname="sodaiogata.svg"><metadata
   id="metadata4427"><rdf:RDF><cc:Work
       rdf:about=""><dc:format>image/svg+xml</dc:format><dc:type
         rdf:resource="http://purl.org/dc/dcmitype/StillImage" /><dc:title /></cc:Work></rdf:RDF></metadata><defs
   id="defs4425" /><sodipodi:namedview
   pagecolor="#ffffff"
   bordercolor="#666666"
   borderopacity="1"
   objecttolerance="10"
   gridtolerance="10"
   guidetolerance="10"
   inkscape:pageopacity="0"
   inkscape:pageshadow="2"
   inkscape:window-width="1366"
   inkscape:window-height="706"
   id="namedview4423"
   showgrid="false"
   inkscape:zoom="5.075"
   inkscape:cx="79.189879"
   inkscape:cy="16.507389"
   inkscape:window-x="-8"
   inkscape:window-y="-8"
   inkscape:window-maximized="1"
   inkscape:current-layer="flowRoot4006" />





<text
   xml:space="preserve"
   style="font-size:13.42425632px;font-style:normal;font-weight:normal;line-height:125%;letter-spacing:0px;word-spacing:0px;fill:#f6f6f6;fill-opacity:1;stroke:none;font-family:Sans"
   x="6.7928081"
   y="12.422898"
   id="text4429"
   sodipodi:linespacing="125%"
   transform="scale(0.7536626,1.3268537)"><tspan
     sodipodi:role="line"
     x="6.7928081"
     y="12.422898"
     id="tspan4433"
     style="font-size:13px" /></text>


<flowRoot
   xml:space="preserve"
   id="flowRoot4945"
   style="font-size:11px;font-style:normal;font-weight:normal;line-height:125%;letter-spacing:0px;word-spacing:0px;fill:#000000;fill-opacity:1;stroke:none;font-family:Sans"><flowRegion
     id="flowRegion4947"><rect
       id="rect4949"
       width="392.31528"
       height="103.64532"
       x="32.118225"
       y="-121.23645" /></flowRegion><flowPara
     id="flowPara4951" /></flowRoot><g
   style="font-size:11px;font-style:normal;font-weight:normal;line-height:125%;letter-spacing:0px;word-spacing:0px;fill:#000000;fill-opacity:1;stroke:none;font-family:Sans"
   id="flowRoot4006"><path
     d="m -10.28125,15.90625 c -8e-6,-0.218744 -8e-6,-0.473952 0,-0.765625 -0.437507,0.36459 -0.80209,0.80209 -1.09375,1.3125 l 1.09375,-0.546875 z m 0.4375,-13.125 c 0.5833247,-0.1458138 1.239574,1.94e-5 1.96875,0.4375 0.4374895,0.2916853 0.5833227,0.6562683 0.4375,1.09375 -0.072927,0.4375174 -0.1458437,0.875017 -0.21875,1.3125 1.5312382,-0.1458167 2.5520705,0.2552246 3.0625,1.203125 0.2187364,0.3645983 0.1822781,0.6198064 -0.109375,0.765625 l -2.1875,1.09375 -0.65625,0.4375 0.4375,0.328125 c 0.8749883,0.2916791 1.3489462,0.656262 1.421875,1.09375 0.2187375,0.218761 -0.7291782,0.765636 -2.84375,1.640625 -0.072926,0.510426 -0.1093843,0.911467 -0.109375,1.203125 l -0.109375,1.75 c 0.5833236,-0.656242 1.130198,-1.166658 1.640625,-1.53125 -0.2916772,0.656258 -0.8385517,1.494799 -1.640625,2.515625 -9.2e-6,0.364589 -9.2e-6,0.838547 0,1.421875 0.072907,0.510421 0.145824,1.750003 0.21875,3.71875 -9.4e-6,0.583334 -0.072926,0.984375 -0.21875,1.203125 -0.1458424,0.218749 -0.473967,0.510416 -0.984375,0.875 -0.218758,0.07291 -0.473966,-0.07292 -0.765625,-0.4375 -0.437507,-0.583334 -0.619798,-1.166666 -0.546875,-1.75 0.218743,-0.802082 0.364576,-1.421873 0.4375,-1.859375 0.07291,-0.874996 0.145826,-1.567704 0.21875,-2.078125 -1.677089,1.020837 -3.062504,1.713545 -4.15625,2.078125 -0.583336,-0.58333 -0.875003,-1.020829 -0.875,-1.3125 -3e-6,-0.291662 0.546872,-0.98437 1.640625,-2.078125 1.385411,-1.385409 2.26041,-2.406241 2.625,-3.0625 l -3.0625,0.875 -0.4375,-0.328125 c -0.218753,-0.145824 -0.328128,-0.473949 -0.328125,-0.984375 -3e-6,-0.510406 0.36458,-0.874989 1.09375,-1.09375 1.166661,-0.437489 2.552077,-1.239571 4.15625,-2.40625 l 0,-2.296875 c -0.437508,0.5833483 -1.312507,1.6041806 -2.625,3.0625 C -12.57813,9.8177207 -12.833338,9.7448041 -13.125,9.453125 -13.708338,8.7239718 -14.000004,8.1770973 -14,7.8125 c 0.291662,-0.7291516 0.656245,-1.3124844 1.09375,-1.75 l 0.328125,0.109375 c 0.583327,0.2187658 0.94791,0.5468904 1.09375,0.984375 0.729159,-0.072902 1.312492,-0.3281097 1.75,-0.765625 l 0,-2.40625 -0.4375,0 C -11.119798,3.83856 -11.010424,3.4375187 -9.84375,2.78125 z M 2.515625,4.859375 c 0.6562289,1.73e-5 1.2395616,0.2552254 1.75,0.765625 0.4374774,0.4375161 0.6562271,0.9843905 0.65625,1.640625 l -0.109375,3.0625 c 0.072894,2.479176 0.1458104,4.375007 0.21875,5.6875 0.072894,0.656255 -0.036481,1.20313 -0.328125,1.640625 l 0.4375,0.109375 c 1.6770586,0.291671 2.8437241,0.656254 3.5,1.09375 0.5103896,0.729169 0.3645564,1.239585 -0.4375,1.53125 -0.7291921,2e-6 -1.458358,-0.07291 -2.1875,-0.21875 C 5.0676853,19.953127 4.1562279,19.734377 3.28125,19.515625 2.697896,19.369794 2.2968548,19.296878 2.078125,19.296875 l -1.3125,0 c -2.6979327,0.291669 -5.0312637,0.546877 -7,0.765625 -0.5833445,-0.145831 -0.9479274,-0.328123 -1.09375,-0.546875 -0.5833434,-0.874996 -0.3281353,-1.494788 0.765625,-1.859375 1.2395707,-0.291662 2.0781115,-0.619787 2.515625,-0.984375 L -3.390625,16.34375 -4.15625,14.484375 C -3.7916808,10.03647 -3.3541812,7.3750148 -2.84375,6.5 c 0.1458181,0.072932 0.4374845,0.2552237 0.875,0.546875 C -0.87501706,5.9531412 -1.79375e-5,5.3333501 0.65625,5.1875 1.2395642,4.9687672 1.8593552,4.8593923 2.515625,4.859375 z m -10.28125,2.1875 0.546875,-0.875 -0.4375,-0.21875 z M 1.53125,6.0625 C 0.29164844,5.9895995 -0.76564217,6.3906408 -1.640625,7.265625 -1.2760583,7.776056 -1.0937668,8.3958471 -1.09375,9.125 -0.72918387,9.0520964 -0.07293453,8.9427215 0.875,8.796875 1.5312305,8.9427215 1.8593552,9.2708462 1.859375,9.78125 1.4218556,10.291679 0.98435608,10.656261 0.546875,10.875 l -1.53125,1.640625 c 0.43748261,-0.21874 1.13019025,-0.21874 2.078125,0 0.2916473,10e-6 0.5103971,0.109385 0.65625,0.328125 0.1458135,0.218759 0.1458135,0.473967 0,0.765625 -0.1458529,0.291675 -0.5468941,0.692716 -1.203125,1.203125 -0.72918442,0.437507 -1.27605887,0.765632 -1.640625,0.984375 -0.072933,0.437506 -0.2187666,0.765631 -0.4375,0.984375 -0.5833492,0.947921 -1.1302236,0.947921 -1.640625,0 -0.072931,0.07292 -0.2187645,0.145839 -0.4375,0.21875 -0.94793,0.510421 -1.312513,0.838546 -1.09375,0.984375 0.8749859,-0.07291 1.7864433,-0.145829 2.734375,-0.21875 C 0.07289866,17.619796 1.5676888,17.54688 2.515625,17.546875 1.9322718,16.89063 1.4583139,16.453131 1.09375,16.234375 1.2395642,16.088548 1.6041471,16.015631 2.1875,16.015625 l 0.875,0 0,-5.796875 C 2.9895624,9.3437628 2.9166458,8.0312641 2.84375,6.28125 2.697896,6.1354327 2.2603965,6.0625161 1.53125,6.0625 z m -11.59375,4.265625 c -1.45834,0.510428 -2.51563,0.838553 -3.171875,0.984375 0.583328,0.07293 1.276036,1.1e-5 2.078125,-0.21875 0.583326,-0.145822 0.947909,-0.40103 1.09375,-0.765625 z m 9.078125,0.4375 -0.109375,1.640625 c 0.43748272,-0.65624 0.72914909,-1.239572 0.875,-1.75 z m -0.21875,4.59375 c 0.65623261,-0.437493 0.98435728,-0.802076 0.984375,-1.09375 -1.772e-5,-0.291658 -0.32814239,-0.510408 -0.984375,-0.65625 z"
     style="font-size:28px;font-variant:normal;font-stretch:normal;font-family:HGPGyoshotai;-inkscape-font-specification:HGPGyoshotai;fill:#b3b3b3"
     id="path4015" /><path
     d="m 24.5,0.921875 c 0.218735,-0.0728954 0.692693,0.1458544 1.421875,0.65625 0.72915,0.4375201 1.093733,1.0937695 1.09375,1.96875 -0.14585,0.6562679 -0.437517,1.89585 -0.875,3.71875 L 25.8125,8.359375 c 0.218734,1.38e-5 0.5104,-0.072903 0.875,-0.21875 0.364566,-0.1458192 0.656233,-0.5833188 0.875,-1.3125 0.0729,-0.1458179 0.546857,-0.2916511 1.421875,-0.4375 0.437481,0.1458489 0.984355,0.3281404 1.640625,0.546875 1.166645,0.3645982 1.822894,0.838556 1.96875,1.421875 -2.3e-5,0.5104299 -0.364606,0.9114712 -1.09375,1.203125 -1.968769,0.729179 -3.427101,1.239595 -4.375,1.53125 -0.875016,0.291677 -1.677099,0.546886 -2.40625,0.765625 -1.60418,2.479174 -2.916678,4.302089 -3.9375,5.46875 -0.802093,0.947921 -1.786467,1.82292 -2.953125,2.625 -0.729174,0.583335 -1.567715,0.875001 -2.515625,0.875 -1.458337,0.07292 -2.333336,-0.473957 -2.625,-1.640625 0.07291,-0.14583 0.255205,-0.14583 0.546875,0 0.510413,0.218753 0.802079,0.291669 0.875,0.21875 1.749994,-0.656247 3.244784,-1.749996 4.484375,-3.28125 1.166657,-1.604159 1.895823,-2.770825 2.1875,-3.5 -1.166676,-0.145824 -2.515633,-1.057281 -4.046875,-2.734375 -0.291673,-0.2187375 -0.291673,-0.3281124 0,-0.328125 0.218743,1.26e-5 0.546868,0.072929 0.984375,0.21875 0.437492,0.072929 0.874991,0.1093873 1.3125,0.109375 0.87499,1.23e-5 2.005197,-0.1822792 3.390625,-0.546875 L 23.40625,6.5 23.515625,5.734375 C 23.442695,4.8593923 23.260403,4.0573097 22.96875,3.328125 22.604154,2.5989779 22.421863,2.0521034 22.421875,1.6875 L 22.53125,1.578125 C 23.33332,1.3593958 23.989569,1.140646 24.5,0.921875 z m 1.3125,14 c 2.770815,0.36459 4.958313,1.276048 6.5625,2.734375 1.531226,1.38542 2.479142,2.734377 2.84375,4.046875 l -0.109375,0.765625 c -0.364608,0.218749 -0.729191,0.328124 -1.09375,0.328125 l -0.21875,0 c -0.437523,-1e-6 -1.312522,-0.364584 -2.625,-1.09375 -1.31252,-0.729166 -1.968769,-1.203123 -1.96875,-1.421875 l 1.75,0 c 0.0729,-0.291665 -2.1e-5,-0.546873 -0.21875,-0.765625 -1.822936,-1.531246 -3.718767,-3.098953 -5.6875,-4.703125 z"
     style="font-size:28px;font-variant:normal;font-stretch:normal;font-family:HGPGyoshotai;-inkscape-font-specification:HGPGyoshotai;fill:#b3b3b3"
     id="path4017" /><path
     d="m 44.1875,5.40625 c 0.802076,0.5104329 1.640617,0.765641 2.515625,0.765625 2.989572,0.4375155 4.630195,1.6406393 4.921875,3.609375 -1.4e-5,0.364595 -0.145847,0.583345 -0.4375,0.65625 -1.166679,0.145845 -2.625011,0.328136 -4.375,0.546875 -0.364592,0.07293 -0.765633,0.109386 -1.203125,0.109375 1.677074,-0.656238 2.916656,-1.239571 3.71875,-1.75 C 49.61978,8.9791798 49.583322,8.7239718 49.21875,8.578125 48.489573,8.505222 47.942698,8.4687637 47.578125,8.46875 47.286449,8.3958471 46.994783,8.3593888 46.703125,8.359375 46.119784,8.2864722 45.499993,8.0312641 44.84375,7.59375 44.187494,6.9375152 43.822911,6.5364739 43.75,6.390625 43.312495,5.807308 43.130203,5.2239753 43.203125,4.640625 43.494786,4.9323089 43.822911,5.187517 44.1875,5.40625 z m -2.078125,9.515625 c -0.145837,0.291674 -0.255212,0.58334 -0.328125,0.875 0.145829,0.510422 0.473954,0.875005 0.984375,1.09375 0.802078,0.218755 2.114577,0.401047 3.9375,0.546875 0.87499,5e-6 1.968739,0.07292 3.28125,0.21875 1.531237,0.583337 2.333319,1.16667 2.40625,1.75 -0.145848,0.437502 -0.364597,0.729169 -0.65625,0.875 L 50.09375,20.390625 C 48.270823,20.31771 46.374992,20.062502 44.40625,19.625 43.749994,19.406253 43.093745,19.04167 42.4375,18.53125 41.27083,17.656254 40.760414,16.744797 40.90625,15.796875 l 0.546875,-0.875 c 0.218746,-0.145826 0.437496,-0.145826 0.65625,0 z m 12.6875,-13.34375 c 0.729149,2.06e-5 1.312482,0.072937 1.75,0.21875 0.437481,0.072937 0.874981,0.3646033 1.3125,0.875 0.145813,0.2916858 0.145813,0.5833522 0,0.875 -0.21877,0.1458518 -0.546894,0.2187684 -0.984375,0.21875 -0.437518,1.84e-5 -0.911476,-0.2187314 -1.421875,-0.65625 -0.510434,-0.3645639 -1.057308,-0.8020635 -1.640625,-1.3125 0.364567,-0.1458128 0.692692,-0.2187294 0.984375,-0.21875 z m -2.625,1.75 c 1.020818,0.2187686 1.968734,0.6562682 2.84375,1.3125 0.0729,0.4375171 0.03644,0.8021 -0.109375,1.09375 -0.14585,0.2916828 -0.291683,0.437516 -0.4375,0.4375 L 53.59375,6.0625 C 52.499986,5.1146004 51.734361,4.3125178 51.296875,3.65625 c 0.291653,-0.1458147 0.58332,-0.2551896 0.875,-0.328125 z"
     style="font-size:28px;font-variant:normal;font-stretch:normal;font-family:HGPGyoshotai;-inkscape-font-specification:HGPGyoshotai;fill:#b3b3b3"
     id="path4019" /><path
     d="m 71.859375,3.984375 c 0.583319,1.82e-5 1.166652,0.1823096 1.75,0.546875 0.9479,0.8750167 1.421858,1.5677244 1.421875,2.078125 -1.7e-5,0.5833483 -0.510433,1.6770972 -1.53125,3.28125 -1.312514,1.96876 -2.406263,3.354176 -3.28125,4.15625 1.02082,0.07292 2.078111,0.218758 3.171875,0.4375 0.583318,0.145841 1.3854,0.364591 2.40625,0.65625 0.364565,-0.874992 0.401024,-1.385408 0.109375,-1.53125 -0.145851,0.07292 -0.255226,0.1823 -0.328125,0.328125 -0.437517,-0.364575 -0.510434,-0.692699 -0.21875,-0.984375 0.437482,-0.43749 1.13019,-0.328115 2.078125,0.328125 0.583314,0.583342 0.802063,1.348966 0.65625,2.296875 L 79.296875,16.125 c 1.020811,0.437506 1.677061,0.947922 1.96875,1.53125 0.218727,0.437504 0.109352,0.692712 -0.328125,0.765625 -0.656272,-0.145829 -1.822938,-0.510412 -3.5,-1.09375 -1.166685,1.239587 -2.33335,2.151044 -3.5,2.734375 -1.166681,0.583335 -2.47918,1.166668 -3.9375,1.75 0.583321,-0.437499 1.385403,-1.130207 2.40625,-2.078125 1.020818,-0.947913 1.895817,-2.005204 2.625,-3.171875 -1.166682,-0.437494 -2.07814,-0.692702 -2.734375,-0.765625 -1.239596,-0.218743 -2.369803,-0.328118 -3.390625,-0.328125 l -2.953125,2.84375 c -0.80209,0.656253 -1.45834,1.057294 -1.96875,1.203125 -0.364589,0.218752 -0.729172,0.328127 -1.09375,0.328125 -0.437504,2e-6 -0.875004,-0.656247 -1.3125,-1.96875 -0.802086,-0.656245 -1.166669,-1.20312 -1.09375,-1.640625 0.145831,-0.583327 0.58333,-1.020826 1.3125,-1.3125 0.947912,-0.364576 2.114578,-0.619784 3.5,-0.765625 0.874992,-0.07291 1.677075,-0.109367 2.40625,-0.109375 0.65624,-0.729158 1.276031,-1.458324 1.859375,-2.1875 C 71.89582,8.9427215 73.026027,6.8645986 72.953125,5.625 72.95311,5.187517 72.73436,4.9687672 72.296875,4.96875 71.203112,5.5520999 70.291655,5.9166829 69.5625,6.0625 68.614573,6.2083493 67.885407,5.9895995 67.375,5.40625 66.864575,4.8958506 66.53645,4.4948093 66.390625,4.203125 c 0.802074,0.2916843 1.53124,0.4010592 2.1875,0.328125 1.020822,-0.1458156 2.114571,-0.3281071 3.28125,-0.546875 z M 64.203125,15.6875 c -0.583339,0.07292 -1.166672,0.182298 -1.75,0.328125 -0.364587,0.145839 -0.583337,0.328131 -0.65625,0.546875 0.218746,0.583338 0.692704,1.020838 1.421875,1.3125 0.874994,-0.364579 1.82291,-1.093745 2.84375,-2.1875 -0.437507,-0.07291 -1.057298,-0.07291 -1.859375,0 z"
     style="font-size:28px;font-variant:normal;font-stretch:normal;font-family:HGPGyoshotai;-inkscape-font-specification:HGPGyoshotai;fill:#b3b3b3"
     id="path4021" /><path
     d="m 98.109375,0.921875 c 0.218735,-0.0728954 0.692693,0.1458544 1.421875,0.65625 0.72915,0.4375201 1.09373,1.0937695 1.09375,1.96875 -0.14585,0.6562679 -0.43752,1.89585 -0.875,3.71875 l -0.328125,1.09375 c 0.218734,1.38e-5 0.5104,-0.072903 0.875005,-0.21875 0.36456,-0.1458192 0.65623,-0.5833188 0.875,-1.3125 0.0729,-0.1458179 0.54685,-0.2916511 1.42187,-0.4375 0.43748,0.1458489 0.98436,0.3281404 1.64063,0.546875 1.16664,0.3645982 1.82289,0.838556 1.96875,1.421875 -3e-5,0.5104299 -0.36461,0.9114712 -1.09375,1.203125 -1.96877,0.729179 -3.42711,1.239595 -4.375,1.53125 -0.875021,0.291677 -1.677104,0.546886 -2.406255,0.765625 -1.60418,2.479174 -2.916678,4.302089 -3.9375,5.46875 -0.802093,0.947921 -1.786467,1.82292 -2.953125,2.625 -0.729174,0.583335 -1.567715,0.875001 -2.515625,0.875 -1.458337,0.07292 -2.333336,-0.473957 -2.625,-1.640625 0.07291,-0.14583 0.255205,-0.14583 0.546875,0 0.510413,0.218753 0.802079,0.291669 0.875,0.21875 1.749994,-0.656247 3.244784,-1.749996 4.484375,-3.28125 1.166657,-1.604159 1.895823,-2.770825 2.1875,-3.5 -1.166676,-0.145824 -2.515633,-1.057281 -4.046875,-2.734375 -0.291673,-0.2187375 -0.291673,-0.3281124 0,-0.328125 0.218743,1.26e-5 0.546868,0.072929 0.984375,0.21875 0.437492,0.072929 0.874991,0.1093873 1.3125,0.109375 0.87499,1.23e-5 2.005197,-0.1822792 3.390625,-0.546875 L 97.015625,6.5 97.125,5.734375 C 97.05207,4.8593923 96.869778,4.0573097 96.578125,3.328125 96.213529,2.5989779 96.031238,2.0521034 96.03125,1.6875 l 0.109375,-0.109375 c 0.80207,-0.2187292 1.458319,-0.437479 1.96875,-0.65625 z m 1.3125,14 c 2.770815,0.36459 4.958315,1.276048 6.562505,2.734375 1.53122,1.38542 2.47914,2.734377 2.84375,4.046875 l -0.10938,0.765625 c -0.36461,0.218749 -0.72919,0.328124 -1.09375,0.328125 l -0.21875,0 c -0.43752,-1e-6 -1.31252,-0.364584 -2.625,-1.09375 -1.31252,-0.729166 -1.96877,-1.203123 -1.96875,-1.421875 l 1.75,0 c 0.0729,-0.291665 -2e-5,-0.546873 -0.21875,-0.765625 -1.82294,-1.531246 -3.71877,-3.098953 -5.6875,-4.703125 z"
     style="font-size:28px;font-variant:normal;font-stretch:normal;font-family:HGPGyoshotai;-inkscape-font-specification:HGPGyoshotai;fill:#b3b3b3"
     id="path4023" /><path
     d="m 124.6875,2.453125 c 0.65624,0.2187695 1.05728,0.4739775 1.20313,0.765625 0.21873,0.072935 0.18227,0.255227 -0.10938,0.546875 -0.87501,0.5104345 -1.64064,0.9843924 -2.29687,1.421875 0.58332,0.1458501 0.9479,0.5104331 1.09375,1.09375 0.65623,1.59e-5 1.20311,0.072933 1.64062,0.21875 0.5104,0.3645986 0.47394,0.6927233 -0.10937,0.984375 -0.58335,0.2187644 -1.16668,0.4739725 -1.75,0.765625 l -0.4375,5.03125 c -0.0729,0.656258 -0.32814,1.203133 -0.76563,1.640625 -0.87501,-0.874992 -1.27605,-1.5677 -1.20312,-2.078125 0.14582,-1.312489 0.29165,-2.661446 0.4375,-4.046875 l -1.53125,0.65625 c -1e-5,0.5104288 -0.10939,1.020845 -0.32813,1.53125 -0.43751,1.677093 -0.91147,2.697925 -1.42187,3.0625 -0.14585,8e-6 -0.3646,-0.145825 -0.65625,-0.4375 -0.43751,-0.437491 -0.65626,-0.874991 -0.65625,-1.3125 L 118.125,11.53125 c 0.0729,-0.291656 0.14583,-0.692697 0.21875,-1.203125 l -1.53125,0.4375 c -0.65625,0.364594 -1.16667,0.437511 -1.53125,0.21875 -0.29167,-0.364572 -0.51042,-0.874988 -0.65625,-1.53125 0.14583,-0.1458205 0.40104,-0.328112 0.76563,-0.546875 0.43749,0.07293 0.76562,0.1093881 0.98437,0.109375 1.02083,-0.510403 2.04166,-1.2031107 3.0625,-2.078125 l 0,-0.65625 c -1e-5,-0.2187339 -0.0729,-0.5104003 -0.21875,-0.875 0.65624,0.2187665 1.02082,0.5104329 1.09375,0.875 0.94791,-0.5104003 1.49478,-0.9843582 1.64063,-1.421875 -0.3646,-0.5833155 -1.34897,-1.1666482 -2.95313,-1.75 L 119,3 119.875,2.890625 c 2.04166,-0.1458139 3.42707,-0.3281054 4.15625,-0.546875 0.14582,-0.072897 0.36457,-0.036439 0.65625,0.109375 z m 8.20312,0.328125 c 1.02082,0.2187691 1.53123,0.692727 1.53125,1.421875 -2e-5,0.5104341 -0.10939,1.2031417 -0.32812,2.078125 -0.0729,1.239598 -0.1094,2.4062635 -0.10938,3.5 -2e-5,1.020845 0.0364,2.005219 0.10938,2.953125 l -0.10938,1.09375 -0.21875,0.546875 c -0.21877,0.218758 -0.54689,0.255216 -0.98437,0.109375 -1.16669,-0.291659 -2.15106,-0.729158 -2.95313,-1.3125 -0.29168,-0.218741 -0.29168,-0.328116 0,-0.328125 0.58332,9e-6 1.02082,-0.03645 1.3125,-0.109375 0.14582,-0.145824 0.32811,-0.43749 0.54688,-0.875 0.21873,-3.718736 0.3281,-6.2343585 0.32812,-7.546875 -2e-5,-0.2916485 -0.0365,-0.47394 -0.10937,-0.546875 l -0.65625,0.4375 0.32812,-0.65625 C 131.14061,3.3281438 131.03123,3.1458523 131.25,3 c 0.43748,-0.2187306 0.98435,-0.2916472 1.64062,-0.21875 z m -4.92187,1.640625 c 0.58332,0.2187675 0.9479,0.5104339 1.09375,0.875 -2e-5,0.7291828 0.14582,1.2760572 0.4375,1.640625 0.29165,-0.510401 0.61977,-1.2031086 0.98437,-2.078125 -0.0729,0.4375168 -0.14585,0.8020998 -0.21875,1.09375 L 129.9375,7.375 c -0.8021,2.479179 -1.45835,3.791678 -1.96875,3.9375 -0.8021,-0.802072 -1.16668,-1.312488 -1.09375,-1.53125 0.0729,-0.656237 0.21873,-1.2395697 0.4375,-1.75 0.21873,-0.5833186 0.32811,-1.4218595 0.32813,-2.515625 l -0.10938,-1.09375 c 0.0729,-0.072899 0.21873,-0.072899 0.4375,0 z m -5.14062,1.3125 c -0.72918,0.3645994 -1.38543,0.8020989 -1.96875,1.3125 0.0729,0.2187649 0.10936,0.4375147 0.10937,0.65625 0.80207,-0.2187353 1.38541,-0.5104017 1.75,-0.875 -1e-5,-0.2916511 0.0365,-0.656234 0.10938,-1.09375 z M 126.10938,11.75 c 0.65623,10e-6 1.2031,0.328135 1.64062,0.984375 0.43748,0.656259 0.65623,1.458341 0.65625,2.40625 1.16665,-0.364576 1.93227,-0.328118 2.29687,0.109375 0.29165,0.656256 -0.0729,1.166672 -1.09375,1.53125 -0.65626,0.218755 -1.16668,0.401047 -1.53125,0.546875 -0.0729,0.875004 -0.14584,1.82292 -0.21874,2.84375 L 131.03125,20.5 c 0.58331,-0.218748 1.6406,0.109377 3.17187,0.984375 1.16665,0.65625 1.67706,1.239583 1.53125,1.75 -0.14585,0.291665 -0.47398,0.40104 -0.98437,0.328125 -1.23961,-0.07292 -2.77085,-0.437501 -4.59375,-1.09375 -0.87502,-0.291667 -2.1146,-0.4375 -3.71875,-0.4375 -0.94793,0 -2.15105,0.182292 -3.60937,0.546875 -0.58335,0.145833 -1.13022,0.218749 -1.64063,0.21875 -1.02084,-1e-6 -1.75001,-0.03646 -2.1875,-0.109375 -0.51042,-0.07292 -0.94792,-0.328125 -1.3125,-0.765625 -0.21876,-0.364583 -0.0365,-0.473958 0.54688,-0.328125 3.1354,-0.510416 4.84894,-0.802082 5.14062,-0.875 0.72915,-0.218748 1.34895,-0.364582 1.85938,-0.4375 0.21873,-0.874997 0.32811,-1.749996 0.32812,-2.625 -1.75001,-0.07291 -2.98959,-0.619787 -3.71875,-1.640625 -0.0729,-0.218744 -0.0729,-0.328119 0,-0.328125 1.23957,0.218756 2.11457,0.328131 2.625,0.328125 0.5104,6e-6 0.91144,-0.07291 1.20313,-0.21875 0.14581,-0.437493 0.18227,-0.984368 0.10937,-1.640625 -0.0729,-0.874991 -0.32814,-1.494782 -0.76562,-1.859375 -0.14585,-0.145823 -0.18231,-0.255198 -0.10938,-0.328125 0.21874,-0.21874 0.61978,-0.291656 1.20313,-0.21875 z"
     style="font-size:28px;font-variant:normal;font-stretch:normal;font-family:HGPGyoshotai;-inkscape-font-specification:HGPGyoshotai;fill:#b3b3b3"
     id="path4025" /></g></svg>
