<?xml version="1.0" encoding="UTF-8" standalone="no"?>
<!-- Generator: Adobe Illustrator 16.0.4, SVG Export Plug-In . SVG Version: 6.00 Build 0)  -->

<svg
   xmlns:dc="http://purl.org/dc/elements/1.1/"
   xmlns:cc="http://creativecommons.org/ns#"
   xmlns:rdf="http://www.w3.org/1999/02/22-rdf-syntax-ns#"
   xmlns:svg="http://www.w3.org/2000/svg"
   xmlns="http://www.w3.org/2000/svg"
   xmlns:sodipodi="http://sodipodi.sourceforge.net/DTD/sodipodi-0.dtd"
   xmlns:inkscape="http://www.inkscape.org/namespaces/inkscape"
   version="1.1"
   id="レイヤー_1"
   x="0px"
   y="0px"
   width="172"
   height="23"
   viewBox="0 0 172 23"
   enable-background="new 0 0 120 23"
   xml:space="preserve"
   inkscape:version="0.48.5 r10040"
   sodipodi:docname="sodaikogata.svg"><metadata
   id="metadata4427"><rdf:RDF><cc:Work
       rdf:about=""><dc:format>image/svg+xml</dc:format><dc:type
         rdf:resource="http://purl.org/dc/dcmitype/StillImage" /><dc:title></dc:title></cc:Work></rdf:RDF></metadata><defs
   id="defs4425" /><sodipodi:namedview
   pagecolor="#ffffff"
   bordercolor="#666666"
   borderopacity="1"
   objecttolerance="10"
   gridtolerance="10"
   guidetolerance="10"
   inkscape:pageopacity="0"
   inkscape:pageshadow="2"
   inkscape:window-width="1366"
   inkscape:window-height="706"
   id="namedview4423"
   showgrid="false"
   inkscape:zoom="5.075"
   inkscape:cx="76.011823"
   inkscape:cy="16.507389"
   inkscape:window-x="-8"
   inkscape:window-y="-8"
   inkscape:window-maximized="1"
   inkscape:current-layer="レイヤー_1" />





<text
   xml:space="preserve"
   style="font-size:13.42425632px;font-style:normal;font-weight:normal;line-height:125%;letter-spacing:0px;word-spacing:0px;fill:#f6f6f6;fill-opacity:1;stroke:none;font-family:Sans"
   x="6.7928081"
   y="12.422898"
   id="text4429"
   sodipodi:linespacing="125%"
   transform="scale(0.7536626,1.3268537)"><tspan
     sodipodi:role="line"
     x="6.7928081"
     y="12.422898"
     id="tspan4433"
     style="font-size:13px" /></text>

<flowRoot
   xml:space="preserve"
   id="flowRoot4945"
   style="font-size:11px;font-style:normal;font-weight:normal;line-height:125%;letter-spacing:0px;word-spacing:0px;fill:#000000;fill-opacity:1;stroke:none;font-family:Sans"><flowRegion
     id="flowRegion4947"><rect
       id="rect4949"
       width="392.31528"
       height="103.64532"
       x="32.118225"
       y="-121.23645" /></flowRegion><flowPara
     id="flowPara4951" /></flowRoot><path
   style="fill:#f6f6f6;fill-opacity:1;stroke:#f4f4f4;stroke-opacity:1"
   d="m 4.5320197,3.2955665 c 0.591133,-1.182266 2.5615764,1.773399 2.5615764,1.773399 l -0.3940887,1.773399 -1.182266,-0.1970443 0,-1.182266 -0.9852217,-1.3793104 z"
   id="path3067"
   inkscape:connector-curvature="0" /><path
   style="fill:#f6f6f6;fill-opacity:1;stroke:#f4f4f4;stroke-opacity:1"
   d="m 8.0788177,2.7044335 1.182266,2.955665 1.9704433,13.5960595 1.182266,1.970443 1.182266,-2.364532 -1.37931,-0.788177 L 9.8522167,3.2955665 z"
   id="path3069"
   inkscape:connector-curvature="0" /><path
   style="fill:#f6f6f6;fill-opacity:1;stroke:#f4f4f4;stroke-opacity:1"
   d="M 1.9704433,8.8128079 4.5320197,9.6009852 14.581281,7.0394089 16.157635,5.6600985 17.931034,8.0246305 17.142857,8.6157635 13.399015,8.0246305 2.955665,10.586207 z"
   id="path3071"
   inkscape:connector-curvature="0" /><path
   style="fill:#f6f6f6;fill-opacity:1;stroke:#f4f4f4;stroke-opacity:1"
   d="m 12.019704,1.7192118 0.394089,2.7586207 -0.591133,1.773399 1.182266,-1.773399 0.985222,-1.3793103 0.788177,-0.1970444 z"
   id="path3073"
   inkscape:connector-curvature="0" /><path
   style="fill:#f6f6f6;fill-opacity:1;stroke:#f4f4f4;stroke-opacity:1"
   d="m 6.6995074,10.192118 -1.182266,4.926109 -1.182266,2.955665 -2.1674877,1.773399 -1.18226603,1.37931 3.54679803,-1.773399 1.773399,-3.546798 0.7881774,-3.940887 1.9704433,0.394089 -0.591133,-1.970443 z"
   id="path3075"
   inkscape:connector-curvature="0" /><path
   style="fill:#f6f6f6;fill-opacity:1;stroke:#f4f4f4;stroke-opacity:1"
   d="m 11.625616,11.768473 3.152709,3.546798 2.955665,3.546798 3.743843,0.985222 -0.788178,-3.546798 -1.970443,0.788177 -3.15271,-2.955665 -1.773399,-1.773399 z"
   id="path3077"
   inkscape:connector-curvature="0" /><path
   style="fill:#f6f6f6;fill-opacity:1;stroke:#f4f4f4;stroke-opacity:1"
   d="m 19.310345,1.3251232 -1.773399,8.0788177 2.561576,-1.3793104 1.379311,8.0788175 0.985221,3.546798 2.561577,0.394089 -2.758621,-5.714286 -1.773399,-8.0788175 -0.985222,0.591133 0.591133,-3.546798 z"
   id="path3079"
   inkscape:connector-curvature="0" /><path
   style="fill:#f6f6f6;fill-opacity:1;stroke:#f4f4f4;stroke-opacity:1"
   d="m 19.901478,5.0689655 11.034483,-1.9704433 1.773399,-1.3793104 3.349753,2.7586207 -0.394088,2.364532 -1.379311,0.7881774 1.182266,9.6551721 0,1.182266 -2.167487,-1.970443 0.985221,0 -1.182266,-8.0788178 0,-2.955665 -0.788177,-1.3793104 -2.167488,0.591133 -6.502463,1.3793104 -2.364532,1.5763547 0.394089,-0.9852217 z"
   id="path3081"
   inkscape:connector-curvature="0" /><path
   style="fill:#f6f6f6;fill-opacity:1;stroke:#f4f4f4;stroke-opacity:1"
   d="m 22.26601,11.17734 6.699507,-2.1674878 2.955665,-0.3940887 0.788178,1.9704435 -0.788178,1.576355 -1.182266,-1.379311 -2.561576,0.394089 -3.546798,1.37931 z"
   id="path3083"
   inkscape:connector-curvature="0" /><path
   style="fill:#f6f6f6;fill-opacity:1;stroke:#f4f4f4;stroke-opacity:1"
   d="m 23.64532,15.118227 8.275862,-1.379311 1.970444,0.591133 -3.546798,0.985222 -4.926109,0.394089 z"
   id="path3085"
   inkscape:connector-curvature="0" /><path
   style="fill:#f6f6f6;fill-opacity:1;stroke:#f4f4f4;stroke-opacity:1"
   d="m 20.689655,20.438424 17.142857,-2.758621 1.182266,-0.788177 2.758621,1.970443 L 40,20.241379 34.876847,19.650246 z"
   id="path3087"
   inkscape:connector-curvature="0" /><path
   style="fill:#f6f6f6;fill-opacity:1;stroke:#f4f4f4;stroke-opacity:1"
   d="m 40.197044,5.4630542 17.536946,-2.1674877 2.955665,-1.182266 4.53202,2.364532 -0.591133,2.1674877 -6.896552,-1.182266 -8.078818,0.1970443 -5.517241,0.7881774 -1.970443,0.3940886 z"
   id="path3089"
   inkscape:connector-curvature="0" /><path
   style="fill:#f6f6f6;fill-opacity:1;stroke:#f4f4f4;stroke-opacity:1"
   d="m 48.472906,0.93103448 0.591133,5.12315272 0.197045,4.1379308 -0.591133,3.15271 -2.364532,3.743842 -2.758621,3.152709 -2.758621,1.576355 3.349754,-1.182266 4.926108,-4.137931 1.970444,-4.53202 c 0,0 1.182266,-3.7438421 0.788177,-4.7290638 C 51.428571,6.2512315 50.837438,3.2955665 50.837438,3.2955665 l 0.197045,-1.182266 1.182266,0 z"
   id="path3091"
   inkscape:connector-curvature="0" /><path
   style="fill:#f6f6f6;fill-opacity:1;stroke:#f4f4f4;stroke-opacity:1"
   d="m 52.019704,9.7980296 6.108375,5.1231524 2.561576,2.167488 4.334976,3.152709 4.926108,-0.197044 -3.940887,-2.758621 -3.546798,-1.773399 -3.152709,-2.955665 -3.743843,-2.364532 z"
   id="path3093"
   inkscape:connector-curvature="0" /><path
   style="fill:#f6f6f6;fill-opacity:1;stroke:#f4f4f4;stroke-opacity:1"
   d="m 69.162562,6.4482759 2.167487,-1.5763547 6.699508,-0.7881774 8.275862,-1.3793103 2.955665,0.7881773 1.576354,2.7586207 -3.349753,1.5763547 -1.773399,-2.7586207 -8.275862,0.591133 -7.290641,2.7586207 -2.167487,1.7733988 z"
   id="path3095"
   inkscape:connector-curvature="0" /><path
   style="fill:#f6f6f6;fill-opacity:1;stroke:#f4f4f4;stroke-opacity:1"
   d="m 71.133005,18.270936 7.487685,0.197044 8.66995,-1.182266 3.546798,-2.364532 1.576355,1.970444 -4.137931,1.773399 -5.123153,0.985221 -4.926108,0.788178 -3.940887,-0.394089 z"
   id="path3097"
   inkscape:connector-curvature="0" /><path
   style="fill:#f6f6f6;fill-opacity:1;stroke:#f4f4f4;stroke-opacity:1"
   d="m 90.640394,1.1280788 2.364532,6.6995074 0.788177,-0.1970443 z"
   id="path3099"
   inkscape:connector-curvature="0" /><path
   style="fill:#f6f6f6;fill-opacity:1;stroke:#f4f4f4;stroke-opacity:1"
   d="m 92.807882,1.7192118 2.75862,6.5024631 0.788178,-0.591133 -2.561577,-5.1231527 z"
   id="path3101"
   inkscape:connector-curvature="0" /><path
   style="fill:#f6f6f6;fill-opacity:1;stroke:#f4f4f4;stroke-opacity:1"
   d="m 97.536946,3.8866995 2.167487,4.3349754 3.940887,-2.7586207 3.94089,-1.3793104 0.19704,-1.3793103 -4.92611,1.9704433 -2.56157,1.5763547 z"
   id="path3103"
   inkscape:connector-curvature="0" /><path
   style="fill:#f6f6f6;fill-opacity:1;stroke:#f4f4f4;stroke-opacity:1"
   d="m 107.9803,3.4926108 -0.19705,6.8965522 0,2.955665 0,1.773399 -0.98522,1.182266 -2.36453,1.773399 -1.7734,1.37931 -0.59113,-0.591133 -1.18227,-1.182266 -0.39409,-1.773399 2.56158,-3.152709 2.36453,-0.591133 -2.56158,0.394088 -2.16748,1.970444 -0.788182,1.182266 -0.197045,1.970443 2.561577,3.152709 1.97044,-0.788177 2.16749,-2.167488 2.36453,-2.75862 0.39409,-1.576355 -0.39409,-4.5320198 0.39409,-4.729064 z"
   id="path3105"
   inkscape:connector-curvature="0" /><path
   style="fill:#f6f6f6;fill-opacity:1;stroke:#f4f4f4;stroke-opacity:1"
   d="m 104.23645,11.965517 5.91133,-1.9704431 3.74385,-0.9852217 2.95566,0.7881774 1.57636,1.9704434 1.18226,4.137931 -1.97044,3.546798 -4.33498,1.37931 2.36453,-1.576354 2.16749,-1.576355 0,-1.37931 -0.98522,-4.729064 -4.13793,-0.788178 -3.34975,0.591133 -4.72907,1.970444 z"
   id="path3107"
   inkscape:connector-curvature="0" /><path
   style="fill:#f6f6f6;fill-opacity:1;stroke:#f4f4f4;stroke-opacity:1"
   d="m 112.11823,4.2807882 0.19704,1.9704433 0.98522,5.5172415 -0.59113,2.955665 -2.75862,3.940887 3.5468,-3.546798 0.78817,-2.561577 0.59114,-4.3349751 -1.7734,-1.773399 0,-1.5763547 z"
   id="path3109"
   inkscape:connector-curvature="0" /><path
   style="fill:#f6f6f6;fill-opacity:1;stroke:#f4f4f4;stroke-opacity:1"
   d="m 141.67488,2.3103448 0.39409,1.3793104 0,1.3793103 2.56157,-1.3793103 2.95567,-0.591133 -1.18227,-2.36453205 -0.59113,1.57635465 -2.75862,0.9852217 z"
   id="path3117"
   inkscape:connector-curvature="0" /><path
   style="fill:#f6f6f6;fill-opacity:1;stroke:#f4f4f4;stroke-opacity:1"
   d="m 141.47783,8.2216749 3.34976,-0.7881774 2.36453,-1.182266 2.75862,-1.5763547 0.39409,-0.7881773 2.36453,3.546798 -1.57636,-0.7881773 -1.77339,-0.1970443 -5.51725,2.5615763 -3.1527,1.1822658 z"
   id="path3119"
   inkscape:connector-curvature="0" /><path
   style="fill:#f6f6f6;fill-opacity:1;stroke:#f4f4f4;stroke-opacity:1"
   d="m 142.6601,5.0689655 1.18226,3.1527094 0.78818,2.1674881 -0.98522,3.152709 2.36453,-2.758621 -0.59113,-1.1822658 -0.98522,-2.364532 z"
   id="path3121"
   inkscape:connector-curvature="0" /><path
   style="fill:#f6f6f6;fill-opacity:1;stroke:#f4f4f4;stroke-opacity:1"
   d="m 146.00985,4.4778325 1.18227,2.7586207 1.37931,1.773399 0.78818,1.1822658 -1.57636,-0.1970441 1.97044,0.7881771 1.37931,-0.591133 -1.77339,-1.1822658 -2.16749,-3.546798 z"
   id="path3123"
   inkscape:connector-curvature="0" /><path
   style="fill:#f6f6f6;fill-opacity:1;stroke:#f4f4f4;stroke-opacity:1"
   d="m 153.89163,2.7044335 -0.98523,0.3940887 2.16749,2.364532 -0.19704,3.3497537 0.59113,0.3940887 0.39409,-5.9113301 z"
   id="path3125"
   inkscape:connector-curvature="0" /><path
   style="fill:#f6f6f6;fill-opacity:1;stroke:#f4f4f4;stroke-opacity:1"
   d="m 157.04433,1.5221675 1.7734,3.9408867 0.39409,3.546798 -1.57635,-0.9852217 1.97044,2.1674875 0.98522,-1.1822658 -0.19704,-3.1527093 -1.37931,-2.1674877 z"
   id="path3127"
   inkscape:connector-curvature="0" /><path
   style="fill:#f6f6f6;fill-opacity:1;stroke:#f4f4f4;stroke-opacity:1"
   d="m 146.60099,14.330049 4.53201,-1.37931 4.53202,-0.985222 2.36454,-2.1674874 3.74384,2.5615764 -4.53202,0.985222 -1.18227,-0.197045 -7.29064,1.182266 z"
   id="path3129"
   inkscape:connector-curvature="0" /><path
   style="fill:#f6f6f6;fill-opacity:1;stroke:#f4f4f4;stroke-opacity:1"
   d="m 150.93596,11.17734 2.95567,5.714286 1.18226,2.364532 1.57636,-0.591133 -0.98523,-1.379311 -0.98522,-0.197044 -1.97044,-5.517241 z"
   id="path3131"
   inkscape:connector-curvature="0" /><path
   style="fill:#f6f6f6;fill-opacity:1;stroke:#f4f4f4;stroke-opacity:1"
   d="m 146.2069,19.847291 3.54679,-0.591133 4.92611,-0.197045 5.51724,-1.37931 4.53202,-2.955665 2.75862,1.970443 -1.57635,3.546798 -3.74384,-1.182266 -4.92611,0.591133 -6.69951,1.576355 -2.16749,0.591133 z"
   id="path3133"
   inkscape:connector-curvature="0" /><path
   style="fill:#f6f6f6;fill-opacity:1;stroke:#f4f4f4;stroke-opacity:1"
   d="m 115.17241,5.8571426 17.53695,-2.1674877 2.95566,-1.182266 4.53202,2.364532 -0.59113,2.1674877 -6.89655,-1.182266 -8.07882,0.1970443 -5.51724,0.7881774 -1.97044,0.3940886 z"
   id="path3089-1"
   inkscape:connector-curvature="0" /><path
   style="fill:#f6f6f6;fill-opacity:1;stroke:#f4f4f4;stroke-opacity:1"
   d="m 123.44828,1.3251229 0.59113,5.1231527 0.19704,4.1379314 -0.59113,3.15271 -2.36453,3.743842 -2.75862,3.152709 -2.75862,1.576355 3.34975,-1.182266 4.92611,-4.137931 1.97044,-4.53202 c 0,0 1.18227,-3.7438427 0.78818,-4.7290644 -0.39409,-0.9852217 -0.98522,-3.9408867 -0.98522,-3.9408867 l 0.19704,-1.182266 1.18227,0 z"
   id="path3091-7"
   inkscape:connector-curvature="0" /><path
   style="fill:#f6f6f6;fill-opacity:1;stroke:#f4f4f4;stroke-opacity:1"
   d="m 126.99507,10.192118 6.10838,5.123153 2.56157,2.167488 4.33498,3.152709 4.92611,-0.197044 -3.94089,-2.758621 -3.5468,-1.773399 -3.15271,-2.955665 -3.74384,-2.364532 z"
   id="path3093-4"
   inkscape:connector-curvature="0" /></svg>
