<?xml version="1.0" encoding="UTF-8" standalone="no"?>
<!-- Generator: Adobe Illustrator 16.0.4, SVG Export Plug-In . SVG Version: 6.00 Build 0)  -->

<svg
   xmlns:dc="http://purl.org/dc/elements/1.1/"
   xmlns:cc="http://creativecommons.org/ns#"
   xmlns:rdf="http://www.w3.org/1999/02/22-rdf-syntax-ns#"
   xmlns:svg="http://www.w3.org/2000/svg"
   xmlns="http://www.w3.org/2000/svg"
   xmlns:sodipodi="http://sodipodi.sourceforge.net/DTD/sodipodi-0.dtd"
   xmlns:inkscape="http://www.inkscape.org/namespaces/inkscape"
   version="1.1"
   id="レイヤー_1"
   x="0px"
   y="0px"
   width="175"
   height="35"
   viewBox="0 0 175 35"
   enable-background="new 0 0 120 23"
   xml:space="preserve"
   inkscape:version="0.48.5 r10040"
   sodipodi:docname="sodaikogata.svg"><metadata
   id="metadata4427"><rdf:RDF><cc:Work
       rdf:about=""><dc:format>image/svg+xml</dc:format><dc:type
         rdf:resource="http://purl.org/dc/dcmitype/StillImage" /></cc:Work></rdf:RDF></metadata><defs
   id="defs4425" /><sodipodi:namedview
   pagecolor="#ffffff"
   bordercolor="#666666"
   borderopacity="1"
   objecttolerance="10"
   gridtolerance="10"
   guidetolerance="10"
   inkscape:pageopacity="0"
   inkscape:pageshadow="2"
   inkscape:window-width="1366"
   inkscape:window-height="706"
   id="namedview4423"
   showgrid="false"
   inkscape:zoom="5.075"
   inkscape:cx="96.940935"
   inkscape:cy="16.507389"
   inkscape:window-x="-8"
   inkscape:window-y="-8"
   inkscape:window-maximized="1"
   inkscape:current-layer="flowRoot3941"
   showguides="true"
   inkscape:guide-bbox="true" />





<text
   xml:space="preserve"
   style="font-size:13.42425632px;font-style:normal;font-weight:normal;line-height:125%;letter-spacing:0px;word-spacing:0px;fill:#f6f6f6;fill-opacity:1;stroke:none;font-family:Sans"
   x="6.7928081"
   y="21.466846"
   id="text4429"
   sodipodi:linespacing="125%"
   transform="scale(0.7536626,1.3268537)"><tspan
     sodipodi:role="line"
     x="6.7928081"
     y="21.466846"
     id="tspan4433"
     style="font-size:13px" /></text>


<flowRoot
   xml:space="preserve"
   id="flowRoot4945"
   style="font-size:11px;font-style:normal;font-weight:normal;line-height:125%;letter-spacing:0px;word-spacing:0px;fill:#000000;fill-opacity:1;stroke:none;font-family:Sans"
   transform="translate(0,12)"><flowRegion
     id="flowRegion4947"><rect
       id="rect4949"
       width="392.31528"
       height="103.64532"
       x="32.118225"
       y="-121.23645" /></flowRegion><flowPara
     id="flowPara4951" /></flowRoot><g
   transform="translate(4.6730117,1.773399)"
   style="font-size:11px;font-style:normal;font-weight:normal;line-height:125%;letter-spacing:0px;word-spacing:0px;fill:#b3b3b3;fill-opacity:1;stroke:none;font-family:Sans"
   id="flowRoot3941"><path
     d="m 7.0625,21 c -7.7e-6,-0.218744 -7.7e-6,-0.473952 0,-0.765625 -0.4375072,0.36459 -0.8020902,0.80209 -1.09375,1.3125 L 7.0625,21 z M 7.5,7.875 c 0.5833247,-0.1458138 1.239574,1.94e-5 1.96875,0.4375 0.4374895,0.2916853 0.583323,0.6562683 0.4375,1.09375 -0.072927,0.4375174 -0.1458437,0.875017 -0.21875,1.3125 1.531238,-0.145817 2.55207,0.255225 3.0625,1.203125 0.218736,0.364598 0.182278,0.619806 -0.109375,0.765625 l -2.1875,1.09375 -0.65625,0.4375 0.4375,0.328125 c 0.874988,0.291679 1.348946,0.656262 1.421875,1.09375 0.218738,0.218761 -0.729178,0.765636 -2.84375,1.640625 -0.072926,0.510426 -0.1093843,0.911467 -0.109375,1.203125 l -0.109375,1.75 c 0.5833236,-0.656242 1.130198,-1.166659 1.640625,-1.53125 -0.2916772,0.656258 -0.8385517,1.494799 -1.640625,2.515625 -9.2e-6,0.364589 -9.2e-6,0.838547 0,1.421875 0.072907,0.510421 0.145824,1.750003 0.21875,3.71875 -9.4e-6,0.583334 -0.072926,0.984375 -0.21875,1.203125 -0.1458424,0.218749 -0.473967,0.510416 -0.984375,0.875 C 7.390617,28.510415 7.1354089,28.364582 6.84375,28 6.406243,27.416666 6.2239515,26.833334 6.296875,26.25 c 0.2187429,-0.802082 0.3645761,-1.421873 0.4375,-1.859375 0.072909,-0.874996 0.1458259,-1.567704 0.21875,-2.078125 -1.6770892,1.020837 -3.0625045,1.713545 -4.15625,2.078125 -0.5833361,-0.58333 -0.8750025,-1.020829 -0.875,-1.3125 C 1.9218725,22.786463 2.4687469,22.093755 3.5625,21 4.9479111,19.614591 5.8229102,18.593759 6.1875,17.9375 L 3.125,18.8125 2.6875,18.484375 C 2.4687469,18.338551 2.359372,18.010426 2.359375,17.5 c -3e-6,-0.510406 0.36458,-0.874989 1.09375,-1.09375 C 4.6197865,15.968761 6.0052017,15.166679 7.609375,14 l 0,-2.296875 c -0.4375078,0.583348 -1.3125069,1.604181 -2.625,3.0625 -0.2187554,0.145846 -0.4739634,0.07293 -0.765625,-0.21875 -0.5833376,-0.729153 -0.8750039,-1.276028 -0.875,-1.640625 0.2916624,-0.729152 0.6562454,-1.312484 1.09375,-1.75 l 0.328125,0.109375 c 0.5833274,0.218766 0.9479104,0.54689 1.09375,0.984375 0.7291595,-0.0729 1.3124922,-0.32811 1.75,-0.765625 l 0,-2.40625 -0.4375,0 C 6.2239515,8.93231 6.3333264,8.5312687 7.5,7.875 z m 12.359375,2.078125 c 0.656229,1.73e-5 1.239562,0.255225 1.75,0.765625 0.437477,0.437516 0.656227,0.984391 0.65625,1.640625 l -0.109375,3.0625 c 0.07289,2.479176 0.14581,4.375007 0.21875,5.6875 0.07289,0.656255 -0.03648,1.20313 -0.328125,1.640625 l 0.4375,0.109375 c 1.677059,0.291671 2.843724,0.656254 3.5,1.09375 0.51039,0.729169 0.364556,1.239585 -0.4375,1.53125 -0.729192,2e-6 -1.458358,-0.07291 -2.1875,-0.21875 -0.94794,-0.218748 -1.859397,-0.437498 -2.734375,-0.65625 -0.583354,-0.145831 -0.984395,-0.218747 -1.203125,-0.21875 l -1.3125,0 c -2.697933,0.291669 -5.031264,0.546877 -7,0.765625 -0.583344,-0.145831 -0.947927,-0.328123 -1.09375,-0.546875 C 9.4322816,23.734379 9.6874897,23.114587 10.78125,22.75 c 1.239571,-0.291662 2.078112,-0.619787 2.515625,-0.984375 L 13.953125,21.4375 13.1875,19.578125 c 0.364569,-4.447905 0.802069,-7.10936 1.3125,-7.984375 0.145818,0.07293 0.437484,0.255224 0.875,0.546875 C 16.468733,11.046891 17.343732,10.4271 18,10.28125 18.583314,10.062517 19.203105,9.9531423 19.859375,9.953125 z m -10.28125,2.1875 0.546875,-0.875 -0.4375,-0.21875 z M 18.875,11.15625 c -1.239602,-0.0729 -2.296892,0.328141 -3.171875,1.203125 0.364567,0.510431 0.546858,1.130222 0.546875,1.859375 0.364566,-0.0729 1.020815,-0.182278 1.96875,-0.328125 0.656231,0.145847 0.984355,0.473971 0.984375,0.984375 -0.437519,0.510429 -0.875019,0.875011 -1.3125,1.09375 l -1.53125,1.640625 c 0.437483,-0.21874 1.13019,-0.21874 2.078125,0 0.291647,10e-6 0.510397,0.109385 0.65625,0.328125 0.145813,0.218759 0.145813,0.473967 0,0.765625 -0.145853,0.291675 -0.546894,0.692716 -1.203125,1.203125 -0.729184,0.437507 -1.276059,0.765632 -1.640625,0.984375 -0.07293,0.437506 -0.218767,0.765631 -0.4375,0.984375 -0.583349,0.947921 -1.130224,0.947921 -1.640625,0 -0.07293,0.07292 -0.218765,0.145839 -0.4375,0.21875 -0.94793,0.510421 -1.312513,0.838546 -1.09375,0.984375 0.874986,-0.07291 1.786443,-0.145829 2.734375,-0.21875 2.041649,-0.145829 3.536439,-0.218745 4.484375,-0.21875 -0.583353,-0.656245 -1.057311,-1.093744 -1.421875,-1.3125 0.145814,-0.145827 0.510397,-0.218744 1.09375,-0.21875 l 0.875,0 0,-5.796875 C 20.333312,14.437513 20.260396,13.125014 20.1875,11.375 20.041646,11.229183 19.604146,11.156266 18.875,11.15625 z M 7.28125,15.421875 c -1.4583398,0.510428 -2.5156304,0.838553 -3.171875,0.984375 0.583328,0.07293 1.2760357,1.1e-5 2.078125,-0.21875 0.583326,-0.145822 0.9479089,-0.40103 1.09375,-0.765625 z m 9.078125,0.4375 L 16.25,17.5 c 0.437483,-0.65624 0.729149,-1.239572 0.875,-1.75 z m -0.21875,4.59375 c 0.656233,-0.437493 0.984357,-0.802076 0.984375,-1.09375 -1.8e-5,-0.291659 -0.328142,-0.510408 -0.984375,-0.65625 z"
     style="font-size:28px;font-variant:normal;font-stretch:normal;fill:#b3b3b3;font-family:HGGyoshotai;-inkscape-font-specification:HGGyoshotai"
     id="path3950"
     inkscape:connector-curvature="0" /><path
     d="m 41.84375,6.015625 c 0.218735,-0.072895 0.692693,0.1458544 1.421875,0.65625 0.72915,0.4375201 1.093733,1.0937695 1.09375,1.96875 -0.14585,0.6562679 -0.437517,1.89585 -0.875,3.71875 l -0.328125,1.09375 c 0.218734,1.4e-5 0.5104,-0.0729 0.875,-0.21875 0.364566,-0.145819 0.656233,-0.583319 0.875,-1.3125 0.0729,-0.145818 0.546857,-0.291651 1.421875,-0.4375 0.437481,0.145849 0.984355,0.32814 1.640625,0.546875 1.166645,0.364598 1.822894,0.838556 1.96875,1.421875 -2.3e-5,0.51043 -0.364606,0.911471 -1.09375,1.203125 -1.968769,0.729179 -3.427101,1.239595 -4.375,1.53125 -0.875016,0.291677 -1.677099,0.546885 -2.40625,0.765625 -1.60418,2.479174 -2.916678,4.302089 -3.9375,5.46875 -0.802093,0.947921 -1.786467,1.82292 -2.953125,2.625 -0.729174,0.583335 -1.567715,0.875001 -2.515625,0.875 -1.458337,0.07292 -2.333336,-0.473957 -2.625,-1.640625 0.07291,-0.14583 0.255205,-0.14583 0.546875,0 0.510413,0.218753 0.802079,0.291669 0.875,0.21875 1.749994,-0.656247 3.244784,-1.749996 4.484375,-3.28125 1.166657,-1.604159 1.895823,-2.770825 2.1875,-3.5 -1.166676,-0.145824 -2.515633,-1.057281 -4.046875,-2.734375 -0.291673,-0.218738 -0.291673,-0.328112 0,-0.328125 0.218743,1.3e-5 0.546868,0.07293 0.984375,0.21875 0.437492,0.07293 0.874991,0.109387 1.3125,0.109375 0.87499,1.2e-5 2.005197,-0.182279 3.390625,-0.546875 L 40.75,11.59375 40.859375,10.828125 C 40.786445,9.9531423 40.604153,9.1510598 40.3125,8.421875 39.947904,7.6927279 39.765613,7.1458534 39.765625,6.78125 L 39.875,6.671875 c 0.80207,-0.2187292 1.458319,-0.437479 1.96875,-0.65625 z m 1.3125,14 c 2.770815,0.36459 4.958313,1.276048 6.5625,2.734375 1.531226,1.38542 2.479142,2.734377 2.84375,4.046875 L 52.453125,27.5625 c -0.364608,0.218749 -0.729191,0.328124 -1.09375,0.328125 l -0.21875,0 c -0.437523,-1e-6 -1.312522,-0.364584 -2.625,-1.09375 -1.31252,-0.729166 -1.968769,-1.203123 -1.96875,-1.421875 l 1.75,0 c 0.0729,-0.291665 -2.1e-5,-0.546873 -0.21875,-0.765625 -1.822936,-1.531246 -3.718767,-3.098953 -5.6875,-4.703125 z"
     style="font-size:28px;font-variant:normal;font-stretch:normal;fill:#b3b3b3;font-family:HGGyoshotai;-inkscape-font-specification:HGGyoshotai"
     id="path3952"
     inkscape:connector-curvature="0" /><path
     d="m 66.234375,10.5 c 0.802072,0.510433 1.640613,0.765641 2.515625,0.765625 2.989567,0.437516 4.63019,1.640639 4.921875,3.609375 -1.8e-5,0.364595 -0.145851,0.583345 -0.4375,0.65625 -1.166683,0.145845 -2.625015,0.328136 -4.375,0.546875 -0.364596,0.07293 -0.765638,0.109386 -1.203125,0.109375 1.677069,-0.656238 2.916651,-1.239571 3.71875,-1.75 0.29165,-0.36457 0.255192,-0.619778 -0.109375,-0.765625 -0.729182,-0.0729 -1.276056,-0.109361 -1.640625,-0.109375 -0.291681,-0.0729 -0.583347,-0.109361 -0.875,-0.109375 -0.583346,-0.0729 -1.203137,-0.328111 -1.859375,-0.765625 -0.656261,-0.656235 -1.020844,-1.057276 -1.09375,-1.203125 -0.43751,-0.583317 -0.619801,-1.16665 -0.546875,-1.75 0.291657,0.291684 0.619781,0.546892 0.984375,0.765625 z m -2.078125,9.515625 c -0.145842,0.291674 -0.255217,0.58334 -0.328125,0.875 0.145825,0.510422 0.473949,0.875005 0.984375,1.09375 0.802073,0.218755 2.114572,0.401047 3.9375,0.546875 0.874986,5e-6 1.968735,0.07292 3.28125,0.21875 1.531232,0.583337 2.333314,1.16667 2.40625,1.75 -0.145852,0.437502 -0.364602,0.729169 -0.65625,0.875 l -1.640625,0.109375 c -1.822932,-0.07291 -3.718763,-0.328123 -5.6875,-0.765625 -0.65626,-0.218747 -1.31251,-0.58333 -1.96875,-1.09375 -1.166675,-0.874996 -1.677091,-1.786453 -1.53125,-2.734375 L 63.5,20.015625 c 0.218742,-0.145826 0.437491,-0.145826 0.65625,0 z m 12.6875,-13.34375 c 0.729145,2.06e-5 1.312477,0.072937 1.75,0.21875 0.437476,0.072937 0.874976,0.3646033 1.3125,0.875 0.145809,0.2916858 0.145809,0.5833522 0,0.875 -0.218774,0.1458518 -0.546899,0.2187684 -0.984375,0.21875 C 78.484352,8.8593934 78.010394,8.6406436 77.5,8.203125 76.989562,7.8385611 76.442687,7.4010615 75.859375,6.890625 76.223938,6.7448122 76.552062,6.6718956 76.84375,6.671875 z m -2.625,1.75 c 1.020814,0.2187686 1.968729,0.6562682 2.84375,1.3125 0.0729,0.437517 0.03644,0.8021 -0.109375,1.09375 -0.145855,0.291683 -0.291688,0.437516 -0.4375,0.4375 l -0.875,-0.109375 C 74.546856,10.20835 73.781232,9.4062678 73.34375,8.75 c 0.291648,-0.1458147 0.583315,-0.2551896 0.875,-0.328125 z"
     style="font-size:28px;font-variant:normal;font-stretch:normal;fill:#b3b3b3;font-family:HGGyoshotai;-inkscape-font-specification:HGGyoshotai"
     id="path3954"
     inkscape:connector-curvature="0" /><path
     d="m 98.71875,9.078125 c 0.583317,1.82e-5 1.16665,0.1823096 1.75,0.546875 0.9479,0.875017 1.42186,1.567724 1.42188,2.078125 -2e-5,0.583348 -0.51044,1.677097 -1.53125,3.28125 -1.312521,1.96876 -2.40627,3.354176 -3.281255,4.15625 1.020819,0.07293 2.078109,0.218758 3.171875,0.4375 0.58332,0.145841 1.3854,0.364591 2.40625,0.65625 0.36456,-0.874992 0.40102,-1.385408 0.10938,-1.53125 -0.14586,0.07293 -0.25523,0.1823 -0.32813,0.328125 -0.43752,-0.364575 -0.51044,-0.692699 -0.21875,-0.984375 0.43748,-0.43749 1.13019,-0.328115 2.07813,0.328125 0.58331,0.583342 0.80206,1.348966 0.65625,2.296875 l 1.20312,0.546875 c 1.02081,0.437506 1.67706,0.947922 1.96875,1.53125 0.21873,0.437504 0.10935,0.692712 -0.32812,0.765625 -0.65628,-0.145829 -1.82294,-0.510412 -3.5,-1.09375 -1.16669,1.239587 -2.33336,2.151044 -3.5,2.734375 -1.166688,0.583335 -2.479187,1.166668 -3.937505,1.75 0.583319,-0.437499 1.385402,-1.130207 2.40625,-2.078125 1.020815,-0.947913 1.895815,-2.005204 2.625005,-3.171875 -1.16669,-0.437494 -2.078146,-0.692702 -2.73438,-0.765625 C 97.916652,20.671882 96.786445,20.562507 95.765625,20.5625 L 92.8125,23.40625 c -0.802092,0.656253 -1.458341,1.057294 -1.96875,1.203125 -0.36459,0.218752 -0.729173,0.328127 -1.09375,0.328125 -0.437506,2e-6 -0.875005,-0.656247 -1.3125,-1.96875 -0.802088,-0.656245 -1.166671,-1.20312 -1.09375,-1.640625 0.145829,-0.583327 0.583329,-1.020826 1.3125,-1.3125 0.94791,-0.364576 2.114576,-0.619784 3.5,-0.765625 0.87499,-0.07291 1.677073,-0.109367 2.40625,-0.109375 0.656238,-0.729158 1.276029,-1.458324 1.859375,-2.1875 2.333318,-2.916653 3.463525,-4.994776 3.390625,-6.234375 -1.6e-5,-0.437483 -0.218766,-0.656233 -0.65625,-0.65625 -1.093765,0.58335 -2.005222,0.947933 -2.734375,1.09375 C 95.473946,11.302099 94.74478,11.083349 94.234375,10.5 93.723948,9.9896006 93.395823,9.5885593 93.25,9.296875 94.052073,9.5885593 94.781239,9.6979342 95.4375,9.625 96.45832,9.4791844 97.552069,9.2968929 98.71875,9.078125 z M 91.0625,20.78125 c -0.58334,0.07292 -1.166673,0.182298 -1.75,0.328125 -0.364589,0.145839 -0.583339,0.328131 -0.65625,0.546875 0.218745,0.583338 0.692702,1.020838 1.421875,1.3125 0.874992,-0.364579 1.822908,-1.093745 2.84375,-2.1875 -0.437509,-0.07291 -1.0573,-0.07291 -1.859375,0 z"
     style="font-size:28px;font-variant:normal;font-stretch:normal;fill:#b3b3b3;font-family:HGGyoshotai;-inkscape-font-specification:HGGyoshotai"
     id="path3956"
     inkscape:connector-curvature="0" /><path
     d="m 124.09375,6.890625 c 1.09374,0.1458535 1.93228,0.4375199 2.51563,0.875 0.58331,0.3646024 0.87498,1.166685 0.875,2.40625 -2e-5,0.947933 -0.0365,1.786474 -0.10938,2.515625 -0.0729,0.510431 -0.14585,1.312513 -0.21875,2.40625 l 0,3.5 c 0.0729,1.67709 0.10936,3.317714 0.10938,4.921875 -2e-5,1.093753 -0.14585,2.041668 -0.4375,2.84375 -0.29169,0.729167 -0.94794,1.09375 -1.96875,1.09375 -0.51043,0 -0.98439,-0.21875 -1.42188,-0.65625 -0.51043,-0.510416 -0.98439,-1.239582 -1.42187,-2.1875 -0.65626,-1.749996 -1.56772,-3.536452 -2.73438,-5.359375 l -2.07812,2.078125 c -0.58334,0.656255 -1.02084,0.838547 -1.3125,0.546875 -0.43751,-0.437494 -0.69272,-0.765619 -0.76563,-0.984375 -0.14584,-0.29166 -0.21875,-0.656243 -0.21875,-1.09375 0.14583,-0.656242 0.36458,-1.1302 0.65625,-1.421875 0.21875,-0.291658 0.65625,-0.87499 1.3125,-1.75 0.29166,-0.364572 0.43749,-0.692697 0.4375,-0.984375 -1e-5,-0.364571 0.10937,-0.510405 0.32813,-0.4375 0.36457,1.2e-5 0.65624,0.291678 0.875,0.875 0.14582,0.802094 0.32811,1.31251 0.54687,1.53125 1.74999,-0.729156 3.20832,-1.385406 4.375,-1.96875 0.0729,-0.07291 0.0365,1.2e-5 -0.10937,0.21875 -1.53127,1.239593 -2.77085,2.296884 -3.71875,3.171875 1.23957,1.822923 2.51561,3.135422 3.82812,3.9375 0.43749,0.218754 0.72915,0.109379 0.875,-0.328125 -1e-5,-0.437495 0.0729,-1.385411 0.21875,-2.84375 0.0729,-1.531241 0.10936,-3.499989 0.10938,-5.90625 L 124.53125,8.96875 124.20313,8.53125 122.78125,7.328125 C 122.56249,7.1093951 122.59895,7.0000202 122.89063,7 l 1.20312,-0.109375 z m 5.46875,7.875 c 4.81248,1.312511 7.18227,3.390634 7.10937,6.234375 -0.3646,0.364589 -0.69273,0.546881 -0.98437,0.546875 -0.36461,0.07292 -1.34898,-0.291661 -2.95313,-1.09375 -0.94793,-0.437493 -1.02085,-0.656243 -0.21875,-0.65625 0.5104,7e-6 0.65623,-0.109367 0.4375,-0.328125 l -0.4375,-0.546875 c -0.65627,-1.020824 -1.05731,-1.713532 -1.20312,-2.078125 -0.21877,-0.437489 -0.58335,-0.911447 -1.09375,-1.421875 -0.29169,-0.291655 -0.51043,-0.510404 -0.65625,-0.65625 z"
     style="font-size:28px;font-variant:normal;font-stretch:normal;fill:#b3b3b3;font-family:HGGyoshotai;-inkscape-font-specification:HGGyoshotai"
     id="path3958"
     inkscape:connector-curvature="0" /><path
     d="m 152.42187,7.546875 c 0.65624,0.2187695 1.05728,0.4739775 1.20313,0.765625 0.21874,0.072935 0.18228,0.255227 -0.10938,0.546875 -0.87501,0.5104345 -1.64063,0.9843924 -2.29687,1.421875 0.58332,0.14585 0.9479,0.510433 1.09375,1.09375 0.65624,1.6e-5 1.20311,0.07293 1.64062,0.21875 0.51041,0.364599 0.47395,0.692723 -0.10937,0.984375 -0.58335,0.218764 -1.16668,0.473973 -1.75,0.765625 l -0.4375,5.03125 c -0.0729,0.656258 -0.32814,1.203133 -0.76563,1.640625 -0.87501,-0.874992 -1.27605,-1.5677 -1.20312,-2.078125 0.14582,-1.312489 0.29166,-2.661446 0.4375,-4.046875 l -1.53125,0.65625 c -1e-5,0.510429 -0.10938,1.020845 -0.32813,1.53125 -0.4375,1.677093 -0.91146,2.697925 -1.42187,3.0625 -0.14584,8e-6 -0.36459,-0.145825 -0.65625,-0.4375 -0.43751,-0.437491 -0.65626,-0.874991 -0.65625,-1.3125 L 145.85937,16.625 c 0.0729,-0.291656 0.14583,-0.692697 0.21875,-1.203125 l -1.53125,0.4375 c -0.65625,0.364594 -1.16667,0.437511 -1.53125,0.21875 -0.29166,-0.364572 -0.51041,-0.874988 -0.65625,-1.53125 0.14584,-0.14582 0.40104,-0.328112 0.76563,-0.546875 0.4375,0.07293 0.76562,0.109388 0.98437,0.109375 1.02083,-0.510403 2.04166,-1.203111 3.0625,-2.078125 l 0,-0.65625 c 0,-0.218734 -0.0729,-0.5104 -0.21875,-0.875 0.65625,0.218767 1.02083,0.510433 1.09375,0.875 0.94791,-0.5104 1.49479,-0.984358 1.64063,-1.421875 -0.36459,-0.5833155 -1.34897,-1.1666482 -2.95313,-1.75 l 0,-0.109375 0.875,-0.109375 c 2.04166,-0.1458139 3.42708,-0.3281054 4.15625,-0.546875 0.14583,-0.072897 0.36458,-0.036439 0.65625,0.109375 z M 160.625,7.875 c 1.02081,0.2187691 1.53123,0.692727 1.53125,1.421875 -2e-5,0.5104341 -0.1094,1.203142 -0.32813,2.078125 -0.0729,1.239598 -0.10939,2.406263 -0.10937,3.5 -2e-5,1.020845 0.0364,2.005219 0.10937,2.953125 l -0.10937,1.09375 L 161.5,19.46875 c -0.21877,0.218758 -0.5469,0.255216 -0.98438,0.109375 -1.16668,-0.291659 -2.15106,-0.729158 -2.95312,-1.3125 -0.29168,-0.218741 -0.29168,-0.328116 0,-0.328125 0.58331,9e-6 1.02081,-0.03645 1.3125,-0.109375 0.14581,-0.145824 0.32811,-0.43749 0.54687,-0.875 0.21873,-3.718736 0.32811,-6.234358 0.32813,-7.546875 -2e-5,-0.2916485 -0.0365,-0.47394 -0.10938,-0.546875 l -0.65625,0.4375 0.32813,-0.65625 C 158.87498,8.4218938 158.76561,8.2396023 158.98437,8.09375 159.42185,7.8750194 159.96873,7.8021028 160.625,7.875 z m -4.92188,1.640625 c 0.58332,0.2187675 0.9479,0.510434 1.09375,0.875 -1e-5,0.729183 0.14582,1.276057 0.4375,1.640625 0.29165,-0.510401 0.61978,-1.203109 0.98438,-2.078125 -0.0729,0.437517 -0.14585,0.8021 -0.21875,1.09375 l -0.32813,1.421875 c -0.8021,2.479179 -1.45835,3.791678 -1.96875,3.9375 -0.80209,-0.802072 -1.16668,-1.312488 -1.09375,-1.53125 0.0729,-0.656237 0.21874,-1.23957 0.4375,-1.75 0.21874,-0.583319 0.32811,-1.421859 0.32813,-2.515625 l -0.10938,-1.09375 c 0.0729,-0.072899 0.21874,-0.072899 0.4375,0 z m -5.14062,1.3125 c -0.72918,0.364599 -1.38543,0.802099 -1.96875,1.3125 0.0729,0.218765 0.10937,0.437515 0.10937,0.65625 0.80208,-0.218735 1.38541,-0.510402 1.75,-0.875 -1e-5,-0.291651 0.0364,-0.656234 0.10938,-1.09375 z m 3.28125,6.015625 c 0.65623,10e-6 1.20311,0.328135 1.64062,0.984375 0.43749,0.656259 0.65624,1.458341 0.65625,2.40625 1.16665,-0.364576 1.93228,-0.328118 2.29688,0.109375 0.29165,0.656256 -0.0729,1.166672 -1.09375,1.53125 -0.65627,0.218755 -1.16668,0.401047 -1.53125,0.546875 -0.0729,0.875004 -0.14585,1.82292 -0.21875,2.84375 l 3.17187,0.328125 c 0.58332,-0.218748 1.64061,0.109377 3.17188,0.984375 1.16664,0.65625 1.67706,1.239583 1.53125,1.75 -0.14586,0.291665 -0.47398,0.40104 -0.98438,0.328125 -1.2396,-0.07292 -2.77085,-0.437501 -4.59375,-1.09375 -0.87501,-0.291667 -2.11459,-0.4375 -3.71875,-0.4375 -0.94793,0 -2.15105,0.182292 -3.60937,0.546875 -0.58334,0.145833 -1.13022,0.218749 -1.64063,0.21875 -1.02084,-1e-6 -1.75,-0.03646 -2.1875,-0.109375 -0.51042,-0.07292 -0.94792,-0.328125 -1.3125,-0.765625 -0.21875,-0.364583 -0.0365,-0.473958 0.54688,-0.328125 3.13541,-0.510416 4.84895,-0.802082 5.14062,-0.875 0.72916,-0.218748 1.34895,-0.364582 1.85938,-0.4375 0.21874,-0.874997 0.32811,-1.749996 0.32812,-2.625 -1.75001,-0.07291 -2.98959,-0.619787 -3.71875,-1.640625 -0.0729,-0.218744 -0.0729,-0.328119 0,-0.328125 1.23958,0.218756 2.11458,0.328131 2.625,0.328125 0.51041,6e-6 0.91145,-0.07291 1.20313,-0.21875 0.14582,-0.437493 0.18228,-0.984368 0.10937,-1.640625 -0.0729,-0.874991 -0.32813,-1.494782 -0.76562,-1.859375 -0.14585,-0.145823 -0.1823,-0.255198 -0.10938,-0.328125 0.21874,-0.21874 0.61978,-0.291656 1.20313,-0.21875 z"
     style="font-size:28px;font-variant:normal;font-stretch:normal;fill:#b3b3b3;font-family:HGGyoshotai;-inkscape-font-specification:HGGyoshotai"
     id="path3960"
     inkscape:connector-curvature="0" /></g></svg>
