<?xml version="1.0" encoding="UTF-8" standalone="no"?>
<!-- Generator: Adobe Illustrator 16.0.4, SVG Export Plug-In . SVG Version: 6.00 Build 0)  -->

<svg
   xmlns:dc="http://purl.org/dc/elements/1.1/"
   xmlns:cc="http://creativecommons.org/ns#"
   xmlns:rdf="http://www.w3.org/1999/02/22-rdf-syntax-ns#"
   xmlns:svg="http://www.w3.org/2000/svg"
   xmlns="http://www.w3.org/2000/svg"
   xmlns:sodipodi="http://sodipodi.sourceforge.net/DTD/sodipodi-0.dtd"
   xmlns:inkscape="http://www.inkscape.org/namespaces/inkscape"
   version="1.1"
   id="レイヤー_1"
   x="0px"
   y="0px"
   width="173"
   height="23"
   viewBox="0 0 173 23"
   enable-background="new 0 0 120 23"
   xml:space="preserve"
   inkscape:version="0.48.5 r10040"
   sodipodi:docname="sodaiogata.svg"><metadata
   id="metadata4427"><rdf:RDF><cc:Work
       rdf:about=""><dc:format>image/svg+xml</dc:format><dc:type
         rdf:resource="http://purl.org/dc/dcmitype/StillImage" /><dc:title /></cc:Work></rdf:RDF></metadata><defs
   id="defs4425" /><sodipodi:namedview
   pagecolor="#ffffff"
   bordercolor="#666666"
   borderopacity="1"
   objecttolerance="10"
   gridtolerance="10"
   guidetolerance="10"
   inkscape:pageopacity="0"
   inkscape:pageshadow="2"
   inkscape:window-width="1366"
   inkscape:window-height="706"
   id="namedview4423"
   showgrid="false"
   inkscape:zoom="5.075"
   inkscape:cx="79.189879"
   inkscape:cy="75.541786"
   inkscape:window-x="-8"
   inkscape:window-y="-8"
   inkscape:window-maximized="1"
   inkscape:current-layer="flowRoot4375" />





<text
   xml:space="preserve"
   style="font-size:13.42425632px;font-style:normal;font-weight:normal;line-height:125%;letter-spacing:0px;word-spacing:0px;fill:#f6f6f6;fill-opacity:1;stroke:none;font-family:Sans"
   x="6.7928081"
   y="12.422898"
   id="text4429"
   sodipodi:linespacing="125%"
   transform="scale(0.7536626,1.3268537)"><tspan
     sodipodi:role="line"
     x="6.7928081"
     y="12.422898"
     id="tspan4433"
     style="font-size:13px" /></text>



<flowRoot
   xml:space="preserve"
   id="flowRoot4945"
   style="font-size:11px;font-style:normal;font-weight:normal;line-height:125%;letter-spacing:0px;word-spacing:0px;fill:#000000;fill-opacity:1;stroke:none;font-family:Sans"><flowRegion
     id="flowRegion4947"><rect
       id="rect4949"
       width="392.31528"
       height="103.64532"
       x="32.118225"
       y="-121.23645" /></flowRegion><flowPara
     id="flowPara4951" /></flowRoot><g
   style="font-size:11px;font-style:normal;font-weight:normal;line-height:125%;letter-spacing:0px;word-spacing:0px;fill:#000000;fill-opacity:1;stroke:none;font-family:Sans"
   id="flowRoot4006">path
     d=&quot;m 44.1875,5.40625 c 0.802076,0.5104329 1.640617,0.765641 2.515625,0.765625 2.989572,0.4375155 4.630195,1.6406393 4.921875,3.609375 -1.4e-5,0.364595 -0.145847,0.583345 -0.4375,0.65625 -1.166679,0.145845 -2.625011,0.328136 -4.375,0.546875 -0.364592,0.07293 -0.765633,0.109386 -1.203125,0.109375 1.677074,-0.656238 2.916656,-1.239571 3.71875,-1.75 C 49.61978,8.9791798 49.583322,8.7239718 49.21875,8.578125 48.489573,8.505222 47.942698,8.4687637 47.578125,8.46875 47.286449,8.3958471 46.994783,8.3593888 46.703125,8.359375 46.119784,8.2864722 45.499993,8.0312641 44.84375,7.59375 44.187494,6.9375152 43.822911,6.5364739 43.75,6.390625 43.312495,5.807308 43.130203,5.2239753 43.203125,4.640625 43.494786,4.9323089 43.822911,5.187517 44.1875,5.40625 z m -2.078125,9.515625 c -0.145837,0.291674 -0.255212,0.58334 -0.328125,0.875 0.145829,0.510422 0.473954,0.875005 0.984375,1.09375 0.802078,0.218755 2.114577,0.401047 3.9375,0.546875 0.87499,5e-6 1.968739,0.07292 3.28125,0.21875 1.531237,0.583337 2.333319,1.16667 2.40625,1.75 -0.145848,0.437502 -0.364597,0.729169 -0.65625,0.875 L 50.09375,20.390625 C 48.270823,20.31771 46.374992,20.062502 44.40625,19.625 43.749994,19.406253 43.093745,19.04167 42.4375,18.53125 41.27083,17.656254 40.760414,16.744797 40.90625,15.796875 l 0.546875,-0.875 c 0.218746,-0.145826 0.437496,-0.145826 0.65625,0 z m 12.6875,-13.34375 c 0.729149,2.06e-5 1.312482,0.072937 1.75,0.21875 0.437481,0.072937 0.874981,0.3646033 1.3125,0.875 0.145813,0.2916858 0.145813,0.5833522 0,0.875 -0.21877,0.1458518 -0.546894,0.2187684 -0.984375,0.21875 -0.437518,1.84e-5 -0.911476,-0.2187314 -1.421875,-0.65625 -0.510434,-0.3645639 -1.057308,-0.8020635 -1.640625,-1.3125 0.364567,-0.1458128 0.692692,-0.2187294 0.984375,-0.21875 z m -2.625,1.75 c 1.020818,0.2187686 1.968734,0.6562682 2.84375,1.3125 0.0729,0.4375171 0.03644,0.8021 -0.109375,1.09375 -0.14585,0.2916828 -0.291683,0.437516 -0.4375,0.4375 L 53.59375,6.0625 C 52.499986,5.1146004 51.734361,4.3125178 51.296875,3.65625 c 0.291653,-0.1458147 0.58332,-0.2551896 0.875,-0.328125 z&quot;
     style=&quot;font-size:28px;font-variant:normal;font-stretch:normal;font-family:HGPGyoshotai;-inkscape-font-specification:HGPGyoshotai;fill:#b3b3b3&quot;
     id=&quot;path4019&quot; /&gt;path
     d=&quot;m 124.6875,2.453125 c 0.65624,0.2187695 1.05728,0.4739775 1.20313,0.765625 0.21873,0.072935 0.18227,0.255227 -0.10938,0.546875 -0.87501,0.5104345 -1.64064,0.9843924 -2.29687,1.421875 0.58332,0.1458501 0.9479,0.5104331 1.09375,1.09375 0.65623,1.59e-5 1.20311,0.072933 1.64062,0.21875 0.5104,0.3645986 0.47394,0.6927233 -0.10937,0.984375 -0.58335,0.2187644 -1.16668,0.4739725 -1.75,0.765625 l -0.4375,5.03125 c -0.0729,0.656258 -0.32814,1.203133 -0.76563,1.640625 -0.87501,-0.874992 -1.27605,-1.5677 -1.20312,-2.078125 0.14582,-1.312489 0.29165,-2.661446 0.4375,-4.046875 l -1.53125,0.65625 c -1e-5,0.5104288 -0.10939,1.020845 -0.32813,1.53125 -0.43751,1.677093 -0.91147,2.697925 -1.42187,3.0625 -0.14585,8e-6 -0.3646,-0.145825 -0.65625,-0.4375 -0.43751,-0.437491 -0.65626,-0.874991 -0.65625,-1.3125 L 118.125,11.53125 c 0.0729,-0.291656 0.14583,-0.692697 0.21875,-1.203125 l -1.53125,0.4375 c -0.65625,0.364594 -1.16667,0.437511 -1.53125,0.21875 -0.29167,-0.364572 -0.51042,-0.874988 -0.65625,-1.53125 0.14583,-0.1458205 0.40104,-0.328112 0.76563,-0.546875 0.43749,0.07293 0.76562,0.1093881 0.98437,0.109375 1.02083,-0.510403 2.04166,-1.2031107 3.0625,-2.078125 l 0,-0.65625 c -1e-5,-0.2187339 -0.0729,-0.5104003 -0.21875,-0.875 0.65624,0.2187665 1.02082,0.5104329 1.09375,0.875 0.94791,-0.5104003 1.49478,-0.9843582 1.64063,-1.421875 -0.3646,-0.5833155 -1.34897,-1.1666482 -2.95313,-1.75 L 119,3 119.875,2.890625 c 2.04166,-0.1458139 3.42707,-0.3281054 4.15625,-0.546875 0.14582,-0.072897 0.36457,-0.036439 0.65625,0.109375 z m 8.20312,0.328125 c 1.02082,0.2187691 1.53123,0.692727 1.53125,1.421875 -2e-5,0.5104341 -0.10939,1.2031417 -0.32812,2.078125 -0.0729,1.239598 -0.1094,2.4062635 -0.10938,3.5 -2e-5,1.020845 0.0364,2.005219 0.10938,2.953125 l -0.10938,1.09375 -0.21875,0.546875 c -0.21877,0.218758 -0.54689,0.255216 -0.98437,0.109375 -1.16669,-0.291659 -2.15106,-0.729158 -2.95313,-1.3125 -0.29168,-0.218741 -0.29168,-0.328116 0,-0.328125 0.58332,9e-6 1.02082,-0.03645 1.3125,-0.109375 0.14582,-0.145824 0.32811,-0.43749 0.54688,-0.875 0.21873,-3.718736 0.3281,-6.2343585 0.32812,-7.546875 -2e-5,-0.2916485 -0.0365,-0.47394 -0.10937,-0.546875 l -0.65625,0.4375 0.32812,-0.65625 C 131.14061,3.3281438 131.03123,3.1458523 131.25,3 c 0.43748,-0.2187306 0.98435,-0.2916472 1.64062,-0.21875 z m -4.92187,1.640625 c 0.58332,0.2187675 0.9479,0.5104339 1.09375,0.875 -2e-5,0.7291828 0.14582,1.2760572 0.4375,1.640625 0.29165,-0.510401 0.61977,-1.2031086 0.98437,-2.078125 -0.0729,0.4375168 -0.14585,0.8020998 -0.21875,1.09375 L 129.9375,7.375 c -0.8021,2.479179 -1.45835,3.791678 -1.96875,3.9375 -0.8021,-0.802072 -1.16668,-1.312488 -1.09375,-1.53125 0.0729,-0.656237 0.21873,-1.2395697 0.4375,-1.75 0.21873,-0.5833186 0.32811,-1.4218595 0.32813,-2.515625 l -0.10938,-1.09375 c 0.0729,-0.072899 0.21873,-0.072899 0.4375,0 z m -5.14062,1.3125 c -0.72918,0.3645994 -1.38543,0.8020989 -1.96875,1.3125 0.0729,0.2187649 0.10936,0.4375147 0.10937,0.65625 0.80207,-0.2187353 1.38541,-0.5104017 1.75,-0.875 -1e-5,-0.2916511 0.0365,-0.656234 0.10938,-1.09375 z M 126.10938,11.75 c 0.65623,10e-6 1.2031,0.328135 1.64062,0.984375 0.43748,0.656259 0.65623,1.458341 0.65625,2.40625 1.16665,-0.364576 1.93227,-0.328118 2.29687,0.109375 0.29165,0.656256 -0.0729,1.166672 -1.09375,1.53125 -0.65626,0.218755 -1.16668,0.401047 -1.53125,0.546875 -0.0729,0.875004 -0.14584,1.82292 -0.21874,2.84375 L 131.03125,20.5 c 0.58331,-0.218748 1.6406,0.109377 3.17187,0.984375 1.16665,0.65625 1.67706,1.239583 1.53125,1.75 -0.14585,0.291665 -0.47398,0.40104 -0.98437,0.328125 -1.23961,-0.07292 -2.77085,-0.437501 -4.59375,-1.09375 -0.87502,-0.291667 -2.1146,-0.4375 -3.71875,-0.4375 -0.94793,0 -2.15105,0.182292 -3.60937,0.546875 -0.58335,0.145833 -1.13022,0.218749 -1.64063,0.21875 -1.02084,-1e-6 -1.75001,-0.03646 -2.1875,-0.109375 -0.51042,-0.07292 -0.94792,-0.328125 -1.3125,-0.765625 -0.21876,-0.364583 -0.0365,-0.473958 0.54688,-0.328125 3.1354,-0.510416 4.84894,-0.802082 5.14062,-0.875 0.72915,-0.218748 1.34895,-0.364582 1.85938,-0.4375 0.21873,-0.874997 0.32811,-1.749996 0.32812,-2.625 -1.75001,-0.07291 -2.98959,-0.619787 -3.71875,-1.640625 -0.0729,-0.218744 -0.0729,-0.328119 0,-0.328125 1.23957,0.218756 2.11457,0.328131 2.625,0.328125 0.5104,6e-6 0.91144,-0.07291 1.20313,-0.21875 0.14581,-0.437493 0.18227,-0.984368 0.10937,-1.640625 -0.0729,-0.874991 -0.32814,-1.494782 -0.76562,-1.859375 -0.14585,-0.145823 -0.18231,-0.255198 -0.10938,-0.328125 0.21874,-0.21874 0.61978,-0.291656 1.20313,-0.21875 z&quot;
     style=&quot;font-size:28px;font-variant:normal;font-stretch:normal;font-family:HGPGyoshotai;-inkscape-font-specification:HGPGyoshotai;fill:#b3b3b3&quot;
     id=&quot;path4025&quot; /&gt;<g
   transform="translate(6,4)"
   style="line-height:125%;font-family:Sans"
   id="flowRoot4375"><path
     d="m 4.6875,10.78125 c -7.7e-6,-0.218744 -7.7e-6,-0.473952 0,-0.765625 -0.4375072,0.36459 -0.8020902,0.80209 -1.09375,1.3125 L 4.6875,10.78125 z m 0.4375,-13.125 c 0.5833247,-0.1458138 1.239574,1.94e-5 1.96875,0.4375 0.4374895,0.2916853 0.5833227,0.6562683 0.4375,1.09375 C 7.4583229,-0.37498261 7.3854063,0.06251695 7.3125,0.5 8.8437382,0.35418333 9.8645705,0.75522459 10.375,1.703125 10.593736,2.0677233 10.557278,2.3229314 10.265625,2.46875 L 8.078125,3.5625 7.421875,4 7.859375,4.328125 C 8.7343633,4.6198041 9.2083212,4.984387 9.28125,5.421875 9.4999875,5.6406364 8.5520718,6.1875108 6.4375,7.0625 6.364574,7.5729261 6.3281157,7.9739674 6.328125,8.265625 l -0.109375,1.75 C 6.8020736,9.3593827 7.348948,8.8489665 7.859375,8.484375 7.5676978,9.1406329 7.0208233,9.9791737 6.21875,11 c -9.2e-6,0.364589 -9.2e-6,0.838547 0,1.421875 0.072907,0.510421 0.145824,1.750003 0.21875,3.71875 -9.4e-6,0.583334 -0.072926,0.984375 -0.21875,1.203125 -0.1458424,0.218749 -0.473967,0.510416 -0.984375,0.875 -0.218758,0.07291 -0.4739661,-0.07292 -0.765625,-0.4375 -0.437507,-0.583334 -0.6197985,-1.166666 -0.546875,-1.75 0.2187429,-0.802082 0.3645761,-1.421873 0.4375,-1.859375 0.072909,-0.874996 0.1458259,-1.567704 0.21875,-2.078125 -1.6770892,1.020837 -3.0625045,1.713545 -4.15625,2.078125 -0.58333614,-0.58333 -0.87500252,-1.020829 -0.875,-1.3125 -2.52e-6,-0.291662 0.54687194,-0.98437 1.640625,-2.078125 1.3854111,-1.385409 2.2604102,-2.4062414 2.625,-3.0625 L 0.75,8.59375 0.3125,8.265625 C 0.09374694,8.1198006 -0.01562795,7.7916759 -0.015625,7.28125 -0.01562795,6.7708436 0.34895502,6.4062606 1.078125,6.1875 2.2447865,5.7500113 3.6302017,4.9479287 5.234375,3.78125 l 0,-2.296875 C 4.7968672,2.0677233 3.9218681,3.0885556 2.609375,4.546875 2.3906196,4.6927207 2.1354116,4.6198041 1.84375,4.328125 1.2604124,3.5989717 0.96874606,3.0520973 0.96875,2.6875 1.2604124,1.9583484 1.6249954,1.3750156 2.0625,0.9375 l 0.328125,0.109375 c 0.5833274,0.2187658 0.9479104,0.5468904 1.09375,0.984375 0.7291595,-0.072902 1.3124922,-0.3281097 1.75,-0.765625 l 0,-2.40625 -0.4375,0 C 3.8489515,-1.28644 3.9583264,-1.6874813 5.125,-2.34375 z m 12.359375,2.078125 c 0.656229,1.728e-5 1.239562,0.25522536 1.75,0.765625 0.437477,0.43751608 0.656227,0.9843905 0.65625,1.640625 l -0.109375,3.0625 c 0.07289,2.479176 0.14581,4.3750074 0.21875,5.6875 0.07289,0.656255 -0.03648,1.20313 -0.328125,1.640625 l 0.4375,0.109375 c 1.677059,0.291671 2.843724,0.656254 3.5,1.09375 0.51039,0.729169 0.364556,1.239585 -0.4375,1.53125 -0.729192,2e-6 -1.458358,-0.07292 -2.1875,-0.21875 -0.94794,-0.218748 -1.859397,-0.437498 -2.734375,-0.65625 -0.583354,-0.145831 -0.984395,-0.218747 -1.203125,-0.21875 l -1.3125,0 c -2.697933,0.291669 -5.031264,0.546877 -7,0.765625 C 8.1510305,14.791669 7.7864476,14.609377 7.640625,14.390625 7.0572816,13.515629 7.3124897,12.895837 8.40625,12.53125 9.6458207,12.239588 10.484362,11.911463 10.921875,11.546875 L 11.578125,11.21875 10.8125,9.359375 C 11.177069,4.9114704 11.614569,2.2500148 12.125,1.375 12.270818,1.4479322 12.562484,1.6302237 13,1.921875 14.093733,0.82814119 14.968732,0.20835014 15.625,0.0625 c 0.583314,-0.21873283 1.203105,-0.32810772 1.859375,-0.328125 z M 7.203125,1.921875 7.75,1.046875 7.3125,0.828125 z M 16.5,0.9375 C 15.260398,0.86459948 14.203108,1.2656408 13.328125,2.140625 13.692692,2.651056 13.874983,3.2708471 13.875,4 c 0.364566,-0.072904 1.020815,-0.1822785 1.96875,-0.328125 0.656231,0.1458465 0.984355,0.4739712 0.984375,0.984375 -0.437519,0.5104285 -0.875019,0.8750115 -1.3125,1.09375 l -1.53125,1.640625 c 0.437483,-0.2187402 1.13019,-0.2187402 2.078125,0 0.291647,9.6e-6 0.510397,0.1093845 0.65625,0.328125 0.145813,0.2187591 0.145813,0.4739672 0,0.765625 -0.145853,0.2916749 -0.546894,0.6927162 -1.203125,1.203125 -0.729184,0.437507 -1.276059,0.765632 -1.640625,0.984375 -0.07293,0.437506 -0.218767,0.765631 -0.4375,0.984375 -0.583349,0.947921 -1.130224,0.947921 -1.640625,0 -0.07293,0.07292 -0.218765,0.145839 -0.4375,0.21875 -0.94793,0.510421 -1.312513,0.838546 -1.09375,0.984375 0.874986,-0.07291 1.786443,-0.145829 2.734375,-0.21875 2.041649,-0.145829 3.536439,-0.218745 4.484375,-0.21875 -0.583353,-0.656245 -1.057311,-1.093744 -1.421875,-1.3125 0.145814,-0.145827 0.510397,-0.218744 1.09375,-0.21875 l 0.875,0 0,-5.796875 C 17.958312,4.2187628 17.885396,2.9062641 17.8125,1.15625 17.666646,1.0104327 17.229146,0.93751608 16.5,0.9375 z M 4.90625,5.203125 C 3.4479102,5.713553 2.3906196,6.0416776 1.734375,6.1875 2.317703,6.2604274 3.0104107,6.1875108 3.8125,5.96875 4.395826,5.8229279 4.7604089,5.5677198 4.90625,5.203125 z m 9.078125,0.4375 L 13.875,7.28125 c 0.437483,-0.6562396 0.729149,-1.2395724 0.875,-1.75 z m -0.21875,4.59375 C 14.421858,9.7968822 14.749982,9.4322993 14.75,9.140625 14.749982,8.8489665 14.421858,8.6302167 13.765625,8.484375 z"
     style="font-size:28px;font-variant:normal;font-stretch:normal;fill:#f2f2f2;font-family:HGGyoshotai;-inkscape-font-specification:HGGyoshotai"
     id="path4384" /><path
     d="m 39.46875,-4.203125 c 0.218735,-0.072895 0.692693,0.1458544 1.421875,0.65625 0.72915,0.4375201 1.093733,1.0937695 1.09375,1.96875 -0.14585,0.65626794 -0.437517,1.89585003 -0.875,3.71875 l -0.328125,1.09375 c 0.218734,1.38e-5 0.5104,-0.072903 0.875,-0.21875 0.364566,-0.1458192 0.656233,-0.5833188 0.875,-1.3125 0.0729,-0.1458179 0.546857,-0.2916511 1.421875,-0.4375 0.437481,0.1458489 0.984355,0.3281404 1.640625,0.546875 1.166645,0.3645982 1.822894,0.838556 1.96875,1.421875 -2.3e-5,0.5104299 -0.364606,0.9114712 -1.09375,1.203125 -1.968769,0.7291785 -3.427101,1.2395947 -4.375,1.53125 -0.875016,0.2916774 -1.677099,0.5468855 -2.40625,0.765625 -1.60418,2.4791745 -2.916678,4.302089 -3.9375,5.46875 -0.802093,0.947921 -1.786467,1.82292 -2.953125,2.625 -0.729174,0.583335 -1.567715,0.875001 -2.515625,0.875 -1.458337,0.07292 -2.333336,-0.473957 -2.625,-1.640625 0.07291,-0.14583 0.255205,-0.14583 0.546875,0 0.510413,0.218753 0.802079,0.291669 0.875,0.21875 C 30.828119,13.625003 32.322909,12.531254 33.5625,11 34.729157,9.395841 35.458323,8.2291755 35.75,7.5 34.583324,7.3541763 33.234367,6.4427189 31.703125,4.765625 c -0.291673,-0.2187375 -0.291673,-0.3281124 0,-0.328125 0.218743,1.26e-5 0.546868,0.072929 0.984375,0.21875 0.437492,0.072929 0.874991,0.1093872 1.3125,0.109375 0.87499,1.22e-5 2.005197,-0.1822792 3.390625,-0.546875 L 38.375,1.375 38.484375,0.609375 C 38.411445,-0.26560772 38.229153,-1.0676902 37.9375,-1.796875 37.572904,-2.5260221 37.390613,-3.0728966 37.390625,-3.4375 L 37.5,-3.546875 c 0.80207,-0.2187292 1.458319,-0.437479 1.96875,-0.65625 z m 1.3125,14 c 2.770815,0.36459 4.958313,1.276048 6.5625,2.734375 1.531226,1.38542 2.479142,2.734377 2.84375,4.046875 l -0.109375,0.765625 c -0.364608,0.218749 -0.729191,0.328124 -1.09375,0.328125 l -0.21875,0 c -0.437523,-1e-6 -1.312522,-0.364584 -2.625,-1.09375 -1.31252,-0.729166 -1.968769,-1.203123 -1.96875,-1.421875 l 1.75,0 c 0.0729,-0.291665 -2.1e-5,-0.546873 -0.21875,-0.765625 -1.822936,-1.531246 -3.718767,-3.098953 -5.6875,-4.703125 z"
     style="font-size:28px;font-variant:normal;font-stretch:normal;fill:#f2f2f2;font-family:HGGyoshotai;-inkscape-font-specification:HGGyoshotai"
     id="path4386" /><path
     d="m 63.859375,0.28125 c 0.802072,0.51043289 1.640613,0.765641 2.515625,0.765625 2.989567,0.4375155 4.63019,1.6406393 4.921875,3.609375 -1.8e-5,0.3645953 -0.145851,0.5833451 -0.4375,0.65625 -1.166683,0.1458449 -2.625015,0.3281364 -4.375,0.546875 C 66.119779,5.9323028 65.718737,5.968761 65.28125,5.96875 66.958319,5.3125117 68.197901,4.729179 69,4.21875 69.29165,3.8541798 69.255192,3.5989717 68.890625,3.453125 68.161443,3.380222 67.614569,3.3437637 67.25,3.34375 66.958319,3.2708471 66.666653,3.2343888 66.375,3.234375 65.791654,3.1614722 65.171863,2.9062641 64.515625,2.46875 63.859364,1.8125152 63.494781,1.4114739 63.421875,1.265625 c -0.43751,-0.583317 -0.619801,-1.16664975 -0.546875,-1.75 0.291657,0.29168387 0.619781,0.54689195 0.984375,0.765625 z M 61.78125,9.796875 c -0.145842,0.291674 -0.255217,0.58334 -0.328125,0.875 0.145825,0.510423 0.473949,0.875005 0.984375,1.09375 0.802073,0.218755 2.114572,0.401047 3.9375,0.546875 0.874986,5e-6 1.968735,0.07292 3.28125,0.21875 1.531232,0.583337 2.333314,1.16667 2.40625,1.75 -0.145852,0.437502 -0.364602,0.729169 -0.65625,0.875 l -1.640625,0.109375 C 67.942693,15.19271 66.046862,14.937502 64.078125,14.5 c -0.65626,-0.218747 -1.31251,-0.58333 -1.96875,-1.09375 -1.166675,-0.874996 -1.677091,-1.786453 -1.53125,-2.734375 l 0.546875,-0.875 c 0.218742,-0.145826 0.437491,-0.145826 0.65625,0 z m 12.6875,-13.34375 c 0.729145,2.06e-5 1.312477,0.072937 1.75,0.21875 0.437476,0.072937 0.874976,0.3646033 1.3125,0.875 0.145809,0.2916858 0.145809,0.5833522 0,0.875 -0.218774,0.1458518 -0.546899,0.2187684 -0.984375,0.21875 -0.437523,1.84e-5 -0.911481,-0.2187314 -1.421875,-0.65625 -0.510438,-0.3645639 -1.057313,-0.8020635 -1.640625,-1.3125 0.364563,-0.1458128 0.692687,-0.2187294 0.984375,-0.21875 z m -2.625,1.75 c 1.020814,0.2187686 1.968729,0.6562682 2.84375,1.3125 0.0729,0.43751706 0.03644,0.80210003 -0.109375,1.09375 -0.145855,0.29168278 -0.291688,0.437516 -0.4375,0.4375 l -0.875,-0.109375 c -1.093769,-0.94789964 -1.859393,-1.74998217 -2.296875,-2.40625 0.291648,-0.1458147 0.583315,-0.2551896 0.875,-0.328125 z"
     style="font-size:28px;font-variant:normal;font-stretch:normal;fill:#f2f2f2;font-family:HGGyoshotai;-inkscape-font-specification:HGGyoshotai"
     id="path4388" /><path
     d="m 96.34375,-1.140625 c 0.583317,1.82e-5 1.16665,0.18230964 1.75,0.546875 0.947899,0.87501673 1.421857,1.56772438 1.421875,2.078125 -1.8e-5,0.5833483 -0.510435,1.6770972 -1.53125,3.28125 -1.312516,1.9687603 -2.406265,3.3541756 -3.28125,4.15625 1.020819,0.072925 2.078109,0.2187579 3.171875,0.4375 0.583316,0.1458408 1.385398,0.3645906 2.40625,0.65625 0.36456,-0.8749921 0.40102,-1.3854083 0.10938,-1.53125 -0.14586,0.072925 -0.25523,0.1823 -0.32813,0.328125 -0.437519,-0.3645748 -0.510435,-0.6926994 -0.21875,-0.984375 0.43748,-0.4374904 1.13019,-0.3281155 2.07813,0.328125 0.58331,0.5833416 0.80206,1.3489658 0.65625,2.296875 L 103.78125,11 c 1.02081,0.437506 1.67706,0.947922 1.96875,1.53125 0.21873,0.437504 0.10935,0.692712 -0.32812,0.765625 -0.65628,-0.145829 -1.82294,-0.510412 -3.5,-1.09375 -1.16669,1.239587 -2.333357,2.151044 -3.500005,2.734375 -1.166683,0.583335 -2.479182,1.166668 -3.9375,1.75 0.583319,-0.437499 1.385402,-1.130207 2.40625,-2.078125 1.020816,-0.947913 1.895816,-2.005204 2.625,-3.171875 C 98.348941,11.000006 97.437484,10.744798 96.78125,10.671875 95.541652,10.453132 94.411445,10.343757 93.390625,10.34375 L 90.4375,13.1875 c -0.802092,0.656253 -1.458341,1.057294 -1.96875,1.203125 -0.36459,0.218752 -0.729173,0.328127 -1.09375,0.328125 -0.437506,2e-6 -0.875005,-0.656247 -1.3125,-1.96875 -0.802088,-0.656245 -1.166671,-1.20312 -1.09375,-1.640625 0.145829,-0.583327 0.583329,-1.020826 1.3125,-1.3125 0.94791,-0.3645757 2.114576,-0.6197838 3.5,-0.765625 0.87499,-0.072909 1.677073,-0.1093669 2.40625,-0.109375 0.656238,-0.7291578 1.276029,-1.4583238 1.859375,-2.1875 C 96.380193,3.8177215 97.5104,1.7395986 97.4375,0.5 97.437484,0.06251695 97.218734,-0.15623283 96.78125,-0.15625 95.687485,0.42709992 94.776028,0.79168289 94.046875,0.9375 93.098946,1.0833493 92.36978,0.86459948 91.859375,0.28125 91.348948,-0.22914942 91.020823,-0.63019069 90.875,-0.921875 c 0.802073,0.29168431 1.531239,0.4010592 2.1875,0.328125 1.02082,-0.14581558 2.114569,-0.32810706 3.28125,-0.546875 z M 88.6875,10.5625 c -0.58334,0.07292 -1.166673,0.182298 -1.75,0.328125 -0.364589,0.145839 -0.583339,0.328131 -0.65625,0.546875 0.218745,0.583338 0.692702,1.020838 1.421875,1.3125 0.874992,-0.364579 1.822908,-1.093745 2.84375,-2.1875 -0.437509,-0.07291 -1.0573,-0.07291 -1.859375,0 z"
     style="font-size:28px;font-variant:normal;font-stretch:normal;fill:#f2f2f2;font-family:HGGyoshotai;-inkscape-font-specification:HGGyoshotai"
     id="path4390" /><path
     d="m 123.46875,-4.203125 c 0.21874,-0.072895 0.69269,0.1458544 1.42188,0.65625 0.72915,0.4375201 1.09373,1.0937695 1.09375,1.96875 -0.14586,0.65626794 -0.43752,1.89585003 -0.875,3.71875 l -0.32813,1.09375 c 0.21873,1.38e-5 0.5104,-0.072903 0.875,-0.21875 0.36457,-0.1458192 0.65623,-0.5833188 0.875,-1.3125 0.0729,-0.1458179 0.54686,-0.2916511 1.42188,-0.4375 0.43748,0.1458489 0.98435,0.3281404 1.64062,0.546875 1.16664,0.3645982 1.82289,0.838556 1.96875,1.421875 -2e-5,0.5104299 -0.36461,0.9114712 -1.09375,1.203125 -1.96877,0.7291785 -3.4271,1.2395947 -4.375,1.53125 -0.87502,0.2916774 -1.6771,0.5468855 -2.40625,0.765625 -1.60418,2.4791745 -2.91668,4.302089 -3.9375,5.46875 -0.80209,0.947921 -1.78647,1.82292 -2.95312,2.625 -0.72918,0.583335 -1.56772,0.875001 -2.51563,0.875 -1.45834,0.07292 -2.33334,-0.473957 -2.625,-1.640625 0.0729,-0.14583 0.25521,-0.14583 0.54688,0 0.51041,0.218753 0.80207,0.291669 0.875,0.21875 1.74999,-0.656247 3.24478,-1.749996 4.48437,-3.28125 1.16666,-1.604159 1.89582,-2.7708245 2.1875,-3.5 -1.16668,-0.1458237 -2.51563,-1.0572811 -4.04687,-2.734375 -0.29168,-0.2187375 -0.29168,-0.3281124 0,-0.328125 0.21874,1.26e-5 0.54686,0.072929 0.98437,0.21875 0.43749,0.072929 0.87499,0.1093872 1.3125,0.109375 0.87499,1.22e-5 2.0052,-0.1822792 3.39063,-0.546875 L 122.375,1.375 122.48438,0.609375 c -0.0729,-0.87498272 -0.25523,-1.6770652 -0.54688,-2.40625 -0.3646,-0.7291471 -0.54689,-1.2760216 -0.54687,-1.640625 L 121.5,-3.546875 c 0.80207,-0.2187292 1.45832,-0.437479 1.96875,-0.65625 z m 1.3125,14 c 2.77081,0.36459 4.95831,1.276048 6.5625,2.734375 1.53123,1.38542 2.47914,2.734377 2.84375,4.046875 l -0.10938,0.765625 c -0.3646,0.218749 -0.72919,0.328124 -1.09375,0.328125 l -0.21875,0 c -0.43752,-1e-6 -1.31252,-0.364584 -2.625,-1.09375 -1.31251,-0.729166 -1.96876,-1.203123 -1.96875,-1.421875 l 1.75,0 c 0.0729,-0.291665 -2e-5,-0.546873 -0.21875,-0.765625 -1.82293,-1.531246 -3.71876,-3.098953 -5.68749,-4.703125 z"
     style="font-size:28px;font-variant:normal;font-stretch:normal;fill:#f2f2f2;font-family:HGGyoshotai;-inkscape-font-specification:HGGyoshotai"
     id="path4392" /><path
     d="m 150.04687,-2.671875 c 0.65624,0.2187695 1.05728,0.4739775 1.20313,0.765625 0.21874,0.072936 0.18228,0.255227 -0.10938,0.546875 -0.87501,0.51043453 -1.64063,0.98439239 -2.29687,1.421875 0.58332,0.14585014 0.9479,0.51043311 1.09375,1.09375 0.65624,1.59e-5 1.20311,0.072933 1.64062,0.21875 0.51041,0.3645986 0.47395,0.6927233 -0.10937,0.984375 -0.58335,0.2187644 -1.16668,0.4739725 -1.75,0.765625 l -0.4375,5.03125 c -0.0729,0.6562582 -0.32814,1.2031327 -0.76563,1.640625 -0.87501,-0.8749919 -1.27605,-1.5676995 -1.20312,-2.078125 0.14582,-1.3124894 0.29166,-2.6614464 0.4375,-4.046875 l -1.53125,0.65625 c -1e-5,0.5104288 -0.10938,1.020845 -0.32813,1.53125 -0.4375,1.6770928 -0.91146,2.6979251 -1.42187,3.0625 -0.14584,8.1e-6 -0.36459,-0.1458251 -0.65625,-0.4375 -0.43751,-0.437491 -0.65626,-0.8749906 -0.65625,-1.3125 l 0.32812,-0.765625 c 0.0729,-0.2916558 0.14583,-0.692697 0.21875,-1.203125 l -1.53125,0.4375 c -0.65625,0.3645943 -1.16667,0.4375109 -1.53125,0.21875 -0.29166,-0.3645718 -0.51041,-0.874988 -0.65625,-1.53125 0.14584,-0.1458205 0.40104,-0.328112 0.76563,-0.546875 0.4375,0.07293 0.76562,0.1093881 0.98437,0.109375 1.02083,-0.510403 2.04166,-1.2031107 3.0625,-2.078125 l 0,-0.65625 c 0,-0.21873392 -0.0729,-0.5104003 -0.21875,-0.875 0.65625,0.21876652 1.02083,0.51043289 1.09375,0.875 0.94791,-0.5104003 1.49479,-0.98435816 1.64063,-1.421875 -0.36459,-0.58331547 -1.34897,-1.1666482 -2.95313,-1.75 l 0,-0.109375 0.875,-0.109375 c 2.04166,-0.1458139 3.42708,-0.3281054 4.15625,-0.546875 0.14583,-0.072897 0.36458,-0.036439 0.65625,0.109375 z M 158.25,-2.34375 c 1.02081,0.2187691 1.53123,0.692727 1.53125,1.421875 -2e-5,0.51043409 -0.1094,1.20314173 -0.32813,2.078125 -0.0729,1.239598 -0.10939,2.4062635 -0.10937,3.5 -2e-5,1.0208447 0.0364,2.0052187 0.10937,2.953125 L 159.34375,8.703125 159.125,9.25 c -0.21877,0.2187575 -0.5469,0.2552158 -0.98438,0.109375 -1.16668,-0.2916587 -2.15106,-0.7291583 -2.95312,-1.3125 -0.29168,-0.2187408 -0.29168,-0.3281157 0,-0.328125 0.58331,9.3e-6 1.02081,-0.036449 1.3125,-0.109375 0.14581,-0.1458238 0.32811,-0.4374902 0.54687,-0.875 0.21873,-3.718736 0.32811,-6.23435848 0.32813,-7.546875 -2e-5,-0.2916485 -0.0365,-0.47394 -0.10938,-0.546875 l -0.65625,0.4375 0.32813,-0.65625 c -0.43752,-0.2187312 -0.54689,-0.4010227 -0.32813,-0.546875 0.43748,-0.2187306 0.98436,-0.2916472 1.64063,-0.21875 z m -4.92188,1.640625 c 0.58332,0.2187675 0.9479,0.51043387 1.09375,0.875 -1e-5,0.72918278 0.14582,1.2760572 0.4375,1.640625 0.29165,-0.510401 0.61978,-1.20310859 0.98438,-2.078125 -0.0729,0.43751684 -0.14585,0.80209981 -0.21875,1.09375 L 155.29687,2.25 c -0.8021,2.479179 -1.45835,3.7916776 -1.96875,3.9375 -0.80209,-0.8020717 -1.16668,-1.3124879 -1.09375,-1.53125 0.0729,-0.656237 0.21874,-1.2395697 0.4375,-1.75 C 152.89061,2.3229314 152.99998,1.4843905 153,0.390625 l -0.10938,-1.09375 c 0.0729,-0.0728989 0.21874,-0.0728989 0.4375,0 z m -5.14062,1.3125 c -0.72918,0.36459938 -1.38543,0.8020989 -1.96875,1.3125 0.0729,0.2187649 0.10937,0.4375147 0.10937,0.65625 0.80208,-0.2187353 1.38541,-0.5104017 1.75,-0.875 -1e-5,-0.2916511 0.0364,-0.656234 0.10938,-1.09375 z M 151.46875,6.625 c 0.65623,1.04e-5 1.20311,0.3281351 1.64062,0.984375 0.43749,0.6562587 0.65624,1.4583413 0.65625,2.40625 1.16665,-0.364576 1.93228,-0.3281177 2.29688,0.109375 0.29165,0.656256 -0.0729,1.166672 -1.09375,1.53125 -0.65627,0.218755 -1.16668,0.401047 -1.53125,0.546875 -0.0729,0.875004 -0.14585,1.82292 -0.21875,2.84375 l 3.17187,0.328125 c 0.58332,-0.218748 1.64061,0.109377 3.17188,0.984375 1.16664,0.65625 1.67706,1.239583 1.53125,1.75 -0.14586,0.291665 -0.47398,0.40104 -0.98438,0.328125 -1.2396,-0.07292 -2.77085,-0.437501 -4.59375,-1.09375 -0.87501,-0.291667 -2.11459,-0.4375 -3.71875,-0.4375 -0.94793,0 -2.15105,0.182292 -3.60937,0.546875 -0.58334,0.145833 -1.13022,0.218749 -1.64063,0.21875 -1.02084,-1e-6 -1.75,-0.03646 -2.1875,-0.109375 -0.51042,-0.07292 -0.94792,-0.328125 -1.3125,-0.765625 -0.21875,-0.364583 -0.0365,-0.473958 0.54688,-0.328125 3.13541,-0.510416 4.84895,-0.802082 5.14062,-0.875 0.72916,-0.218748 1.34895,-0.364582 1.85938,-0.4375 0.21874,-0.874997 0.32811,-1.749996 0.32812,-2.625 -1.75001,-0.07291 -2.98959,-0.619787 -3.71875,-1.640625 -0.0729,-0.218744 -0.0729,-0.328119 0,-0.328125 1.23958,0.218756 2.11458,0.328131 2.625,0.328125 0.51041,6e-6 0.91145,-0.07291 1.20313,-0.21875 0.14582,-0.437493 0.18228,-0.9843677 0.10937,-1.640625 -0.0729,-0.8749911 -0.32813,-1.4947822 -0.76562,-1.859375 -0.14585,-0.1458233 -0.1823,-0.2551982 -0.10938,-0.328125 0.21874,-0.2187396 0.61978,-0.2916562 1.20313,-0.21875 z"
     style="font-size:28px;font-variant:normal;font-stretch:normal;fill:#f2f2f2;font-family:HGGyoshotai;-inkscape-font-specification:HGGyoshotai"
     id="path4394" /></g></g></svg>
